<?xml version="1.0" encoding="UTF-8" standalone="no"?>
<!-- Created with Inkscape (http://www.inkscape.org/) -->

<svg
   width="25mm"
   height="10.693788mm"
   viewBox="0 0 25 10.693788"
   version="1.1"
   id="svg1"
   xml:space="preserve"
   sodipodi:docname="PCB_Logo.svg"
   inkscape:version="1.3.2 (091e20e, 2023-11-25, custom)"
   xmlns:inkscape="http://www.inkscape.org/namespaces/inkscape"
   xmlns:sodipodi="http://sodipodi.sourceforge.net/DTD/sodipodi-0.dtd"
   xmlns="http://www.w3.org/2000/svg"
   xmlns:svg="http://www.w3.org/2000/svg"><sodipodi:namedview
     id="namedview1"
     pagecolor="#ffffff"
     bordercolor="#000000"
     borderopacity="0.25"
     inkscape:showpageshadow="2"
     inkscape:pageopacity="0.0"
     inkscape:pagecheckerboard="0"
     inkscape:deskcolor="#d1d1d1"
     inkscape:document-units="mm"
     inkscape:zoom="0.78175924"
     inkscape:cx="110.00829"
     inkscape:cy="19.187493"
     inkscape:window-width="1920"
     inkscape:window-height="991"
     inkscape:window-x="-9"
     inkscape:window-y="-9"
     inkscape:window-maximized="1"
     inkscape:current-layer="layer1" /><defs
     id="defs1" /><g
     inkscape:label="Layer 1"
     inkscape:groupmode="layer"
     id="layer1"
     transform="translate(-24.489789,-183.24051)"><g
       id="g2"
       transform="matrix(0.08774401,0,0,0.08774401,-9.8076719,163.67966)"
       inkscape:export-filename="PCB_Logo.svg"
       inkscape:export-xdpi="96"
       inkscape:export-ydpi="96"><g
         fill="#000000"
         fill-opacity="1"
         id="g70"><g
           transform="translate(195.30664,271.95083)"
           id="g69"><g
             id="g68" /></g></g><g
         id="g4"
         inkscape:export-filename="PCB_Logo.svg"
         inkscape:export-xdpi="96"
         inkscape:export-ydpi="96"
         transform="translate(249.91948,21.179617)"><path
           style="fill:#000000"
           d="m 158.21146,321.0013 v -2.625 h -3.75 -3.75 v -16.875 c 0,-14.5 -0.15833,-16.875 -1.125,-16.875 -0.78572,0 -1.125,-0.79167 -1.125,-2.625 v -2.62501 h -3.75 -3.75 v -11.25 -11.25 h 21 c 20.5,0 21,0.0357 21,1.5 0,1.85379 0.13328,1.85391 3.16937,0.003 2.19985,-1.34125 3.78366,-1.4972 15.20563,-1.4972 11.42197,0 13.00578,0.15595 15.20563,1.4972 3.03608,1.8511 3.16937,1.85099 3.16937,-0.003 0,-1.45514 0.49906,-1.49992 16.6875,-1.4972 15.35417,0.003 16.8837,0.12243 19.14313,1.5 3.03608,1.85111 3.16937,1.85099 3.16937,-0.003 0,-1.45508 0.5,-1.5 16.69861,-1.5 15.27111,0 16.93808,0.12836 19.5,1.50146 l 2.80139,1.50146 v -1.50146 c 0,-1.48132 0.48822,-1.50146 36.41224,-1.50146 38.81786,0 38.54752,-0.0238 41.9073,3.68873 l 1.44101,1.59229 1.93222,-1.84279 c 1.06273,-1.01354 2.88233,-2.20177 4.04355,-2.64051 2.63788,-0.99666 25.23418,-1.05695 27.81893,-0.0742 1.0466,0.39791 2.97488,1.74791 4.28506,3 1.31019,1.25208 2.79908,2.27652 3.30865,2.27652 1.9493,0 6.23149,5.81492 6.7228,9.1291 0.26466,1.78524 0.37366,12.41882 0.24222,23.63018 -0.22529,19.2166 -0.32756,20.50283 -1.78532,22.45366 -3.60131,4.81941 -4.63515,5.14039 -17.40747,5.40456 -13.94613,0.28845 -15.92666,-0.01 -19.20827,-2.89092 l -2.50502,-2.19943 -1.41645,1.58994 c -3.17603,3.56501 -3.96593,3.63291 -42.26736,3.63291 h -36.02409 v -2.625 -2.625 h -3.75 -3.75 v -4.875 -4.875 h -4.5 -4.5 v 7.5 7.5 h -31.125 c -30.63507,0 -31.125,-0.0236 -31.125,-1.50146 v -1.50146 l -2.80139,1.50146 c -2.47896,1.32864 -4.227,1.50113 -15.1875,1.49865 -11.31962,-0.003 -12.61213,-0.14053 -15.01111,-1.60232 -1.44375,-0.87974 -3.039,-2.18991 -3.545,-2.9115 -0.50601,-0.72159 -1.73403,-1.51629 -2.72894,-1.76599 -0.99492,-0.24971 -2.85904,-1.65002 -4.1425,-3.1118 l -2.33356,-2.65778 v 6.0261 6.0261 h -11.25 -11.25 z m 11.25,-25.875 v -19.50001 h 4.875 4.875 v -7.5 -7.5 h -17.25 -17.25 v 7.5 7.5 h 4.875 4.875 v 19.50001 19.5 h 7.5 7.5 z m 46.94163,17.02067 1.80837,-2.10432 v -22.51587 -22.51587 l -2.19231,-2.19231 -2.19231,-2.19231 h -12.42086 -12.42086 l -2.44933,2.18848 -2.44933,2.18848 v 22.62305 22.62304 l 2.50369,2.23705 2.50369,2.23704 12.75044,-0.23607 12.75043,-0.23606 z M 198.71146,287.6263 v -12.00001 h 2.625 2.625 v 12.00001 12 h -2.625 -2.625 z m 39.75,19.5 v -7.5 h 2.25 2.25 v 7.5 7.5 h 7.5 7.5 l -0.003,-8.0625 c -0.003,-8.77697 -1.18581,-12.26151 -4.52123,-13.32013 -1.5743,-0.49967 -1.55565,-0.56026 0.57053,-1.85326 3.50927,-2.13412 4.10212,-4.63329 3.82552,-16.12655 l -0.24702,-10.26437 -2.44933,-2.1866 -2.44934,-2.1866 h -14.61316 -14.61317 v 27.00001 27 h 7.5 7.5 z m 0,-26.57519 v -4.92482 h 2.28579 2.28578 l -0.22328,4.68751 c -0.21399,4.49234 -0.30916,4.69738 -2.28579,4.92481 l -2.0625,0.23732 z m 39,26.57519 v -7.5 h 7.45818 c 6.80043,0 7.64376,-0.1595 9.5625,-1.80848 l 2.10432,-1.80847 0.2353,-14.07504 c 0.12941,-7.74127 0.0314,-14.88748 -0.21784,-15.88045 -0.24922,-0.99298 -1.33251,-2.6204 -2.40731,-3.61649 -1.92965,-1.78834 -2.14115,-1.81108 -16.84467,-1.81108 h -14.89048 v 27.00001 27 h 7.5 7.5 z m 0,-26.625 v -4.87501 h 2.25 2.25 v 4.87501 4.875 h -2.25 -2.25 z m 58.5,26.625 v -7.5 h -9.75 -9.75 v -2.25 -2.25 h 7.5 7.5 v -7.5 -7.5 h -7.5 -7.5 v -2.25001 -2.25 h 9.75 9.75 v -7.5 -7.5 h -17.25 -17.25 v 27.00001 27 h 17.25 17.25 z m 36.2558,5.95976 c 3.27526,-2.57632 3.62168,-5.41979 3.36063,-27.58492 l -0.24143,-20.50017 -2.44933,-2.18734 -2.44934,-2.18734 h -14.61316 -14.61317 v 27.00001 27 h 14.52385 c 13.51468,0 14.65992,-0.10703 16.48195,-1.54024 z m -16.7558,-25.45976 v -12.00001 h 2.625 2.625 v 12.00001 12 h -2.625 -2.625 z m 56.7,24.45 2.55,-2.55 v -21.52179 c 0,-28.79786 0.93817,-27.37822 -18.09298,-27.37822 h -12.02241 l -2.1923,2.19231 -2.19231,2.19231 0.0167,22.37019 c 0.0215,28.83672 -1.03889,27.18683 17.49582,27.22239 l 11.8875,0.0228 z m -16.95,-24.45 v -12.00001 h 2.25 2.25 v 12.00001 12 h -2.25 -2.25 z m -159,-38.25001 v -3.75 h -2.59441 c -1.42692,0 -5.81442,-1.15088 -9.75,-2.55751 l -7.15559,-2.5575 v 3.66821 c 0,3.34431 -0.17582,3.71235 -1.99108,4.16795 -3.95001,0.99139 -4.38392,-0.0655 -4.38392,-10.67789 v -9.66826 h 3 3 l 0.22859,3.5625 c 0.12573,1.95938 0.46323,3.55799 0.75,3.55247 0.28678,-0.006 3.39016,-1.01351 6.89641,-2.23997 3.50625,-1.22646 7.64062,-2.23445 9.1875,-2.23997 l 2.8125,-0.01 v -3.75 -3.75 h 4.43567 4.43567 l 2.29388,3.72803 2.29388,3.72803 46.33295,0.20947 c 45.16304,0.20419 46.39904,0.2483 48.95027,1.74703 1.43952,0.84565 3.12702,2.44878 3.75,3.5625 1.01051,1.80655 1.01021,2.24739 -0.003,4.08744 -0.62454,1.13438 -2.48079,2.7375 -4.125,3.5625 -2.87711,1.44363 -4.71636,1.50808 -48.93928,1.71483 l -45.94981,0.21482 -2.42519,3.7092 -2.42518,3.7092 -4.3125,0.0135 -4.3125,0.0135 z m 75.75,-15.75 c 0,-0.48485 -8.75,-0.75 -24.75,-0.75 -16,0 -24.75,0.26515 -24.75,0.75 0,0.48485 8.75,0.75 24.75,0.75 16,0 24.75,-0.26515 24.75,-0.75 z m 10.5,0 c 0,-0.4125 -1.51875,-0.75 -3.375,-0.75 -1.85625,0 -3.375,0.3375 -3.375,0.75 0,0.4125 1.51875,0.75 3.375,0.75 1.85625,0 3.375,-0.3375 3.375,-0.75 z m -132.51571,13.49543 c -1.09586,-5.78484 -1.75965,-6.56637 -4.51199,-5.31232 -2.00909,0.9154 -2.03117,0.9013 -0.77034,-0.4919 1.45155,-1.60394 1.80756,-3.25073 0.39804,-1.84121 -1.38549,1.38549 -1.92571,1.07639 -1.55037,-0.88709 0.42312,-2.21342 -0.14471,-2.57047 -5.99399,-3.76895 l -4.68064,-0.95903 3.66024,-0.55308 c 5.51969,-0.83404 7.39686,-1.89398 7.00302,-3.95424 -0.36483,-1.90849 0.18793,-2.20142 1.56174,-0.82761 1.40952,1.40952 1.05351,-0.23726 -0.39804,-1.84121 -1.26083,-1.3932 -1.23875,-1.4073 0.77034,-0.4919 2.73451,1.24593 3.34832,0.52432 4.54522,-5.34334 l 0.97605,-4.78498 0.90173,4.5834 c 1.06851,5.43115 2.44121,7.00321 4.81865,5.51847 1.57515,-0.9837 1.57832,-0.97321 0.29681,0.98263 -1.48834,2.27149 -0.92834,2.57479 1.22682,0.66443 1.44141,-1.27769 1.45596,-1.26542 0.54834,0.4625 -1.2901,2.45607 -0.0381,3.53953 5.59113,4.83834 l 4.49795,1.03781 -3.94211,0.55794 c -2.16816,0.30686 -4.65996,1.13922 -5.53734,1.84968 -1.40565,1.13822 -1.48126,1.5086 -0.63626,3.11648 0.93512,1.77935 0.92214,1.7921 -0.52171,0.51225 -2.15516,-1.91035 -2.71516,-1.60706 -1.22682,0.66444 1.28857,1.9666 1.28676,1.97158 -0.34559,0.95216 -2.30774,-1.44121 -3.58551,0.0468 -4.81487,5.60703 l -0.9753,4.41113 z m 170.10271,-1.27183 c -0.0478,-0.49576 -1.32002,-2.09889 -2.82705,-3.5625 -1.50703,-1.4636 -2.35078,-2.6611 -1.875,-2.6611 0.99347,0 3.31762,-2.17991 4.50761,-4.22787 0.6137,-1.05615 0.82348,-1.12257 0.85958,-0.27213 0.0599,1.4102 2.58703,4.5 3.68058,4.5 0.4495,0 0.81728,0.3375 0.81728,0.75 0,0.4125 -0.3375,0.75 -0.75,0.75 -1.08934,0 -3.55509,2.63625 -3.96989,4.24439 -0.19586,0.75934 -0.39526,0.97498 -0.44311,0.47921 z m -17.27443,-20.4736 c -0.13031,-2.8852 -1.81329,-5.6213 -3.45885,-5.62325 -0.97044,-0.001 -1.47932,-0.51003 -1.48047,-1.48047 -0.002,-1.64556 -2.73805,-3.32854 -5.62325,-3.45885 -1.46188,-0.066 -1.21366,-0.27503 1.12653,-0.94856 4.03084,-1.16012 4.89512,-1.80977 4.33826,-3.26092 -0.31397,-0.8182 -0.17878,-1.04422 0.40775,-0.68172 0.4826,0.29826 0.87746,0.22424 0.87746,-0.16449 0,-0.38874 0.66556,-0.88084 1.47903,-1.09357 1.06543,-0.27861 1.6285,-1.29931 2.01353,-3.64997 l 0.53449,-3.2632 0.8283,3.34811 c 0.64028,2.58812 1.24104,3.44554 2.64662,3.77736 1.11541,0.26331 1.98425,1.13215 2.24756,2.24756 0.33182,1.40558 1.18924,2.00634 3.77736,2.64662 l 3.34811,0.8283 -3.2632,0.53449 c -2.35066,0.38503 -3.37136,0.9481 -3.64997,2.01353 -0.21273,0.81347 -0.70483,1.47903 -1.09357,1.47903 -0.38873,0 -0.46275,0.39486 -0.16449,0.87745 0.3625,0.58654 0.13648,0.72173 -0.68172,0.40776 -1.45116,-0.55686 -2.1008,0.30742 -3.26092,4.33826 -0.67353,2.34019 -0.88253,2.58841 -0.94856,1.12653 z M 211.54846,213.44258 c -0.0479,-0.58228 -1.35263,-2.18515 -2.8995,-3.56191 -1.54688,-1.37676 -2.39063,-2.50347 -1.875,-2.50379 1.05632,-6.6e-4 3.35842,-2.12603 4.58006,-4.22846 0.65247,-1.12287 0.8163,-1.16515 0.83463,-0.21536 0.0279,1.4431 3.08982,4.43466 4.57115,4.46604 0.74915,0.0159 0.65166,0.26975 -0.32047,0.83462 -2.12691,1.23588 -4.05144,3.35044 -4.44776,4.88696 -0.20081,0.77853 -0.39405,0.91891 -0.44311,0.3219 z"
           id="path6" /></g></g></g></svg>
