<?xml version="1.0" encoding="UTF-8" standalone="no"?>
<!-- Created with Inkscape (http://www.inkscape.org/) -->

<svg
   width="153.26466mm"
   height="100.26491mm"
   viewBox="0 0 153.26466 100.26491"
   version="1.1"
   id="svg1"
   xml:space="preserve"
   xmlns:inkscape="http://www.inkscape.org/namespaces/inkscape"
   xmlns:sodipodi="http://sodipodi.sourceforge.net/DTD/sodipodi-0.dtd"
   xmlns="http://www.w3.org/2000/svg"
   xmlns:svg="http://www.w3.org/2000/svg"><sodipodi:namedview
     id="namedview1"
     pagecolor="#ffffff"
     bordercolor="#000000"
     borderopacity="0.25"
     inkscape:showpageshadow="2"
     inkscape:pageopacity="0.0"
     inkscape:pagecheckerboard="0"
     inkscape:deskcolor="#d1d1d1"
     inkscape:document-units="mm" /><defs
     id="defs1" /><g
     inkscape:label="Layer 1"
     inkscape:groupmode="layer"
     id="layer1"
     transform="translate(224.40795,25.503186)"><g
       id="g1"
       transform="matrix(0.26458333,0,0,0.26458333,-146.27569,-267.37098)"><g
         inkscape:label="0"
         id="g4" /><g
         inkscape:label="SECTION_CUTTING_LINE"
         id="g5" /><g
         inkscape:label="DETAIL_VIEW_BORDER"
         id="g6" /><g
         inkscape:label="DETAIL_VIEW_PARENT_BORDER"
         id="g7" /><g
         inkscape:label="TEXT"
         id="g8" /><g
         inkscape:label="SKETCHED_GEOMETRY"
         id="g9" /><g
         inkscape:label="VIRTUAL_SHARPS"
         id="g10" /><g
         inkscape:label="CENTERLINES"
         id="g11" /><g
         inkscape:label="CENTERMARKS"
         id="g12" /><g
         inkscape:label="TABLES"
         id="g13" /><g
         inkscape:label="IMAGES"
         id="g14" /><g
         inkscape:label="ANNOTATION_LINES"
         id="g15" /><g
         inkscape:label="ANNOTATION_TEXT"
         id="g16" /><g
         inkscape:label="SIDE_THREAD_SYMBOLS"
         id="g17" /><g
         inkscape:label="SIDE_THREAD_SYMBOLS_HIDDEN"
         id="g18" /><g
         inkscape:label="SURFACE_THREAD_SYMBOLS"
         id="g19" /><g
         inkscape:label="SURFACE_THREAD_SYMBOLS_ON_"
         id="g20" /><g
         inkscape:label="SURFACE_THREAD_SYMBOLS_HID"
         id="g21" /><g
         inkscape:label="BLIND_THREAD_SYMBOLS"
         id="g22" /><g
         inkscape:label="BLIND_THREAD_SYMBOLS_HIDDE"
         id="g23" /><g
         inkscape:label="EXPLODE_LINES"
         id="g24" /><g
         inkscape:label="HIDDEN_EXPLODE_LINES"
         id="g25" /><g
         inkscape:label="BREAK_LINES"
         id="g26" /><g
         inkscape:label="SHEETMETAL_BEND_LINES_UP"
         id="g27" /><g
         inkscape:label="SHEETMETAL_BEND_LINES_DOWN"
         id="g28" /><g
         inkscape:label="SHEETMETAL_BEND_TANGENT_LI"
         id="g29" /><g
         inkscape:label="SHEETMETAL_CUT_LINES"
         id="g30" /><g
         inkscape:label="SHEETMETAL_CBORE_CSINK_UP"
         id="g31" /><g
         inkscape:label="SHEETMETAL_CBORE_CSINK_DOW"
         id="g32" /><g
         inkscape:label="SHEETMETAL_FORM_TEAR"
         id="g33" /><g
         inkscape:label="SHEETMETAL_FORM_UP"
         id="g34" /><g
         inkscape:label="SHEETMETAL_FORM_DOWN"
         id="g35" /><g
         inkscape:label="SHEETMETAL_FORM_CENTERMARK"
         id="g36" /><g
         inkscape:label="REGION_ASSOC_POINTS"
         id="g37" /><g
         inkscape:label="PATTERN_CENTERLINES"
         id="g38" /><g
         inkscape:label="HIDDEN"
         id="g39" /><g
         inkscape:label="VISIBLE"
         id="g40" /><g
         inkscape:label="MODELSKETCH_VISIBLE"
         id="g145"><path
           style="fill:none;stroke:#000000"
           d="m -72.2266,1007.32 v 230.4"
           id="path40" /><path
           d="m -134.15456,1013.882 -1.38365,-0.1824 -0.84953,-1.1072 0.18216,-1.3835 1.10712,-0.8496 1.38357,0.1822 0.84952,1.1071 -0.18215,1.3836 -1.10704,0.8498"
           style="fill:none;stroke:#000000"
           id="path41" /><path
           d="m -38.260612,1056.0244 -0.648381,-1.4749 0.569579,-1.5036 0.669138,-0.4717 0.797398,-0.1909 1.50115,0.5791 0.665344,1.4649 -0.144156,0.8072 -0.432016,0.6954 -1.467936,0.656 -1.51012,-0.5615"
           style="fill:none;stroke:#000000"
           id="path42" /><path
           style="fill:none;stroke:#000000"
           d="m -139.427,1007.32 v 230.4"
           id="path43" /><path
           style="fill:none;stroke:#000000"
           d="m -28.3465,1073.39 v 98.26"
           id="path44" /><path
           d="m -46.791006,1056.0244 -0.64838,-1.4749 0.569578,-1.5036 0.669138,-0.4717 0.797399,-0.1909 1.50115,0.5791 0.665343,1.4649 -0.144155,0.8072 -0.432017,0.6954 -1.467935,0.656 -1.510121,-0.5615"
           style="fill:none;stroke:#000000"
           id="path45" /><path
           style="fill:none;stroke:#000000"
           d="M -72.2266,1237.72 H -139.427"
           id="path46" /><path
           style="fill:none;stroke:#000000"
           d="m 28.3465,1073.39 h -56.693"
           id="path47" /><path
           d="m -53.077831,1039.5887 -1.444743,-0.713 -0.530179,-1.518 0.209375,-0.7914 0.48817,-0.6588 1.522144,-0.5214 1.45133,0.6946 0.408393,0.711 0.116079,0.8104 -0.702812,1.4461 -1.517757,0.5405"
           style="fill:none;stroke:#000000"
           id="path48" /><path
           style="fill:none;stroke:#000000"
           d="M -73.7008,1007.24 V 1237.8"
           id="path49" /><path
           style="fill:none;stroke:#000000"
           d="m 28.3465,1171.65 v -98.26"
           id="path50" /><path
           d="m -51.051956,1021.3771 -0.496973,0.6527 -0.701706,0.4215 -1.605616,-0.083 -0.656474,-0.4888 -0.43047,-0.6996 0.09294,-1.6078 1.190996,-1.0804 0.810898,-0.1143 0.796204,0.1941 1.073575,1.1979 -0.07337,1.6077"
           style="fill:none;stroke:#000000"
           id="path51" /><path
           d="m -53.031936,1014.0743 -0.796171,-0.1978 -0.664917,-0.4774 -0.559729,-1.5072 0.188744,-0.7964 0.471925,-0.6724 1.513126,-0.5514 1.463784,0.6656 0.42611,0.6993 0.137139,0.808 -0.67471,1.4602 -1.505301,0.5695"
           style="fill:none;stroke:#000000"
           id="path52" /><path
           style="fill:none;stroke:#000000"
           d="m 211.654,1228.35 v -68.04"
           id="path53" /><path
           d="m -51.337147,1004.8221 -1.43472,0.7331 -1.534171,-0.4812 -0.509828,-0.6406 -0.236887,-0.7849 0.490776,-1.5323 1.423778,-0.7494 0.814161,0.097 0.719376,0.3908 0.740282,1.4273 -0.472767,1.5402"
           style="fill:none;stroke:#000000"
           id="path54" /><path
           style="fill:none;stroke:#000000"
           d="M -137.953,1007.24 V 1237.8"
           id="path55" /><path
           style="fill:none;stroke:#000000"
           d="M 68.0315,1228.35 H 211.654"
           id="path56" /><path
           style="fill:none;stroke:#000000"
           d="M -137.953,1237.8 V 1007.24"
           id="path57" /><path
           style="fill:none;stroke:#000000"
           d="m 68.0315,1160.31 v 68.04"
           id="path58" /><path
           style="fill:none;stroke:#000000"
           d="M -73.7008,1237.8 V 1007.24"
           id="path59" /><path
           style="fill:none;stroke:#000000"
           d="M 240.68,986.835 H 78.9165"
           id="path60" /><path
           d="m -278.55118,1084.7244 a 4.913386,4.913386 0 0 0 -9.82677,0 4.913386,4.913386 0 0 0 9.82677,0 z"
           style="fill:none;stroke:#000000"
           id="path61" /><path
           style="fill:none;stroke:#000000"
           d="M -151.181,1198.11 H -294.803"
           id="path62" /><path
           style="fill:none;stroke:#000000"
           d="M -151.181,1046.93 H -294.803"
           id="path63" /><path
           style="fill:none;stroke:#000000"
           d="M -72.2266,1007.32 H -139.427"
           id="path64" /><path
           style="fill:none;stroke:#000000"
           d="m -72.2266,1007.32 v 230.4"
           id="path65" /><path
           d="m -50.915688,985.92643 0.03885,0.81946 -0.266633,0.7739 -1.283334,0.96847 -0.817038,0.0476 -0.779485,-0.25926 -0.96228,-1.29139 0.21788,-1.59321 0.547729,-0.60877 0.734692,-0.3631 1.592401,0.22756 0.977214,1.27875"
           style="fill:none;stroke:#000000"
           id="path66" /><path
           style="fill:none;stroke:#000000"
           d="M 10.9733,921.26 H -58.57"
           id="path67" /><path
           d="m 6.922285,988.11923 -0.737047,0.36024 -0.816216,0.0617 -1.397572,-0.79478 -0.367309,-0.73137 -0.070683,-0.81842 0.80464,-1.39508 1.549203,-0.43098 0.775932,0.26181 0.624401,0.53079 0.421768,1.55231 -0.787117,1.40378"
           style="fill:none;stroke:#000000"
           id="path68" /><path
           d="m 3.892647,996.15641 -0.316779,-0.75674 -0.014137,-0.81843 0.874702,-1.34899 0.75149,-0.32416 0.821147,-0.023 1.345931,0.8844 0.340168,1.57164 -0.306484,0.75939 -0.566196,0.59249 -1.5742,0.33079 -1.355642,-0.86741"
           style="fill:none;stroke:#000000"
           id="path69" /><path
           style="fill:none;stroke:#000000"
           d="M 240.68,1111.56 V 986.835"
           id="path70" /><path
           d="m 7.24553,1036.1227 0.472767,1.5403 -0.74028,1.4273 -0.719377,0.3908 -0.814161,0.097 -1.423778,-0.7494 -0.490777,-1.5323 0.236886,-0.7849 0.509828,-0.6406 1.53417,-0.4812 1.434722,0.733"
           style="fill:none;stroke:#000000"
           id="path71" /><path
           d="m 6.503981,1005.3809 -0.800258,0.1805 -0.808444,-0.1282 -1.17661,-1.0956 -0.188745,-0.7964 0.119969,-0.8127 1.104674,-1.1719 1.606835,-0.062 0.694639,0.4337 0.485163,0.6605 0.052412,1.6077 -1.089635,1.1845"
           style="fill:none;stroke:#000000"
           id="path72" /><path
           style="fill:none;stroke:#000000"
           d="m -137.953,1237.8 h 64.2522"
           id="path73" /><path
           style="fill:none;stroke:#000000"
           d="M -72.2266,1007.32 H -139.427"
           id="path74" /><path
           d="m -52.955035,975.85148 1.484431,0.6178 0.627569,1.48389 -0.628169,1.48363 -1.484655,0.61728 -0.802274,-0.16319 -0.685906,-0.44919 -0.608714,-1.48935 0.609244,-1.48916 0.686133,-0.4489 0.802341,-0.16281"
           style="fill:none;stroke:#000000"
           id="path75" /><path
           style="fill:none;stroke:#000000"
           d="m 10.9733,921.26 v 137.01"
           id="path76" /><path
           style="fill:none;stroke:#000000"
           d="m -283.465,963.78 v 317.48"
           id="path77" /><path
           style="fill:none;stroke:#000000"
           d="M -151.181,1198.11 V 1046.93"
           id="path78" /><path
           d="m 5.627644,1043.883 1.484431,0.6178 0.627564,1.4839 -0.628167,1.4836 -1.484656,0.6173 -0.802274,-0.1632 -0.685905,-0.4492 -0.608713,-1.4894 0.609246,-1.4891 0.686133,-0.4489 0.802341,-0.1628"
           style="fill:none;stroke:#000000"
           id="path79" /><path
           style="fill:none;stroke:#000000"
           d="M 211.654,1160.31 H 68.0315"
           id="path80" /><path
           d="m -28.403677,1056.5966 -1.444744,-0.7131 -0.530178,-1.5179 0.209377,-0.7915 0.488171,-0.6587 1.522146,-0.5214 1.451328,0.6946 0.408396,0.7109 0.116074,0.8105 -0.702813,1.4461 -1.517757,0.5405"
           style="fill:none;stroke:#000000"
           id="path81" /><path
           style="fill:none;stroke:#000000"
           d="m -137.953,1007.24 h 64.2522"
           id="path82" /><path
           d="m -52.544242,997.02736 -0.820326,-0.009 -0.757089,-0.31118 -0.89222,-1.33747 -2e-6,-0.81843 0.304146,-0.76309 1.345158,-0.88556 1.57784,0.31014 0.575899,0.5822 0.319767,0.75456 -0.319763,1.57648 -1.33341,0.90121"
           style="fill:none;stroke:#000000"
           id="path83" /><path
           d="m -50.915688,985.92643 0.03885,0.81946 -0.266633,0.7739 -1.283334,0.96847 -0.817038,0.0476 -0.779485,-0.25926 -0.96228,-1.29139 0.21788,-1.59321 0.547729,-0.60877 0.734692,-0.3631 1.592401,0.22756 0.977214,1.27875"
           style="fill:none;stroke:#000000"
           id="path84" /><path
           d="m -76.554562,1013.882 -1.383645,-0.1824 -0.849528,-1.1072 0.182151,-1.3835 1.107126,-0.8496 1.383564,0.1822 0.849529,1.1071 -0.182152,1.3836 -1.107045,0.8498"
           style="fill:none;stroke:#000000"
           id="path85" /><path
           d="m 6.922285,988.11923 -0.737047,0.36024 -0.816216,0.0617 -1.397572,-0.79478 -0.367309,-0.73137 -0.070683,-0.81842 0.80464,-1.39508 1.549203,-0.43098 0.775932,0.26181 0.624401,0.53079 0.421768,1.55231 -0.787117,1.40378"
           style="fill:none;stroke:#000000"
           id="path86" /><path
           style="fill:none;stroke:#000000"
           d="m -58.57,921.26 v 137.01"
           id="path87" /><path
           d="m 4.21518,1022.0361 -0.482757,-0.6633 -0.202499,-0.7931 0.540028,-1.5143 0.656474,-0.4888 0.793716,-0.2117 1.513606,0.5502 0.693444,1.4508 -0.123094,0.8096 -0.414299,0.7071 -1.455481,0.6849 -1.519138,-0.5314"
           style="fill:none;stroke:#000000"
           id="path88" /><path
           style="fill:none;stroke:#000000"
           d="M 210.444,1111.56 H 240.68"
           id="path89" /><path
           style="fill:none;stroke:#000000"
           d="m -156.85,1046.93 v 151.18"
           id="path90" /><path
           style="fill:none;stroke:#000000"
           d="M 10.9733,1058.27 H -58.57"
           id="path91" /><path
           d="m -19.323608,1166.2357 a 1.511811,1.511811 0 0 0 -3.023622,0 1.511811,1.511811 0 0 0 3.023622,0 z"
           style="fill:none;stroke:#000000"
           id="path92" /><path
           d="m -157.6063,1084.7244 a 4.913386,4.913386 0 0 0 -9.82677,0 4.913386,4.913386 0 0 0 9.82677,0 z"
           style="fill:none;stroke:#000000"
           id="path93" /><path
           style="fill:none;stroke:#000000"
           d="M 10.2174,914.646 H -57.8141"
           id="path94" /><path
           d="m 5.627644,975.85148 1.484431,0.6178 0.627564,1.48389 -0.628167,1.48363 -1.484656,0.61728 -0.802274,-0.16319 -0.685906,-0.44919 -0.608712,-1.48936 0.609246,-1.48916 0.686134,-0.44889 0.80234,-0.16281"
           style="fill:none;stroke:#000000"
           id="path95" /><path
           style="fill:none;stroke:#000000"
           d="M -294.803,1198.11 V 1046.93"
           id="path96" /><path
           style="fill:none;stroke:#000000"
           d="M -73.7008,1007.24 V 1237.8"
           id="path97" /><path
           d="m -52.955027,1043.883 1.484429,0.6178 0.627563,1.4839 -0.628176,1.4836 -1.484657,0.6173 -0.802274,-0.1632 -0.685903,-0.4492 -0.608708,-1.4894 0.60925,-1.4891 0.686135,-0.4489 0.802341,-0.1628"
           style="fill:none;stroke:#000000"
           id="path98" /><path
           style="fill:none;stroke:#000000"
           d="m 78.9165,986.835 v 30.235"
           id="path99" /><path
           d="m 6.922285,1013.631 -0.737047,0.3603 -0.816216,0.062 -1.397572,-0.7948 -0.367309,-0.7314 -0.070683,-0.8184 0.80464,-1.3951 1.549203,-0.4309 0.775932,0.2618 0.624401,0.5308 0.421768,1.5523 -0.787117,1.4037"
           style="fill:none;stroke:#000000"
           id="path100" /><path
           style="fill:none;stroke:#000000"
           d="m -139.427,1007.32 v 230.4"
           id="path101" /><path
           style="fill:none;stroke:#000000"
           d="M -137.953,1007.24 V 1237.8"
           id="path102" /><path
           style="fill:none;stroke:#000000"
           d="m -289.134,1046.93 v 151.18"
           id="path103" /><path
           d="m 7.212091,1027.5873 0.402489,0.7148 0.109054,0.8113 -0.712178,1.4414 -0.708775,0.4092 -0.812928,0.1181 -1.439501,-0.7221 -0.520328,-1.5215 0.216254,-0.7899 0.493585,-0.6542 1.525151,-0.5113 1.447177,0.7042"
           style="fill:none;stroke:#000000"
           id="path104" /><path
           d="m -1.071812,1053.1306 0.47277,1.5402 -0.740281,1.4273 -0.719375,0.3909 -0.814161,0.097 -1.423781,-0.7494 -0.490779,-1.5323 0.236887,-0.7849 0.509828,-0.6406 1.534171,-0.4812 1.434721,0.733"
           style="fill:none;stroke:#000000"
           id="path105" /><path
           style="fill:none;stroke:#000000"
           d="M 78.9165,1017.07 H 210.444"
           id="path106" /><path
           d="m -55.052753,1028.7312 0.795883,-1.4008 1.546196,-0.4411 0.777959,0.2551 0.629252,0.5256 0.431966,1.5499 -0.777752,1.4085 -0.733512,0.3664 -0.815805,0.069 -1.402813,-0.7857 -0.451374,-1.5466"
           style="fill:none;stroke:#000000"
           id="path107" /><path
           d="M 283.46457,963.77953 A 11.338583,11.338583 0 0 0 272.12598,952.44095"
           style="fill:none;stroke:#000000"
           id="path108" /><path
           d="m -272.12598,952.44095 a 11.338583,11.338583 0 0 0 -11.33859,11.33858"
           style="fill:none;stroke:#000000"
           id="path109" /><path
           d="m 103.10551,1001.9528 a 5.291339,5.291339 0 0 0 -10.582675,0 5.291339,5.291339 0 0 0 10.582675,0 z"
           style="fill:none;stroke:#000000"
           id="path110" /><path
           d="m 230.85354,1078.5382 a 5.291339,5.291339 0 0 0 -10.58267,0 5.291339,5.291339 0 0 0 10.58267,0 z"
           style="fill:none;stroke:#000000"
           id="path111" /><path
           d="m -20.764274,1056.3354 -0.622709,-0.534 -0.379938,-0.7251 0.176237,-1.598 0.526074,-0.627 0.723494,-0.389 1.599684,0.1862 1.009335,1.2518 0.06693,0.8162 -0.240069,0.7836 -1.258298,1.0021 -1.60074,-0.1668"
           style="fill:none;stroke:#000000"
           id="path112" /><path
           style="fill:none;stroke:#000000"
           d="M -73.7008,1237.8 H -137.953"
           id="path113" /><path
           d="m -283.46457,1281.2598 a 11.338583,11.338583 0 0 0 11.33859,11.3386"
           style="fill:none;stroke:#000000"
           id="path114" /><path
           d="m -261.27874,967.93701 a 6.614175,6.614175 0 0 0 -13.22835,0 6.614175,6.614175 0 0 0 13.22835,0 z"
           style="fill:none;stroke:#000000"
           id="path115" /><path
           style="fill:none;stroke:#000000"
           d="M 7.55905,1179.21 H 37.7953"
           id="path116" /><path
           style="fill:none;stroke:#000000"
           d="M 272.126,952.441 H -272.126"
           id="path117" /><path
           d="m 26.456693,1164.0945 a 3.779528,3.779528 0 0 0 -7.559055,0 3.779528,3.779528 0 0 0 7.559055,0 z"
           style="fill:none;stroke:#000000"
           id="path118" /><path
           style="fill:none;stroke:#000000"
           d="M -272.126,1292.6 H 272.126"
           id="path119" /><path
           style="fill:none;stroke:#000000"
           d="M 37.7953,1179.21 V 1065.83"
           id="path120" /><path
           d="m 272.12598,1292.5984 a 11.338583,11.338583 0 0 0 11.33859,-11.3386"
           style="fill:none;stroke:#000000"
           id="path121" /><path
           style="fill:none;stroke:#000000"
           d="M 37.7953,1065.83 H 7.55905"
           id="path122" /><path
           d="m 150.45845,1223.7567 a 2.1120005,2.1120005 0 0 0 -4.224,0 2.1120005,2.1120005 0 0 0 4.224,0 z"
           style="fill:none;stroke:#000000"
           id="path123" /><path
           d="m -9.165016,1054.0011 -0.268771,1.5886 -1.302112,0.9432 -0.818272,0.027 -0.771085,-0.2788 -0.93601,-1.3086 0.249116,-1.5896 0.563975,-0.5951 0.74309,-0.3437 1.586941,0.2586 0.953128,1.2989"
           style="fill:none;stroke:#000000"
           id="path124" /><path
           style="fill:none;stroke:#000000"
           d="M 283.465,1281.26 V 963.78"
           id="path125" /><path
           style="fill:none;stroke:#000000"
           d="m 7.55905,1065.83 v 113.38"
           id="path126" /><path
           style="fill:none;stroke:#000000"
           d="M -72.2266,1237.72 H -139.427"
           id="path127" /><path
           d="m -134.15456,1234.682 -1.38365,-0.1824 -0.84953,-1.1072 0.18216,-1.3835 1.10712,-0.8496 1.38357,0.1822 0.84952,1.1071 -0.18215,1.3836 -1.10704,0.8498"
           style="fill:none;stroke:#000000"
           id="path128" /><path
           d="m 26.456693,1080.9449 a 3.779528,3.779528 0 0 0 -7.559055,0 3.779528,3.779528 0 0 0 7.559055,0 z"
           style="fill:none;stroke:#000000"
           id="path129" /><path
           d="m -75.20293,1232.9205 a 1.82362,1.82362 0 0 0 -3.64724,0 1.82362,1.82362 0 0 0 3.64724,0 z"
           style="fill:none;stroke:#000000"
           id="path130" /><path
           style="fill:none;stroke:#000000"
           d="m -28.3465,1171.65 h 56.693"
           id="path131" /><path
           d="m -261.27874,1277.1024 a 6.614175,6.614175 0 0 0 -13.22835,0 6.614175,6.614175 0 0 0 13.22835,0 z"
           style="fill:none;stroke:#000000"
           id="path132" /><path
           d="m -19.323608,1079.8357 a 1.511811,1.511811 0 0 0 -3.023622,0 1.511811,1.511811 0 0 0 3.023622,0 z"
           style="fill:none;stroke:#000000"
           id="path133" /><path
           d="m 274.50709,967.93701 a 6.614175,6.614175 0 0 0 -13.22835,0 6.614175,6.614175 0 0 0 13.22835,0 z"
           style="fill:none;stroke:#000000"
           id="path134" /><path
           style="fill:none;stroke:#000000"
           d="M 10.2174,1058.27 V 914.646"
           id="path135" /><path
           d="m 82.42695,1165.174 a 2.111995,2.111995 0 0 0 -4.223989,0 2.111995,2.111995 0 0 0 4.223989,0 z"
           style="fill:none;stroke:#000000"
           id="path136" /><path
           style="fill:none;stroke:#000000"
           d="m -137.953,1237.8 h 64.2522"
           id="path137" /><path
           d="m 274.50709,1277.1024 a 6.614175,6.614175 0 0 0 -13.22835,0 6.614175,6.614175 0 0 0 13.22835,0 z"
           style="fill:none;stroke:#000000"
           id="path138" /><path
           style="fill:none;stroke:#000000"
           d="M -73.7008,1007.24 H -137.953"
           id="path139" /><path
           style="fill:none;stroke:#000000"
           d="m 210.444,1017.07 v 94.49"
           id="path140" /><path
           d="m 150.45846,1165.174 a 2.112005,2.112005 0 0 0 -4.22401,0 2.112005,2.112005 0 0 0 4.22401,0 z"
           style="fill:none;stroke:#000000"
           id="path141" /><path
           style="fill:none;stroke:#000000"
           d="M -57.8141,914.646 V 1058.27"
           id="path142" /><path
           style="fill:none;stroke:#000000"
           d="m -137.953,1007.24 h 64.2522"
           id="path143" /><path
           d="m 82.426961,1223.7567 a 2.1120015,2.1120015 0 0 0 -4.224003,0 2.1120015,2.1120015 0 0 0 4.224003,0 z"
           style="fill:none;stroke:#000000"
           id="path144" /><path
           style="fill:none;stroke:#000000"
           d="M -57.8141,1058.27 H 10.2174"
           id="path145" /></g><g
         inkscape:label="MODELSKETCH_POINT"
         id="g146" /><g
         inkscape:label="MODELSKETCH_CONSTRUCTION"
         id="g147" /><g
         inkscape:label="HIDDEN_BASE_VIEW"
         id="g148" /><g
         inkscape:label="TANGENT_LINES"
         id="g149" /><g
         inkscape:label="TANGENT_HIDDEN"
         id="g150" /><g
         inkscape:label="INVISIBLE_LINES"
         id="g151" /><g
         inkscape:label="VIEW_HATCHES"
         id="g152" /><g
         inkscape:label="SECTION_JOG_LINES"
         id="g153" /></g></g></svg>
