<?xml version="1.0" encoding="UTF-8" standalone="no"?>
<!-- Created with Inkscape (http://www.inkscape.org/) -->

<svg
   width="10.000001mm"
   height="6.6122084mm"
   viewBox="0 0 10 6.612208"
   version="1.1"
   id="svg1"
   xml:space="preserve"
   sodipodi:docname="PSB_logo.svg"
   inkscape:version="1.3.2 (091e20e, 2023-11-25, custom)"
   xmlns:inkscape="http://www.inkscape.org/namespaces/inkscape"
   xmlns:sodipodi="http://sodipodi.sourceforge.net/DTD/sodipodi-0.dtd"
   xmlns="http://www.w3.org/2000/svg"
   xmlns:svg="http://www.w3.org/2000/svg"><sodipodi:namedview
     id="namedview1"
     pagecolor="#ffffff"
     bordercolor="#000000"
     borderopacity="0.25"
     inkscape:showpageshadow="2"
     inkscape:pageopacity="0.0"
     inkscape:pagecheckerboard="0"
     inkscape:deskcolor="#d1d1d1"
     inkscape:document-units="mm"
     inkscape:zoom="11.112501"
     inkscape:cx="37.795272"
     inkscape:cy="26.996623"
     inkscape:window-width="1920"
     inkscape:window-height="991"
     inkscape:window-x="-9"
     inkscape:window-y="-9"
     inkscape:window-maximized="1"
     inkscape:current-layer="layer1" /><defs
     id="defs1"><clipPath
       clipPathUnits="userSpaceOnUse"
       id="clipPath16"><rect
         style="fill:#ffcc00;fill-opacity:1;stroke:#ff0000;stroke-width:4.96477;stroke-dasharray:none"
         id="rect17"
         width="154.84218"
         height="103.62209"
         x="154.60478"
         y="682.20563" /></clipPath></defs><g
     inkscape:label="Layer 1"
     inkscape:groupmode="layer"
     id="layer1"
     transform="translate(-761.18294,-861.63558)"><path
       style="fill:#000000"
       d="m 209.43326,787.35103 c -2.43982,-0.27213 -4.25243,-1.7807 -4.92677,-4.10036 -0.2779,-0.95595 -0.31875,-2.4709 -0.26641,-9.88135 0.061,-8.6328 0.0685,-8.7671 0.55214,-9.83567 0.57211,-1.2641 1.46146,-2.1782 2.78017,-2.85756 0.75981,-0.39143 1.29237,-0.48718 2.75167,-0.49472 1.57425,-0.008 1.97011,0.0695 3.04491,0.59726 2.1999,1.08021 3.10376,3.12563 3.10376,7.0238 v 2.00042 h -1.45448 -1.45448 l -0.0946,-2.2959 c -0.10332,-2.50758 -0.46274,-3.49642 -1.45304,-3.99759 -0.71547,-0.36209 -2.42293,-0.3336 -3.17034,0.0529 -1.25592,0.64946 -1.26307,0.70813 -1.26307,10.36068 v 8.79779 l 0.70596,0.77034 c 0.61555,0.67167 0.85788,0.78293 1.89223,0.86871 0.95064,0.0788 1.32876,0.0103 1.90353,-0.34492 1.0233,-0.63243 1.26575,-1.3127 1.40641,-3.94618 l 0.12437,-2.32833 0.93552,-0.0669 c 0.51454,-0.0368 1.17014,-0.008 1.4569,0.064 l 0.52138,0.13086 -0.10001,2.58181 c -0.0796,2.05367 -0.19589,2.79832 -0.56867,3.64016 -1.10453,2.49431 -3.30213,3.60922 -6.42709,3.26068 z m 103.34781,-51.94402 v -51.96416 h 51.54084 51.54083 v 51.96416 51.96417 h -51.54083 -51.54084 z m 26.3525,15.14139 c 0.9349,-0.4492 1.79917,-1.13535 1.79917,-1.42838 0,-0.10402 -0.32029,-0.49957 -0.71177,-0.879 l -0.71176,-0.68987 -0.79944,0.54252 c -2.08393,1.41419 -4.55036,0.0926 -4.55036,-2.43824 0,-2.35693 2.54076,-3.65328 4.47767,-2.2846 0.77201,0.54553 0.89801,0.51328 1.63632,-0.41891 l 0.64623,-0.81593 -0.4697,-0.42931 c -2.54069,-2.32225 -7.02117,-1.32548 -8.39479,1.86759 -1.19759,2.78388 0.15538,6.17506 2.8451,7.13111 1.07235,0.38117 3.28403,0.29915 4.23333,-0.15698 z m -15.80912,-0.85389 0.43983,-1.05833 h 1.98055 1.98056 l 0.44713,1.05833 0.44713,1.05834 h 1.18238 c 0.8032,0 1.18333,-0.0848 1.18536,-0.26459 0.002,-0.14552 -0.92253,-2.43152 -2.05373,-5.08 l -2.05671,-4.81541 h -1.08509 -1.08509 l -0.44464,1.00541 c -1.29184,2.92112 -3.86106,8.94802 -3.86106,9.05732 0,0.0535 0.5588,0.0973 1.24178,0.0973 h 1.24178 z m 1.34898,-3.33375 c 0.0409,-0.0873 0.26166,-0.65881 0.49065,-1.27 0.229,-0.61118 0.47752,-1.11125 0.55228,-1.11125 0.1542,0 1.03471,1.9697 1.03471,2.31466 0,0.12979 -0.45623,0.22534 -1.07597,0.22534 -0.59178,0 -1.04254,-0.0714 -1.00167,-0.15875 z m 19.7062,3.33375 0.44713,-1.05833 h 1.98703 1.98704 l 0.44713,1.05833 0.44713,1.05834 h 1.22799 c 0.84923,0 1.2234,-0.0816 1.2131,-0.26459 -0.008,-0.14552 -0.9377,-2.4077 -2.06558,-5.02708 l -2.05069,-4.7625 h -1.14852 -1.14852 l -2.07757,4.84197 c -1.14266,2.66308 -2.07756,4.92527 -2.07756,5.02708 0,0.10182 0.53207,0.18512 1.18238,0.18512 h 1.18237 z m 1.42144,-3.32966 c 0,-0.29455 0.92514,-2.38534 1.05547,-2.38534 0.072,0 0.31641,0.4974 0.54314,1.10533 0.22672,0.60793 0.44398,1.17943 0.48278,1.27 0.0388,0.0906 -0.41363,0.16467 -1.00541,0.16467 -0.59179,0 -1.07598,-0.0696 -1.07598,-0.15466 z m 13.74131,4.18121 c 3.81241,-1.09338 4.73904,-6.38751 1.54448,-8.82408 -1.13019,-0.86203 -2.5824,-1.16189 -5.25111,-1.08428 l -2.09718,0.061 -0.0567,5.02708 -0.0568,5.02709 h 2.59814 c 1.42898,0 2.9226,-0.0931 3.31916,-0.20679 z m -3.36964,-4.76738 v -2.8575 h 1.07926 c 2.08357,0 3.15407,0.98921 3.15407,2.91453 0,1.76158 -1.21456,2.80047 -3.27403,2.80047 h -0.9593 z m 16.29833,3.91583 v -1.05833 h -2.76383 -2.76384 l 0.0651,-0.89958 0.0651,-0.89959 2.27542,-0.0601 2.27542,-0.0601 v -1.05117 -1.05118 h -2.32834 -2.32833 v -0.84034 -0.84034 l 2.69875,-0.0592 2.69875,-0.0592 v -1.05834 -1.05833 h -3.81 -3.81 l -0.0567,5.02708 -0.0567,5.02709 h 3.91966 3.91966 z m 3.85711,-1.95652 0.0587,-3.01486 1.16416,1.84031 c 0.6403,1.01217 1.28261,1.84499 1.42737,1.8507 0.14476,0.006 0.81151,-0.81391 1.48167,-1.82137 l 1.21846,-1.83174 0.0587,2.99591 0.0587,2.99591 h 1.16219 1.16218 l -0.0567,-5.02709 -0.0567,-5.02708 -1.18858,-0.0626 -1.18858,-0.0626 -1.24559,2.01372 c -0.68507,1.10754 -1.29321,2.01202 -1.35142,2.00995 -0.0582,-0.002 -0.64387,-0.88006 -1.30148,-1.95109 l -1.19564,-1.94732 h -1.23852 -1.23853 l -0.0567,5.02708 -0.0567,5.02709 h 1.16218 1.16219 z m 14.98123,1.07748 v -1.93739 l 1.62489,-2.56053 c 0.8937,-1.4083 1.75095,-2.71091 1.905,-2.8947 0.5398,-0.64399 0.32531,-0.83 -0.95709,-0.83 -1.42933,0 -1.4561,0.0219 -2.77871,2.27541 -0.49537,0.84402 -0.92658,1.53459 -0.95825,1.53459 -0.0317,0 -0.56076,-0.85725 -1.17576,-1.905 l -1.11818,-1.905 h -1.34012 c -0.73706,0 -1.34012,0.0911 -1.34012,0.20245 0,0.11135 0.85725,1.55995 1.905,3.21912 l 1.905,3.01666 v 1.86089 1.86088 h 1.16417 1.16417 z m -55.41015,-10.98365 c 1.09283,-0.30351 2.18897,-1.39979 2.4799,-2.4802 0.19596,-0.72775 0.30504,-3.97885 0.23783,-7.08836 -0.0122,-0.56292 -0.0509,-0.58208 -1.17675,-0.58208 h -1.16417 v 3.40295 3.40295 l -0.61872,0.61872 c -0.79597,0.79597 -1.85371,0.83838 -2.70322,0.10838 l -0.59389,-0.51034 -0.10583,-3.45841 -0.10584,-3.45842 h -1.16416 -1.16417 v 3.28084 c 0,1.80446 0.0752,3.63521 0.16717,4.06835 0.47034,2.21568 3.18426,3.45314 5.91185,2.69562 z m 20.16287,-0.0151 c 0.46305,-0.12855 1.18837,-0.58046 1.61183,-1.00424 1.01264,-1.01339 1.25045,-2.16826 1.25045,-6.07259 v -3.05875 h -1.27 -1.27 v 3.27087 c 0,1.94635 -0.0952,3.47974 -0.23501,3.78666 -0.39932,0.87641 -1.81279,1.26412 -2.76016,0.7571 -0.80473,-0.43068 -1.0265,-1.45444 -1.0265,-4.73866 v -3.07597 h -1.17726 -1.17725 l 0.066,3.87924 c 0.0646,3.79715 0.078,3.89728 0.63079,4.73182 1.02094,1.54117 3.13258,2.1421 5.35711,1.52452 z m -33.12106,-1.88058 v -1.905 h 2.32834 2.32833 v -1.16417 -1.16416 h -2.32833 -2.32834 v -0.84667 -0.84667 l 1.85209,-0.0244 c 1.01864,-0.0134 2.02909,-0.006 2.24543,0.0172 0.21634,0.0229 0.62625,-0.0169 0.9109,-0.0883 0.47009,-0.11799 0.51166,-0.22147 0.45332,-1.12844 l -0.0642,-0.99855 h -3.91583 -3.91583 l -0.0567,5.02709 -0.0568,5.02708 h 1.27383 1.27383 z m 22.64834,-2.01083 v -3.91584 h 1.48166 1.48167 v -1.16416 -1.16417 h -4.23333 -4.23334 v 1.16417 1.16416 h 1.48167 1.48167 v 3.91584 3.91583 h 1.27 1.27 z m 17.61197,2.38125 0.0622,-1.53459 0.67316,-0.0652 c 0.62539,-0.0606 0.74978,0.0483 1.7527,1.53458 l 1.07954,1.59981 h 1.36939 c 0.75316,0 1.36938,-0.0559 1.36938,-0.12416 0,-0.0683 -0.47625,-0.81308 -1.05833,-1.65509 -0.58209,-0.84201 -1.05834,-1.6273 -1.05834,-1.74507 0,-0.11778 0.24625,-0.34593 0.54723,-0.50701 0.78993,-0.42276 1.22503,-1.39823 1.23942,-2.77873 0.0152,-1.46043 -0.43469,-2.18031 -1.79904,-2.87858 -0.86169,-0.44101 -1.17847,-0.47632 -3.79761,-0.42333 l -2.8575,0.0578 -0.0571,4.75771 c -0.0314,2.61674 -0.0106,4.87893 0.0463,5.02709 0.0663,0.17277 0.51992,0.26937 1.26491,0.26937 h 1.16153 z m 0.0526,-4.02334 c -0.0668,-0.17419 -0.092,-0.77985 -0.0559,-1.34592 l 0.0656,-1.02921 1.34214,0.0353 c 1.47588,0.0388 2.15036,0.42469 2.15036,1.23027 0,0.7734 -0.7331,1.23477 -2.12156,1.33521 -0.98237,0.0711 -1.28574,0.0215 -1.38056,-0.22563 z m 15.61258,5.31573 c 0.0444,-0.1332 0.0285,-0.62359 -0.0353,-1.08975 l -0.11601,-0.84757 -2.54,-0.0215 -2.54,-0.0215 -0.0651,-0.89958 -0.0651,-0.89959 h 2.35156 2.35157 l -0.064,-1.11125 -0.064,-1.11125 -2.2225,-0.0316 -2.2225,-0.0316 v -0.77809 -0.77809 l 2.54,-0.037 2.54,-0.037 0.064,-1.11125 0.064,-1.11125 h -3.9269 -3.92689 v 5.08 5.08 h 3.89819 c 2.73818,0 3.92222,-0.0721 3.97893,-0.24219 z M 329.55569,724.7622 c 0.45575,-0.39578 0.50741,-1.99552 0.076,-2.35356 -0.16193,-0.13438 -0.70237,-0.36245 -1.201,-0.50682 -1.04998,-0.30399 -1.3674,-0.78235 -0.51915,-0.78235 0.30839,0 0.73297,0.0922 0.94349,0.20486 0.29054,0.15549 0.47802,0.0996 0.778,-0.23186 0.38744,-0.42812 0.38542,-0.44464 -0.10264,-0.83985 -0.33174,-0.26863 -0.82985,-0.40315 -1.49283,-0.40315 -2.43376,0 -2.84001,2.55973 -0.51067,3.21763 1.20321,0.33983 1.56373,0.91531 0.46767,0.74652 -0.39287,-0.0605 -0.92046,-0.17654 -1.17243,-0.25786 -0.59309,-0.19141 -1.09675,0.58544 -0.69411,1.07059 0.58687,0.70713 2.67452,0.78987 3.42766,0.13585 z m 14.03592,0.40595 c 0.53441,-0.0643 1.15116,-0.91609 1.15116,-1.58995 0,-0.82028 -0.43511,-1.28007 -1.58962,-1.67977 -0.4514,-0.15628 -0.85783,-0.39547 -0.90319,-0.53155 -0.101,-0.30299 0.68025,-0.32611 1.22203,-0.0362 0.29169,0.15611 0.48142,0.12454 0.72691,-0.12095 0.47692,-0.47692 0.41078,-0.83321 -0.20692,-1.11465 -0.94216,-0.42928 -2.17043,-0.307 -2.75133,0.2739 -1.01555,1.01555 -0.51063,2.20181 1.17554,2.76187 0.58293,0.19362 1.00588,0.43938 0.9399,0.54614 -0.16298,0.2637 -1.08577,0.24515 -1.6041,-0.0322 -0.51032,-0.27312 -1.03089,0.068 -1.03089,0.6756 0,0.21858 0.0238,0.39885 0.0529,0.4006 0.0291,0.002 0.42041,0.13113 0.86957,0.28751 0.44915,0.15637 1.02065,0.26234 1.27,0.23549 0.24934,-0.0268 0.55445,-0.061 0.67802,-0.0758 z m -21.88199,-0.55618 c 0.20634,-0.45286 0.38156,-0.52916 1.21527,-0.52916 0.80722,0 1.00997,0.0816 1.1831,0.47625 0.14513,0.33079 0.42484,0.49694 0.91583,0.54399 0.65293,0.0626 0.69525,0.0303 0.55447,-0.42333 -0.0838,-0.2701 -0.32206,-0.87208 -0.52941,-1.33775 -0.20734,-0.46566 -0.63655,-1.44197 -0.95379,-2.16958 -0.5026,-1.15275 -0.65016,-1.32292 -1.14713,-1.32292 -0.37879,0 -0.65141,0.15994 -0.81179,0.47625 -0.43568,0.85932 -1.94673,4.46107 -1.94673,4.64026 0,0.0963 0.28779,0.17516 0.63953,0.17516 0.47677,0 0.70091,-0.13468 0.88065,-0.52917 z m 0.81139,-2.06375 c 0.002,-0.14552 0.0868,-0.39651 0.18892,-0.55776 0.14892,-0.23515 0.23207,-0.20648 0.42009,0.14484 0.3209,0.59961 0.29918,0.67751 -0.18892,0.67751 -0.23283,0 -0.42187,-0.11906 -0.42009,-0.26459 z m 9.68702,0 -0.0594,-2.59291 -0.58208,-0.067 -0.58208,-0.067 v 2.65989 2.65989 h 0.64151 0.64152 z m 2.26618,2.01084 c 0.17314,-0.39464 0.37588,-0.47625 1.18311,-0.47625 0.8337,0 1.00893,0.0763 1.21527,0.52916 0.17974,0.39449 0.40387,0.52917 0.88064,0.52917 0.37908,0 0.63301,-0.10776 0.6235,-0.26458 -0.009,-0.14552 -0.46452,-1.31234 -1.01266,-2.59292 -0.93378,-2.18152 -1.03721,-2.33234 -1.64034,-2.3919 -0.69264,-0.0684 -0.55998,-0.2612 -1.79148,2.60357 -0.6489,1.50949 -1.04281,2.48379 -1.04281,2.57926 0,0.0514 0.30956,0.0635 0.68791,0.0271 0.47189,-0.0455 0.75354,-0.21589 0.89686,-0.54258 z m 0.7468,-1.905 c 0.002,-0.0873 0.097,-0.30163 0.21167,-0.47625 0.18526,-0.28222 0.23158,-0.28222 0.41685,0 0.3124,0.47589 0.26018,0.635 -0.20843,0.635 -0.23283,0 -0.42187,-0.0714 -0.42009,-0.15875 z m 4.76891,-0.77877 c 0.1889,-0.2883 0.30728,-0.82298 0.26946,-1.21709 -0.06,-0.62489 -0.13791,-0.70289 -0.70244,-0.70289 -0.59005,0 -0.635,0.0549 -0.635,0.77577 0,0.42668 -0.0714,0.84737 -0.15875,0.93487 -0.33543,0.33613 -0.13971,0.72352 0.36553,0.72352 0.3216,0 0.65454,-0.19878 0.8612,-0.51418 z m -150.82216,64.89032 c 0,-0.1002 0.18538,-1.12414 0.41196,-2.27541 0.22659,-1.15128 0.7495,-3.90298 1.16203,-6.11489 0.41253,-2.21192 1.31809,-7.06131 2.01234,-10.77642 0.76024,-4.06821 1.37143,-6.82398 1.53672,-6.92884 0.34142,-0.21657 2.72615,-0.23027 3.06045,-0.0176 0.1353,0.0861 0.68907,2.53732 1.2306,5.44718 0.54153,2.90986 1.16517,6.24316 1.38587,7.40732 0.22069,1.16417 0.83433,4.4503 1.36363,7.3025 0.52931,2.85221 1.01122,5.40015 1.07092,5.66209 0.10554,0.46306 0.0619,0.47625 -1.57456,0.47625 -1.95342,0 -1.71052,0.33807 -2.34259,-3.26043 -0.24341,-1.38577 -0.4924,-2.60021 -0.5533,-2.69875 -0.0609,-0.0985 -1.05964,-0.17916 -2.21943,-0.17916 -1.98617,0 -2.1204,0.0277 -2.30966,0.47625 -0.17165,0.40681 -1.05998,5.01268 -1.05998,5.49583 0,0.0914 -0.71438,0.16626 -1.5875,0.16626 -0.87313,0 -1.5875,-0.082 -1.5875,-0.1822 z m 8.255,-8.9936 c 0,-0.15719 -0.2878,-2.086 -0.63957,-4.28625 -0.35176,-2.20025 -0.69808,-4.40527 -0.7696,-4.90004 -0.0715,-0.49477 -0.19958,-0.89958 -0.28458,-0.89958 -0.15026,0 -1.69292,9.04944 -1.69292,9.93087 0,0.40988 0.11875,0.4408 1.69334,0.4408 1.28059,0 1.69333,-0.0697 1.69333,-0.2858 z m 20.61225,8.80538 c 0.06,-0.20373 0.21542,-0.98954 0.34535,-1.74625 0.12993,-0.75671 0.57206,-3.13796 0.98251,-5.29167 0.41045,-2.1537 0.96979,-5.15408 1.24298,-6.6675 0.27319,-1.51341 0.59389,-3.22791 0.71265,-3.81 0.11877,-0.58208 0.51636,-2.67758 0.88354,-4.65666 0.36718,-1.97909 0.7569,-3.65443 0.86605,-3.72298 0.15343,-0.0964 2.25369,-0.094 3.17982,0.004 0.1723,0.0182 0.56502,1.83087 1.44776,6.68271 0.36007,1.97908 0.83552,4.55083 1.05655,5.715 0.22103,1.16417 0.64783,3.45017 0.94843,5.08 0.3006,1.62983 0.78104,4.18837 1.06766,5.68564 0.28661,1.49727 0.52112,2.80696 0.52112,2.91042 0,0.10346 -0.75168,0.18811 -1.67039,0.18811 h -1.67039 l -0.44822,-2.38125 c -0.24652,-1.30969 -0.44735,-2.57652 -0.44628,-2.81517 0.003,-0.78362 -0.40981,-0.94192 -2.45944,-0.94192 -1.38861,0 -2.03874,0.0854 -2.2486,0.29523 -0.16238,0.16237 -0.41641,1.13868 -0.56452,2.16958 -0.14811,1.0309 -0.36674,2.27917 -0.48585,2.77394 l -0.21657,0.89959 h -1.57667 c -1.40201,0 -1.56455,-0.041 -1.46752,-0.37042 z m 8.09387,-9.73667 c -0.0764,-0.66939 -0.37634,-2.69345 -0.66663,-4.49791 -0.29029,-1.80446 -0.58422,-3.64716 -0.65318,-4.09489 -0.069,-0.44772 -0.19812,-0.73347 -0.28702,-0.635 -0.0889,0.0985 -0.36465,1.51255 -0.61277,3.14239 -0.24812,1.62983 -0.59076,3.72533 -0.76144,4.65666 -0.51563,2.81372 -0.60429,2.64584 1.3974,2.64584 h 1.72247 z m 7.54019,-3.05326 0.0545,-13.19215 3.91583,0.003 c 3.62693,0.003 3.99372,0.0384 4.97153,0.48659 1.71951,0.78811 2.36013,1.56343 2.98033,3.60696 0.23437,0.77224 0.29905,2.72028 0.30085,9.06112 0.002,7.35205 -0.0339,8.19371 -0.40086,9.37273 -0.51839,1.66559 -1.19106,2.53094 -2.47844,3.18838 -0.9821,0.50153 -1.24509,0.53163 -5.21627,0.59699 l -4.18202,0.0688 z m 7.84232,9.5587 c 1.03286,-0.81244 1.1022,-1.41151 1.1022,-9.52169 0,-8.06885 -0.0585,-8.58537 -1.08113,-9.54679 -0.47561,-0.44713 -0.77646,-0.51608 -2.53386,-0.58072 l -1.99417,-0.0734 v 10.0746 10.0746 h 1.98228 c 1.66691,0 2.06859,-0.0679 2.52468,-0.42665 z m 7.18602,-9.5746 0.0545,-13.17625 h 5.08 5.08 l 0.0622,1.53458 0.0622,1.53458 h -3.50181 -3.50177 v 4.02167 4.02167 h 2.54 2.54 v 1.47495 1.47495 l -2.48708,0.0596 -2.48709,0.0596 v 4.55084 4.55083 l 3.43959,0.0582 3.43958,0.0582 v 1.47642 1.47643 h -5.18744 -5.18743 z m 13.07202,-0.0159 v -13.19215 l 2.27541,0.0159 2.27542,0.0159 0.36715,1.79916 c 0.20194,0.98955 0.60151,3.13267 0.88794,4.7625 0.28643,1.62984 0.77264,4.34446 1.08045,6.0325 0.51833,2.84252 1.3646,7.65663 1.36741,7.77875 6.7e-4,0.0291 0.0965,0.0529 0.21288,0.0529 0.11642,0 0.21167,-0.2283 0.21167,-0.50733 0,-0.45364 0.37977,-2.67474 1.68663,-9.86434 0.22219,-1.22237 0.70959,-3.937 1.0831,-6.0325 0.37352,-2.0955 0.76677,-3.86719 0.87389,-3.93709 0.10712,-0.0699 1.11706,-0.11753 2.24432,-0.10583 l 2.04956,0.0213 0.0545,13.17625 0.0545,13.17625 h -1.48327 -1.48327 v -9.24984 c 0,-5.0874 -0.0807,-9.15934 -0.17942,-9.04875 -0.0987,0.1106 -0.53742,2.10609 -0.97499,4.43442 -0.43756,2.32833 -1.21408,6.34869 -1.72558,8.93413 -0.5115,2.58543 -0.93001,4.75638 -0.93001,4.82432 0,0.0679 -0.72924,0.0957 -1.62053,0.0617 l -1.62054,-0.0618 -0.46595,-2.32833 c -0.25628,-1.28058 -1.01054,-5.18583 -1.67616,-8.67833 -0.66561,-3.4925 -1.2745,-6.58813 -1.35309,-6.87917 -0.0786,-0.29104 -0.16771,3.63802 -0.19804,8.73125 l -0.0551,9.26042 h -1.47944 -1.47944 z m 24.13,7.95341 -10e-6,-5.23875 -0.65041,-2.01084 c -0.35773,-1.10595 -1.50085,-4.6153 -2.54027,-7.79853 -1.03941,-3.18324 -1.83488,-5.87662 -1.76772,-5.9853 0.0672,-0.10869 0.6626,-0.15221 1.32319,-0.0967 0.66058,0.0555 1.36008,0.10569 1.55446,0.11155 0.40536,0.0122 0.44206,0.11688 2.30476,6.57234 0.72223,2.50296 1.3895,4.69371 1.48283,4.86833 0.21328,0.39903 0.0491,0.87819 1.88593,-5.50333 0.82097,-2.85221 1.57587,-5.38086 1.67756,-5.61921 0.15806,-0.37051 0.38979,-0.43736 1.59736,-0.46079 0.96391,-0.0187 1.44507,0.0575 1.51508,0.23997 0.0564,0.14705 -1.0446,3.67926 -2.44674,7.84935 l -2.54935,7.58198 v 5.36435 5.36435 h -1.69334 -1.69333 z m -130.03389,-5.4857 c -0.0776,-0.0776 -0.14112,-14.83516 -0.14112,-32.79455 0,-22.61494 -0.0694,-32.83663 -0.22576,-33.24931 -0.28363,-0.74856 -1.0055,-1.53743 -1.62632,-1.77724 -0.38202,-0.14757 -0.47625,-0.34875 -0.47625,-1.01676 v -0.83278 l 1.53458,-0.24086 c 0.84402,-0.13247 1.96321,-0.33205 2.48709,-0.44351 1.00156,-0.21308 5.55663,-1.0007 9.8425,-1.70186 1.397,-0.22854 2.69665,-0.46373 2.88811,-0.52263 0.69965,-0.21523 1.02772,0.47407 1.02772,2.15931 v 1.5868 l 0.58208,-0.40019 c 3.50534,-2.40993 8.29681,-3.5407 12.80584,-3.02214 2.497,0.28717 4.65936,0.95397 6.93803,2.13947 1.89731,0.98709 4.62081,3.11777 5.84462,4.57244 6.52127,7.75142 7.40467,19.6493 2.13459,28.74909 -3.47317,5.99709 -8.90043,9.96579 -15.35919,11.23146 -3.25201,0.63728 -9.73145,0.28336 -11.97507,-0.65408 -0.4101,-0.17135 -0.79899,-0.31155 -0.86419,-0.31155 -0.0652,0 -0.0921,4.56511 -0.0597,10.14469 0.0574,9.89199 0.0698,10.15956 0.49877,10.74208 0.24196,0.32857 0.78964,0.82767 1.21708,1.10911 0.63577,0.41862 0.77716,0.63931 0.77716,1.21305 0,0.83255 0.63988,0.64833 -6.13834,1.76721 -2.85221,0.47081 -6.28121,1.04399 -7.62,1.27372 -2.51854,0.43219 -3.84839,0.52286 -4.09222,0.27903 z m 23.18426,-32.68138 c 1.59811,-0.53837 2.81285,-1.35638 3.97531,-2.67701 3.43346,-3.90061 4.76711,-12.81549 2.96897,-19.84616 -1.22049,-4.77207 -4.00089,-7.86564 -7.74523,-8.61761 -1.96163,-0.39395 -4.67413,0.3876 -6.40758,1.8462 l -0.66518,0.55971 0.0117,13.58076 0.0117,13.58077 0.64115,0.50714 c 1.86382,1.47426 4.73662,1.89913 7.20914,1.0662 z m 38.42387,7.10254 c -3.80655,-0.63997 -9.70023,-2.91988 -9.9656,-3.85508 -0.0937,-0.3301 -0.25007,-13.90437 -0.1685,-14.62379 0.0206,-0.18168 0.2696,-0.25502 0.71864,-0.21167 0.65026,0.0628 0.71662,0.15147 1.23734,1.65383 1.70663,4.9239 4.79732,8.68093 8.18797,9.95329 1.67795,0.62966 4.35587,0.61955 6.0964,-0.023 2.2522,-0.83146 3.71075,-2.89941 3.39918,-4.81938 -0.29173,-1.79775 -1.37462,-2.70199 -7.01384,-5.85677 -3.21707,-1.79974 -6.01273,-3.60727 -7.51417,-4.85828 -3.99281,-3.32684 -5.78308,-8.26289 -4.76157,-13.12834 0.49388,-2.35231 1.629,-4.42161 3.3672,-6.13834 3.44866,-3.40604 7.82445,-4.8501 14.62354,-4.82595 3.49358,0.0124 6.48987,0.36396 9.69818,1.13785 2.91504,0.70316 2.61708,0.16543 2.76808,4.99568 0.0721,2.30767 0.18713,5.6007 0.25554,7.31784 l 0.12437,3.12208 h -0.87207 c -0.73641,0 -0.90351,-0.0827 -1.07409,-0.53134 -0.44649,-1.17434 -1.94338,-3.99462 -2.75289,-5.18667 -1.16629,-1.71743 -2.82833,-3.27754 -4.23129,-3.97176 -1.0126,-0.50106 -1.40366,-0.57339 -3.00383,-0.55558 -1.58348,0.0176 -2.01058,0.10606 -3.06697,0.635 -1.46669,0.73438 -2.05559,1.60522 -2.05045,3.03211 0.007,2.06022 1.21774,3.18621 6.36455,5.92109 7.50229,3.98652 10.31918,6.13808 12.28695,9.38489 2.59416,4.28034 2.50141,10.15544 -0.22293,14.12151 -2.47141,3.59786 -7.65267,6.53632 -13.05898,7.40619 -1.86569,0.30018 -7.34996,0.24436 -9.37076,-0.0954 z m 46.25123,-0.0165 c -4.25563,-0.71407 -9.69989,-2.65857 -14.33797,-5.12102 l -1.48167,-0.78664 -0.10583,-27.1027 c -0.11815,-30.25577 0.017,-27.81842 -1.58514,-28.5787 -0.66182,-0.31405 -0.7432,-0.44274 -0.7432,-1.17522 0,-0.4524 0.0935,-0.82255 0.20773,-0.82255 0.11425,0 2.18594,-0.33966 4.60375,-0.75481 11.52682,-1.9792 12.65728,-2.14949 13.02144,-1.9615 0.3457,0.17845 0.37042,0.93842 0.37042,11.3896 0,10.25375 0.0781,11.95326 0.51654,11.24381 0.18035,-0.29181 1.94674,-1.25068 3.38754,-1.83888 2.03331,-0.8301 4.3933,-1.22756 7.31425,-1.23183 5.22997,-0.008 8.99965,1.49118 12.67019,5.03772 1.91225,1.84763 3.11351,3.49881 4.3406,5.96631 1.78703,3.59344 2.47723,6.41358 2.62148,10.71136 0.20174,6.01056 -1.22558,11.10573 -4.35147,15.53361 -3.52135,4.98804 -9.31617,8.4591 -15.9158,9.53345 -2.28768,0.37241 -8.20366,0.34881 -10.53286,-0.042 z m 7.86459,-7.15523 c 3.56019,-1.74808 6.13766,-6.50446 6.77956,-12.51077 0.61054,-5.71294 -0.0377,-10.9879 -1.74222,-14.17702 -0.79198,-1.48178 -2.67042,-3.31224 -4.08256,-3.97829 -2.81018,-1.32544 -6.67671,-1.08207 -8.3907,0.52815 l -0.47914,0.45012 v 14.44786 14.44786 l 0.58208,0.413 c 1.11433,0.79064 2.38531,1.10036 4.28625,1.04451 1.48933,-0.0437 2.01401,-0.15834 3.04673,-0.66542 z"
       id="path16"
       inkscape:export-filename="PSB_LOGO.svg"
       inkscape:export-xdpi="96"
       inkscape:export-ydpi="96"
       clip-path="url(#clipPath16)"
       transform="matrix(0.06458189,0,0,0.06458189,751.19827,817.49755)" /></g></svg>
