<?xml version="1.0" encoding="UTF-8" standalone="no"?>
<!-- Created with Inkscape (http://www.inkscape.org/) -->

<svg
   width="27.82917mm"
   height="5.0005603mm"
   viewBox="0 0 27.829169 5.0005601"
   version="1.1"
   id="svg1"
   xml:space="preserve"
   sodipodi:docname="UH_File.svg"
   inkscape:version="1.3.2 (091e20e, 2023-11-25, custom)"
   xmlns:inkscape="http://www.inkscape.org/namespaces/inkscape"
   xmlns:sodipodi="http://sodipodi.sourceforge.net/DTD/sodipodi-0.dtd"
   xmlns="http://www.w3.org/2000/svg"
   xmlns:svg="http://www.w3.org/2000/svg"><sodipodi:namedview
     id="namedview1"
     pagecolor="#ffffff"
     bordercolor="#000000"
     borderopacity="0.25"
     inkscape:showpageshadow="2"
     inkscape:pageopacity="0.0"
     inkscape:pagecheckerboard="0"
     inkscape:deskcolor="#d1d1d1"
     inkscape:document-units="mm"
     inkscape:zoom="3.7041664"
     inkscape:cx="113.38583"
     inkscape:cy="20.24747"
     inkscape:window-width="1920"
     inkscape:window-height="991"
     inkscape:window-x="-9"
     inkscape:window-y="-9"
     inkscape:window-maximized="1"
     inkscape:current-layer="layer1" /><defs
     id="defs1" /><g
     inkscape:label="Layer 1"
     inkscape:groupmode="layer"
     id="layer1"
     transform="translate(-734.85466,-835.82818)"><path
       style="fill:#000000;stroke-width:0.199207"
       d="m 754.56699,840.77958 c -0.36194,-0.0707 -0.86238,-0.34015 -1.08086,-0.58197 -0.10786,-0.11946 -0.25872,-0.35047 -0.3351,-0.51338 l -0.13891,-0.29621 -0.0153,-1.77886 -0.0153,-1.77884 h 0.81954 0.81956 v 1.50735 c 0,1.66013 0.0219,1.79269 0.32074,1.94726 0.31671,0.16387 0.6723,0.0685 0.87678,-0.23491 0.11815,-0.17546 0.12011,-0.20324 0.12011,-1.69901 v -1.52069 h 0.82133 0.82132 l -0.0197,1.72613 c -0.0197,1.64401 -0.0254,1.74045 -0.13892,2.02666 -0.23259,0.58651 -0.75378,1.01236 -1.43575,1.17309 -0.36622,0.0864 -1.03937,0.0974 -1.41853,0.0234 z m 3.53136,-2.52477 v -2.42449 h 0.79059 0.7906 v 0.81694 0.81696 h 0.68519 0.68518 v -0.81696 -0.81694 h 0.81696 0.81696 v 2.42449 2.42451 h -0.81696 -0.81696 v -0.92394 -0.92395 l -0.67199,0.0153 -0.67202,0.0153 -0.0153,0.90917 -0.0153,0.9092 h -0.78935 -0.78934 z m -20.74892,2.26126 c -0.22942,-0.0663 -0.42574,-0.31708 -0.46774,-0.59728 -0.074,-0.49268 0.20128,-0.86999 0.66688,-0.91473 0.45189,-0.0433 0.72316,0.16977 0.80669,0.63432 l 0.0354,0.19756 h -0.5558 c -0.52068,0 -0.55582,0.006 -0.55582,0.10545 0,0.15533 0.18772,0.31623 0.36896,0.31623 0.0879,0 0.205,-0.0468 0.26352,-0.10545 0.10589,-0.10589 0.42167,-0.14834 0.42167,-0.0566 0,0.11377 -0.28534,0.3741 -0.46457,0.42388 -0.22587,0.0628 -0.29273,0.0623 -0.51933,-0.002 z m 0.61493,-0.93648 c 0,-0.11092 -0.22764,-0.32334 -0.34642,-0.32334 -0.14243,0 -0.33877,0.16802 -0.33877,0.28988 0,0.0621 0.0733,0.079 0.3426,0.079 0.18837,0 0.34259,-0.0197 0.34259,-0.0455 z m 4.08477,0.93854 c -0.3302,-0.10612 -0.51153,-0.35991 -0.51591,-0.72168 -0.006,-0.49277 0.29538,-0.80336 0.77946,-0.80336 0.48345,0 0.76447,0.2949 0.76404,0.80171 -2e-4,0.24959 -0.13652,0.51734 -0.32669,0.64183 -0.16015,0.1048 -0.50401,0.14484 -0.7009,0.0814 z m 0.49868,-0.37581 c 0.16168,-0.17349 0.14964,-0.58503 -0.0219,-0.75671 -0.15556,-0.15555 -0.29064,-0.16386 -0.45774,-0.0287 -0.10436,0.0844 -0.12449,0.14921 -0.12449,0.39996 0,0.25085 0.0197,0.31548 0.12449,0.39995 0.16431,0.13302 0.34723,0.12756 0.47966,-0.0153 z m 2.21656,0.37375 c -0.44726,-0.0958 -0.64548,-0.71724 -0.38889,-1.21942 0.1503,-0.29423 0.62253,-0.39853 0.88165,-0.19471 l 0.13893,0.10918 v -0.38596 -0.38596 h 0.18443 0.18444 v 1.04096 1.04096 h -0.18444 c -0.13498,0 -0.18443,-0.023 -0.18443,-0.0855 0,-0.0674 -0.0153,-0.0726 -0.074,-0.0241 -0.12186,0.10108 -0.36252,0.14637 -0.5577,0.10458 z m 0.45247,-0.29873 c 0.19297,-0.12886 0.24171,-0.60868 0.082,-0.80591 -0.11574,-0.14308 -0.39267,-0.16234 -0.5188,-0.0361 -0.0462,0.0462 -0.0947,0.19844 -0.10808,0.3382 -0.0197,0.205 -0.002,0.28245 0.0901,0.39923 0.11289,0.14309 0.3243,0.19166 0.45465,0.10458 z m 1.23332,0.2951 c -0.24086,-0.042 -0.47437,-0.23369 -0.47437,-0.38948 0,-0.11989 0.35225,-0.10042 0.41841,0.0231 0.0768,0.14331 0.30421,0.18641 0.45683,0.0862 0.24452,-0.16016 0.14309,-0.26114 -0.40087,-0.39894 -0.13039,-0.0331 -0.27869,-0.0971 -0.32942,-0.14242 -0.0925,-0.0827 -0.12077,-0.29952 -0.0595,-0.45894 0.0864,-0.22498 0.71107,-0.32096 1.02673,-0.15775 0.15139,0.0783 0.27179,0.26939 0.22254,0.35301 -0.0508,0.086 -0.33021,0.0383 -0.386,-0.0659 -0.0669,-0.12536 -0.44518,-0.15206 -0.49018,-0.0348 -0.0481,0.12514 0.0451,0.19668 0.36329,0.27877 0.45772,0.11793 0.54855,0.19121 0.54855,0.44238 0,0.3054 -0.13323,0.4186 -0.57977,0.49259 -0.0436,0.006 -0.18574,-0.006 -0.31623,-0.0283 z m 4.87338,0.004 c -0.0882,-0.0256 -0.22885,-0.11836 -0.31286,-0.20609 -0.19428,-0.20282 -0.24933,-0.67458 -0.11005,-0.94406 0.18882,-0.36525 0.79526,-0.50781 1.1093,-0.26078 0.1608,0.12645 0.29061,0.39155 0.29061,0.59373 0,0.13083 -0.004,0.13171 -0.54025,0.14659 -0.50641,0.0132 -0.53923,0.0218 -0.52409,0.12033 0.0405,0.26354 0.43726,0.38234 0.61632,0.18443 0.10917,-0.12076 0.39532,-0.14484 0.39532,-0.0334 0,0.13586 -0.21572,0.34611 -0.41088,0.40031 -0.22572,0.0627 -0.2942,0.0625 -0.51349,-0.001 z m 0.54589,-1.00949 c -0.009,-0.0643 -0.082,-0.15314 -0.16168,-0.19756 -0.13018,-0.0726 -0.15972,-0.0726 -0.28987,0 -0.0796,0.0444 -0.15249,0.13346 -0.16168,0.19756 -0.0153,0.10983 0.002,0.11683 0.30673,0.11683 0.30403,0 0.32255,-0.006 0.30671,-0.11683 z m -17.01477,-0.0153 v -1.02778 h 0.23718 0.23719 v 0.3953 0.3953 h 0.42166 0.42166 v -0.3953 -0.3953 h 0.23716 0.23718 v 1.02778 1.02778 h -0.23718 -0.23716 v -0.448 -0.44801 h -0.42166 -0.42166 v 0.44801 0.448 h -0.23719 -0.23718 z m 3.63677,0.2799 v -0.75426 h 0.18444 c 0.15817,0 0.18443,0.0175 0.18443,0.12317 v 0.12318 l 0.16212,-0.13652 c 0.0893,-0.0751 0.21963,-0.13652 0.28989,-0.13652 0.10895,0 0.12777,0.0252 0.12755,0.17131 -9e-5,0.15489 -0.0153,0.1724 -0.16803,0.18311 -0.27512,0.0197 -0.32948,0.11968 -0.35889,0.66182 l -0.0263,0.4859 -0.19757,0.0153 -0.19756,0.0153 z m 1.4049,0.65151 c -0.0692,-0.0764 -0.0873,-0.20763 -0.0873,-0.63249 v -0.5361 h -0.13171 c -0.10545,0 -0.1317,-0.0263 -0.1317,-0.13171 0,-0.10546 0.0263,-0.1317 0.1317,-0.1317 0.11859,0 0.13171,-0.0219 0.13171,-0.21091 v -0.21091 h 0.21091 0.2109 v 0.21091 0.21091 h 0.26353 c 0.25408,0 0.26355,-0.004 0.26355,-0.14899 0,-0.2455 0.33791,-0.48124 0.57977,-0.40449 0.15272,0.0486 0.14265,0.27727 -0.0132,0.2994 -0.0864,0.0131 -0.12317,0.058 -0.13586,0.16868 -0.0153,0.13784 -0.004,0.14943 0.11858,0.1258 0.11508,-0.0221 0.13586,-0.006 0.13586,0.0985 0,0.0976 -0.0284,0.12448 -0.1317,0.12448 h -0.13171 v 0.63248 0.63248 h -0.20916 -0.20915 l -0.0153,-0.61931 -0.0153,-0.61928 -0.25036,-0.0153 -0.25036,-0.0153 v 0.47726 c 0,0.47392 4.7e-4,0.47723 0.13172,0.47723 0.11136,0 0.1317,0.0247 0.1317,0.15817 0,0.15403 -0.006,0.15819 -0.25536,0.15819 -0.1805,0 -0.28094,-0.0282 -0.34259,-0.0965 z m 3.39142,-0.65469 v -0.75108 h 0.18444 c 0.15621,0 0.18443,0.0175 0.18443,0.11858 0,0.14986 0.0175,0.14855 0.17963,-0.0132 0.0829,-0.0829 0.19143,-0.13171 0.29227,-0.13171 0.14921,0 0.16058,0.0131 0.16058,0.19013 0,0.1457 -0.0174,0.18312 -0.0777,0.16036 -0.11311,-0.0433 -0.39066,0.0667 -0.45061,0.17875 -0.0285,0.0529 -0.0516,0.29956 -0.0516,0.54788 v 0.45146 h -0.21091 -0.21091 z m 4.21653,-0.29128 v -1.04236 l 0.21091,0.0197 0.21091,0.0197 4.6e-4,0.37659 c 4.4e-4,0.20719 0.0175,0.35049 0.0396,0.31859 0.14002,-0.20959 0.57048,-0.2381 0.78677,-0.052 0.14439,0.12427 0.14833,0.14177 0.16671,0.76423 l 0.0197,0.63712 h -0.21638 -0.21638 v -0.50419 c 0,-0.60126 -0.043,-0.70807 -0.28529,-0.70807 -0.26005,0 -0.30759,0.0971 -0.33599,0.6872 l -0.0254,0.52506 h -0.17743 -0.17744 z m 1.68662,0.28988 v -0.75246 l 0.21092,0.0197 0.2109,0.0197 v 0.73235 0.73236 h -0.2109 -0.21092 z m 0.68519,10e-4 v -0.75109 h 0.18443 c 0.15819,0 0.18444,0.0175 0.18444,0.12318 v 0.12317 l 0.16212,-0.13651 c 0.0893,-0.075 0.21963,-0.13653 0.28986,-0.13653 0.10984,0 0.12778,0.0249 0.12778,0.17634 0,0.1619 -0.0132,0.17678 -0.1665,0.18116 -0.29682,0.009 -0.38431,0.15904 -0.4053,0.69789 l -0.0174,0.47294 h -0.17919 -0.17918 z m -0.68519,-1.16096 c 0,-0.16977 0.004,-0.1724 0.21092,-0.15249 0.19274,0.0175 0.2109,0.0333 0.2109,0.17262 0,0.14287 -0.0132,0.1525 -0.2109,0.1525 -0.20304,0 -0.21092,-0.006 -0.21092,-0.17263 z m -2.75393,-0.17984 c -0.0608,-0.0153 -0.0923,-0.0757 -0.0923,-0.17502 0,-0.13171 0.0219,-0.15293 0.17131,-0.16737 0.24571,-0.0237 0.24309,-0.14965 -0.0175,-0.84759 l -0.22244,-0.59533 -0.17831,0.0218 -0.17831,0.0219 0.0153,0.4552 c 0.0153,0.45312 0.0153,0.45527 0.16015,0.47184 0.12143,0.0131 0.14506,0.0418 0.14506,0.17132 0,0.1468 -0.0109,0.15468 -0.22546,0.15468 -0.12405,0 -0.27816,-0.037 -0.3426,-0.082 -0.10829,-0.0759 -0.11704,-0.12339 -0.11704,-0.63248 v -0.55043 h -0.13171 c -0.10546,0 -0.13171,-0.0263 -0.13171,-0.13171 0,-0.10546 0.0263,-0.13171 0.13171,-0.13171 0.12099,0 0.13171,-0.0197 0.13171,-0.23718 0,-0.23594 9.3e-4,-0.23719 0.18443,-0.23719 0.18312,0 0.18444,0.001 0.18444,0.23478 v 0.23477 l 0.35254,0.0153 0.35255,0.0153 0.15927,0.48754 c 0.0875,0.26814 0.17197,0.48727 0.18772,0.48695 0.0153,-3.3e-4 0.0976,-0.22563 0.18181,-0.50071 l 0.15337,-0.50014 h 0.20238 c 0.11136,0 0.20237,0.0109 0.20237,0.0245 0,0.0602 -0.63741,1.72419 -0.69729,1.82033 -0.0554,0.0888 -0.36517,0.2258 -0.46226,0.20434 -0.0153,-0.002 -0.0678,-0.0175 -0.11859,-0.03 z m -11.20723,-0.58097 c -0.30157,-0.14856 -0.37256,-0.38913 -0.37392,-1.26696 l -10e-4,-0.75106 h 0.23718 0.23719 v 0.78244 c 0,0.90911 0.0218,0.95689 0.43599,0.95689 0.37513,0 0.40731,-0.0779 0.40731,-0.9868 v -0.75253 h 0.23718 0.23718 l -8e-5,0.75106 c -9e-5,0.85096 -0.0527,1.02992 -0.36349,1.23757 -0.2248,0.15009 -0.77692,0.16562 -1.0534,0.0293 z m 1.6805,-0.67082 v -0.76742 h 0.18443 c 0.15424,0 0.18444,0.0197 0.18444,0.11464 v 0.11465 l 0.11858,-0.10765 c 0.15971,-0.14505 0.34821,-0.18224 0.58719,-0.1164 0.27661,0.0764 0.34835,0.27034 0.34835,0.94189 v 0.52875 h -0.21091 -0.2109 v -0.51888 c 0,-0.43577 -0.0153,-0.53289 -0.0963,-0.60614 -0.12361,-0.11202 -0.23307,-0.11048 -0.3714,0.004 -0.0967,0.0807 -0.11224,0.15839 -0.1245,0.61931 l -0.0132,0.52704 -0.19757,0.0153 -0.19756,0.0153 z m 1.66903,0.72593 c -0.0197,-0.0197 -0.0352,-0.36323 -0.0352,-0.76425 v -0.7291 h 0.21091 0.2109 v 0.76425 0.76423 h -0.17568 c -0.0967,0 -0.19143,-0.0153 -0.21091,-0.0352 z m 2.44209,4.6e-4 c -0.16759,-0.0669 -0.37299,-0.31205 -0.42571,-0.50786 -0.11005,-0.40827 0.0845,-0.82243 0.4519,-0.96274 0.50077,-0.19121 0.89615,0.0547 1.00294,0.62386 l 0.0367,0.19582 h -0.5593 c -0.46932,0 -0.55928,0.0132 -0.55928,0.0814 0,0.10415 0.23425,0.34019 0.33772,0.34019 0.11092,0 0.34747,-0.11333 0.34747,-0.16649 0,-0.0243 0.0829,-0.0442 0.18443,-0.0442 0.22373,0 0.23031,0.0525 0.0342,0.27195 -0.13215,0.1479 -0.18772,0.17021 -0.46118,0.18399 -0.17109,0.009 -0.34646,10e-4 -0.38996,-0.0153 z m 0.63248,-0.95542 c 0,-0.0226 -0.037,-0.0936 -0.082,-0.15819 -0.10436,-0.14898 -0.35449,-0.15489 -0.49773,-0.0109 -0.17131,0.1713 -0.12689,0.2109 0.23718,0.2109 0.18838,0 0.3426,-0.0175 0.3426,-0.0409 z m 1.87108,0.93987 c -0.13696,-0.056 -0.27565,-0.21397 -0.29829,-0.33947 -0.0282,-0.15599 0.30444,-0.15009 0.40751,0.006 0.13017,0.19866 0.58283,0.14309 0.54164,-0.0665 -0.023,-0.11662 -0.0987,-0.15796 -0.47925,-0.26199 -0.34307,-0.0936 -0.49469,-0.25673 -0.4403,-0.47341 0.0718,-0.28582 0.41451,-0.43964 0.82512,-0.37027 0.21725,0.0367 0.47137,0.23399 0.47137,0.36591 0,0.10896 -0.3598,0.11399 -0.40136,0.006 -0.0451,-0.11748 -0.33264,-0.16146 -0.42864,-0.0654 -0.12887,0.12886 -0.042,0.22944 0.25934,0.3003 0.53716,0.12624 0.66822,0.25469 0.5959,0.58393 -0.0505,0.23038 -0.29507,0.36432 -0.65773,0.36041 -0.15948,-0.002 -0.33734,-0.0225 -0.39531,-0.0464 z m 1.27376,0.0153 c -0.0197,-0.0197 -0.0352,-0.36325 -0.0352,-0.76426 v -0.7291 h 0.2109 0.21092 v 0.76424 0.76426 h -0.17569 c -0.0967,0 -0.19143,-0.0153 -0.21091,-0.0352 z m 4.02326,-0.0597 c -0.25033,-0.13762 -0.39691,-0.48352 -0.34672,-0.81821 0.12143,-0.81011 1.27343,-0.88627 1.50906,-0.0998 0.0875,0.29216 0.0249,0.56264 -0.1829,0.78928 -0.15491,0.16911 -0.20697,0.19165 -0.48437,0.20981 -0.23578,0.0153 -0.35518,-0.004 -0.49517,-0.0812 z m 0.67938,-0.30208 c 0.0403,-0.0383 0.0842,-0.184 0.0974,-0.32375 0.0197,-0.20501 0.002,-0.28245 -0.0901,-0.39924 -0.11289,-0.14309 -0.3243,-0.19165 -0.45465,-0.10458 -0.1678,0.11202 -0.23773,0.54237 -0.12296,0.75671 0.10655,0.19909 0.39732,0.23517 0.5705,0.0709 z m 0.79644,-0.23228 v -0.63566 h -0.13172 c -0.10545,0 -0.1317,-0.0262 -0.1317,-0.1317 0,-0.10546 0.0264,-0.13171 0.1317,-0.13171 0.11136,0 0.13172,-0.0245 0.13172,-0.15818 0,-0.26246 0.27664,-0.45684 0.58758,-0.41285 0.0895,0.0132 0.12842,0.0567 0.14024,0.15863 0.0132,0.12032 -0.006,0.14373 -0.13171,0.15817 -0.10698,0.0132 -0.15271,0.0499 -0.16496,0.13565 -0.0132,0.0965 0.009,0.11858 0.11858,0.11858 0.10939,0 0.13543,0.0254 0.13543,0.13171 0,0.10502 -0.0264,0.1317 -0.13018,0.1317 h -0.13017 l -0.0153,0.61931 -0.0153,0.61931 -0.19756,0.0153 -0.19755,0.0153 z m -10.75752,0.43166 c -0.0304,-0.0796 -0.14769,-0.41178 -0.26023,-0.73789 l -0.20478,-0.59295 h 0.20544 0.20544 l 0.14571,0.46117 c 0.0801,0.25366 0.16102,0.4801 0.17962,0.50323 0.0197,0.0231 0.10195,-0.18444 0.18509,-0.46118 l 0.15118,-0.50322 h 0.205 c 0.1538,0 0.19799,0.0175 0.17677,0.0735 -0.0153,0.0405 -0.13083,0.37239 -0.25599,0.73757 l -0.22776,0.66396 -0.2253,3.2e-4 c -0.19734,2e-4 -0.2322,-0.0174 -0.28074,-0.14461 z m 2.69337,-0.59295 v -0.73789 h 0.18444 c 0.16496,0 0.18443,0.0153 0.18443,0.14155 v 0.14156 l 0.14484,-0.13783 c 0.0796,-0.0759 0.21025,-0.15403 0.28989,-0.17372 0.13804,-0.0341 0.14483,-0.0267 0.14483,0.15446 0,0.16868 -0.0153,0.19012 -0.13411,0.19012 -0.0737,0 -0.19232,0.0582 -0.26353,0.1293 -0.11727,0.11727 -0.1293,0.17175 -0.1293,0.57978 v 0.45041 h -0.21091 -0.21091 z m -3.68947,-1.15955 c 0,-0.14943 0.0109,-0.15818 0.2109,-0.15818 0.1991,0 0.21091,0.009 0.21091,0.15818 0,0.14943 -0.0109,0.15818 -0.21091,0.15818 -0.19909,0 -0.2109,-0.009 -0.2109,-0.15818 z m 6.21939,0 c 0,-0.14943 0.011,-0.15818 0.21091,-0.15818 0.19909,0 0.21092,0.009 0.21092,0.15818 0,0.14943 -0.0109,0.15818 -0.21092,0.15818 -0.19908,0 -0.21091,-0.009 -0.21091,-0.15818 z"
       id="path17"
       inkscape:export-filename="path17.svg"
       inkscape:export-xdpi="96"
       inkscape:export-ydpi="96" /></g></svg>
