%TF.GenerationSoftware,KiCad,Pcbnew,8.0.7*%
%TF.CreationDate,2025-06-17T16:53:58+08:00*%
%TF.ProjectId,TT_0.4_Control_board!,54545f30-2e34-45f4-936f-6e74726f6c5f,rev?*%
%TF.SameCoordinates,Original*%
%TF.FileFunction,Profile,NP*%
%FSLAX46Y46*%
G04 Gerber Fmt 4.6, Leading zero omitted, Abs format (unit mm)*
G04 Created by KiCad (PCBNEW 8.0.7) date 2025-06-17 16:53:58*
%MOMM*%
%LPD*%
G01*
G04 APERTURE LIST*
%TA.AperFunction,Profile*%
%ADD10C,0.500000*%
%TD*%
%TA.AperFunction,Profile*%
%ADD11C,0.200000*%
%TD*%
G04 APERTURE END LIST*
D10*
X32600000Y-64150000D02*
G75*
G02*
X37600000Y-59150000I5000000J0D01*
G01*
X223300000Y-62200000D02*
X223600000Y-65150000D01*
D11*
X39625000Y-109650000D02*
G75*
G02*
X37075000Y-109650000I-1275000J0D01*
G01*
X37075000Y-109650000D02*
G75*
G02*
X39625000Y-109650000I1275000J0D01*
G01*
D10*
X231550000Y-121550000D02*
X237850000Y-121350000D01*
X228597681Y-65103076D02*
X228685000Y-61700000D01*
X220300000Y-59200000D02*
G75*
G02*
X223300000Y-62200000I0J-3000000D01*
G01*
X67750000Y-110000000D02*
G75*
G02*
X72842193Y-110199389I2550000J0D01*
G01*
X223550000Y-75250000D02*
X223350001Y-102050000D01*
X62600000Y-59150000D02*
G75*
G02*
X67600000Y-64150000I0J-5000000D01*
G01*
X223550000Y-75250000D02*
G75*
G02*
X228550000Y-75250000I2500000J0D01*
G01*
X220769181Y-145330820D02*
G75*
G02*
X217230819Y-145330820I-1769181J0D01*
G01*
X217230819Y-145330820D02*
G75*
G02*
X220769181Y-145330820I1769181J0D01*
G01*
X40600000Y-136650000D02*
X40600000Y-146650000D01*
X255935000Y-113450000D02*
G75*
G02*
X253435000Y-115950000I-2500000J0D01*
G01*
X231185000Y-115950000D02*
G75*
G02*
X228685000Y-113450000I0J2500000D01*
G01*
X255935000Y-61700000D02*
X255935000Y-113450000D01*
X231550000Y-147300000D02*
G75*
G02*
X229050000Y-144800000I0J2500000D01*
G01*
X247850000Y-121250000D02*
G75*
G02*
X247850000Y-116050000I0J2600000D01*
G01*
X72899999Y-68500000D02*
X72900000Y-62200000D01*
X231185000Y-59200000D02*
X253435000Y-59200000D01*
X72900000Y-62200000D02*
G75*
G02*
X75900000Y-59200000I3000000J0D01*
G01*
X228685000Y-61700000D02*
G75*
G02*
X231185000Y-59200000I2500000J0D01*
G01*
X38100000Y-134150000D02*
G75*
G02*
X40600000Y-136650000I0J-2500000D01*
G01*
X67600000Y-140400000D02*
X67600000Y-144150000D01*
X72899999Y-68500000D02*
G75*
G02*
X67501996Y-68396231I-2699999J0D01*
G01*
X228699197Y-112065834D02*
X228685000Y-113450000D01*
X254050000Y-147300000D02*
X231550000Y-147300000D01*
X253435000Y-59200000D02*
G75*
G02*
X255935000Y-61700000I0J-2500000D01*
G01*
X43100000Y-149150000D02*
G75*
G02*
X40600000Y-146650000I0J2500000D01*
G01*
X72904323Y-100050000D02*
G75*
G02*
X67700000Y-99900000I-2604323J0D01*
G01*
D11*
X254375000Y-62700000D02*
G75*
G02*
X251825000Y-62700000I-1275000J0D01*
G01*
X251825000Y-62700000D02*
G75*
G02*
X254375000Y-62700000I1275000J0D01*
G01*
D10*
X75900000Y-149600000D02*
G75*
G02*
X72900000Y-146600000I0J3000000D01*
G01*
D11*
X254375000Y-112700000D02*
G75*
G02*
X251825000Y-112700000I-1275000J0D01*
G01*
X251825000Y-112700000D02*
G75*
G02*
X254375000Y-112700000I1275000J0D01*
G01*
D10*
X223300000Y-112000000D02*
X223450000Y-129600000D01*
X223600500Y-139649990D02*
G75*
G02*
X228700480Y-139548990I2550000J49990D01*
G01*
D11*
X66625000Y-109650000D02*
G75*
G02*
X64075000Y-109650000I-1275000J0D01*
G01*
X64075000Y-109650000D02*
G75*
G02*
X66625000Y-109650000I1275000J0D01*
G01*
D10*
X67750000Y-110000000D02*
X67700001Y-130300000D01*
X72699830Y-78395840D02*
X72904323Y-100050000D01*
X254050000Y-121550000D02*
G75*
G02*
X256550000Y-124050000I0J-2500000D01*
G01*
X228750000Y-129600000D02*
G75*
G02*
X223450000Y-129600000I-2650000J0D01*
G01*
X67700000Y-78600000D02*
G75*
G02*
X72699830Y-78395840I2500000J100000D01*
G01*
X223300000Y-112000000D02*
G75*
G02*
X228699197Y-112065834I2700000J0D01*
G01*
X78938361Y-63500000D02*
G75*
G02*
X75399999Y-63500000I-1769181J0D01*
G01*
X75399999Y-63500000D02*
G75*
G02*
X78938361Y-63500000I1769181J0D01*
G01*
X75900000Y-59200000D02*
X220300000Y-59200000D01*
X229050000Y-144800000D02*
X228700480Y-139548990D01*
X67700000Y-78600000D02*
X67700000Y-99900000D01*
X62600000Y-149150000D02*
X43100000Y-149150000D01*
X72511154Y-130354508D02*
G75*
G02*
X67699994Y-130300000I-2405224J58668D01*
G01*
X67600000Y-64150000D02*
X67501996Y-68396231D01*
X228649755Y-101938378D02*
G75*
G02*
X223350000Y-102050000I-2649755J-61622D01*
G01*
X220300000Y-149600000D02*
X75900000Y-149600000D01*
X72900918Y-140371646D02*
X72900000Y-146600000D01*
X223600500Y-139649990D02*
X223300000Y-146600000D01*
X67600000Y-140400000D02*
G75*
G02*
X72900918Y-140371646I2650000J100000D01*
G01*
X37600000Y-59150000D02*
X62600000Y-59150000D01*
X67600000Y-144150000D02*
G75*
G02*
X62600000Y-149150000I-5000000J0D01*
G01*
X72842193Y-110199389D02*
X72511154Y-130354508D01*
X32600000Y-131650000D02*
X32600000Y-64150000D01*
X35100000Y-134150000D02*
X38100000Y-134150000D01*
X237850000Y-115950000D02*
X231185000Y-115950000D01*
X228597681Y-65103076D02*
G75*
G02*
X223600001Y-65150000I-2497681J-146924D01*
G01*
X228750000Y-129600000D02*
X229050000Y-124050000D01*
X220769181Y-63500000D02*
G75*
G02*
X217230819Y-63500000I-1769181J0D01*
G01*
X217230819Y-63500000D02*
G75*
G02*
X220769181Y-63500000I1769181J0D01*
G01*
X229050000Y-124050000D02*
G75*
G02*
X231550000Y-121550000I2500000J0D01*
G01*
X228550000Y-75250000D02*
X228649755Y-101938378D01*
X223300000Y-146600000D02*
G75*
G02*
X220300000Y-149600000I-3000000J0D01*
G01*
X35100000Y-134150000D02*
G75*
G02*
X32600000Y-131650000I0J2500000D01*
G01*
X256550000Y-124050000D02*
X256550000Y-144800000D01*
X247850000Y-121250000D02*
X254050000Y-121550000D01*
D11*
X252325000Y-143800000D02*
G75*
G02*
X249775000Y-143800000I-1275000J0D01*
G01*
X249775000Y-143800000D02*
G75*
G02*
X252325000Y-143800000I1275000J0D01*
G01*
D10*
X78938361Y-145300000D02*
G75*
G02*
X75399999Y-145300000I-1769181J0D01*
G01*
X75399999Y-145300000D02*
G75*
G02*
X78938361Y-145300000I1769181J0D01*
G01*
X247850000Y-116050000D02*
X253435000Y-115950000D01*
D11*
X234325000Y-143800000D02*
G75*
G02*
X231775000Y-143800000I-1275000J0D01*
G01*
X231775000Y-143800000D02*
G75*
G02*
X234325000Y-143800000I1275000J0D01*
G01*
D10*
X256550000Y-144800000D02*
G75*
G02*
X254050000Y-147300000I-2500000J0D01*
G01*
X237850000Y-115950000D02*
G75*
G02*
X237850000Y-121350000I0J-2700000D01*
G01*
M02*
