M48
; DRILL file {KiCad 8.0.7} date 2025-06-17T16:53:53+0800
; FORMAT={-:-/ absolute / metric / decimal}
; #@! TF.CreationDate,2025-06-17T16:53:53+08:00
; #@! TF.GenerationSoftware,Kicad,Pcbnew,8.0.7
; #@! TF.FileFunction,Plated,1,2,PTH
FMAT,2
METRIC
; #@! TA.AperFunction,Plated,PTH,ViaDrill
T1C0.400
; #@! TA.AperFunction,Plated,PTH,ComponentDrill
T2C0.800
; #@! TA.AperFunction,Plated,PTH,ComponentDrill
T3C0.900
; #@! TA.AperFunction,Plated,PTH,ComponentDrill
T4C1.000
; #@! TA.AperFunction,Plated,PTH,ComponentDrill
T5C1.100
; #@! TA.AperFunction,Plated,PTH,ComponentDrill
T6C1.200
; #@! TA.AperFunction,Plated,PTH,ComponentDrill
T7C1.300
%
G90
G05
T1
X38.85Y-115.05
X50.7Y-116.0
X52.95Y-109.8
X64.3Y-116.25
T2
X43.69Y-98.65
X43.74Y-104.05
X51.31Y-98.65
X51.36Y-104.05
X55.2Y-103.9
X62.82Y-103.9
X233.43Y-131.8
X233.68Y-125.8
X240.35Y-110.7
X240.6Y-64.95
X240.6Y-71.45
X240.6Y-78.2
X240.6Y-84.7
X240.6Y-97.7
X240.6Y-104.2
X240.85Y-91.2
X247.97Y-110.7
X248.22Y-64.95
X248.22Y-71.45
X248.22Y-78.2
X248.22Y-84.7
X248.22Y-97.7
X248.22Y-104.2
X248.47Y-91.2
X248.67Y-131.8
X248.92Y-125.8
T3
X36.625Y-101.8
X39.165Y-101.8
X57.6Y-142.15
X60.14Y-142.15
X62.475Y-98.0
X65.015Y-98.0
X232.87Y-64.95
X232.87Y-84.7
X232.87Y-91.2
X232.885Y-71.45
X232.885Y-78.2
X232.91Y-97.7
X232.91Y-104.2
X232.91Y-110.7
X235.41Y-64.95
X235.41Y-84.7
X235.41Y-91.2
X235.425Y-71.45
X235.425Y-78.2
X235.45Y-97.7
X235.45Y-104.2
X235.45Y-110.7
T4
X34.6Y-122.15
X35.8Y-65.65
X35.8Y-68.19
X35.8Y-70.73
X35.8Y-73.27
X35.8Y-75.81
X35.8Y-78.35
X35.8Y-80.89
X35.8Y-83.43
X35.8Y-85.97
X35.8Y-88.51
X39.4Y-65.65
X39.4Y-68.19
X39.4Y-70.73
X39.4Y-73.27
X39.4Y-75.81
X39.4Y-78.35
X39.4Y-80.89
X39.4Y-83.43
X39.4Y-85.97
X39.4Y-88.51
X39.6Y-122.15
X42.75Y-122.1
X43.0Y-65.65
X43.0Y-68.19
X43.0Y-70.73
X43.0Y-73.27
X43.0Y-75.81
X43.0Y-78.35
X43.0Y-80.89
X43.0Y-83.43
X43.0Y-85.97
X43.0Y-88.51
X46.6Y-65.65
X46.6Y-68.19
X46.6Y-70.73
X46.6Y-73.27
X46.6Y-75.81
X46.6Y-78.35
X46.6Y-80.89
X46.6Y-83.43
X46.6Y-85.97
X46.6Y-88.51
X47.75Y-122.1
X52.1Y-122.15
X52.19Y-65.71
X52.19Y-68.25
X52.19Y-70.79
X52.19Y-73.33
X52.19Y-75.87
X52.19Y-78.41
X52.19Y-80.95
X52.19Y-83.49
X52.19Y-86.03
X52.19Y-88.57
X55.78Y-65.7
X55.78Y-68.24
X55.78Y-70.78
X55.78Y-73.32
X55.78Y-75.86
X55.78Y-78.4
X55.78Y-80.94
X55.78Y-83.48
X55.78Y-86.02
X55.78Y-88.56
X57.1Y-122.15
X59.34Y-65.71
X59.34Y-68.25
X59.34Y-70.79
X59.34Y-73.33
X59.34Y-75.87
X59.34Y-78.41
X59.34Y-80.95
X59.34Y-83.49
X59.34Y-86.03
X59.34Y-88.57
X60.35Y-122.2
X64.9Y-65.66
X64.9Y-68.2
X64.9Y-70.74
X64.9Y-73.28
X64.9Y-75.82
X64.9Y-78.36
X64.9Y-80.9
X64.9Y-83.44
X64.9Y-85.98
X64.9Y-88.52
X65.35Y-122.2
X78.45Y-73.01
X78.45Y-75.55
X78.45Y-78.09
X78.45Y-80.63
X78.45Y-83.17
X78.45Y-85.71
X78.45Y-88.25
X78.45Y-90.79
X78.45Y-93.33
X78.45Y-95.87
X82.05Y-73.06
X82.05Y-75.6
X82.05Y-78.14
X82.05Y-80.68
X82.05Y-83.22
X82.05Y-85.76
X82.05Y-88.3
X82.05Y-90.84
X82.05Y-93.38
X82.05Y-95.92
X85.65Y-73.01
X85.65Y-75.55
X85.65Y-78.09
X85.65Y-80.63
X85.65Y-83.17
X85.65Y-85.71
X85.65Y-88.25
X85.65Y-90.79
X85.65Y-93.33
X85.65Y-95.87
X89.25Y-73.01
X89.25Y-75.55
X89.25Y-78.09
X89.25Y-80.63
X89.25Y-83.17
X89.25Y-85.71
X89.25Y-88.25
X89.25Y-90.79
X89.25Y-93.33
X89.25Y-95.87
X111.65Y-82.56
X111.65Y-85.1
X111.65Y-87.64
X111.65Y-90.18
X111.65Y-92.72
X111.65Y-95.26
X111.65Y-97.8
X111.65Y-100.34
X111.65Y-102.88
X111.65Y-105.42
X115.4Y-74.96
X115.4Y-77.5
X115.4Y-80.04
X115.4Y-82.58
X115.4Y-85.12
X115.4Y-87.66
X115.4Y-90.2
X115.4Y-92.74
X115.4Y-95.28
X115.4Y-97.82
X115.4Y-100.36
X115.4Y-102.9
X115.4Y-105.44
X115.4Y-107.98
X115.4Y-110.52
X115.4Y-113.06
X115.4Y-115.6
X115.4Y-118.14
X115.4Y-120.68
X115.4Y-123.22
X115.4Y-125.76
X115.4Y-128.3
X115.4Y-130.84
X115.4Y-133.38
X130.6Y-75.12
X130.6Y-77.66
X130.6Y-80.2
X130.6Y-82.74
X130.6Y-85.28
X130.6Y-87.82
X130.6Y-90.36
X130.6Y-92.9
X130.6Y-95.44
X130.6Y-97.98
X130.6Y-100.52
X130.6Y-103.06
X130.6Y-105.6
X130.6Y-108.14
X130.6Y-110.68
X130.6Y-113.22
X130.6Y-115.76
X130.6Y-118.3
X130.6Y-120.84
X130.6Y-123.38
X130.6Y-125.92
X130.6Y-128.46
X130.6Y-131.0
X130.6Y-133.54
X138.075Y-63.915
X138.075Y-66.455
X138.075Y-68.995
X138.075Y-71.535
X138.075Y-74.075
X138.075Y-76.615
X138.075Y-79.155
X138.075Y-81.695
X138.075Y-84.235
X142.275Y-93.235
X142.275Y-95.775
X142.275Y-98.315
X142.275Y-100.855
X142.275Y-103.395
X142.275Y-105.935
X142.275Y-108.475
X142.275Y-111.015
X142.275Y-113.555
X142.275Y-116.095
X149.455Y-136.035
X151.995Y-136.035
X153.775Y-63.715
X153.775Y-66.255
X153.775Y-68.795
X153.775Y-71.335
X153.775Y-73.875
X153.775Y-76.415
X153.775Y-78.955
X153.775Y-81.495
X153.775Y-84.035
X154.535Y-136.035
X157.075Y-136.035
X168.135Y-81.585
X168.755Y-136.035
X168.775Y-121.035
X170.675Y-81.585
X171.295Y-136.035
X171.315Y-121.035
X173.215Y-81.585
X173.835Y-136.035
X173.855Y-121.035
X176.375Y-136.035
X176.395Y-121.035
X178.915Y-136.035
X178.935Y-121.035
X181.455Y-136.035
X181.475Y-121.035
X183.995Y-136.035
X184.015Y-121.035
X186.535Y-136.035
X186.555Y-121.035
X189.01Y-76.975
X189.01Y-79.515
X189.01Y-82.055
X189.01Y-84.595
X189.01Y-87.135
X189.01Y-89.675
X189.01Y-92.215
X189.01Y-94.755
X189.01Y-97.295
X189.075Y-136.035
X189.095Y-121.035
X239.51Y-142.55
X242.05Y-142.55
X244.59Y-142.55
X252.85Y-78.54
X252.85Y-81.08
X252.85Y-83.62
X252.85Y-86.16
X252.85Y-88.7
X252.85Y-91.24
X252.85Y-93.78
X252.85Y-96.32
X252.85Y-98.86
T5
X193.325Y-142.035
X195.825Y-142.035
X198.325Y-142.035
X200.825Y-142.035
T6
X44.98Y-133.15
X60.22Y-133.15
T7
X45.6Y-142.15
X50.6Y-142.15
M30
