%TF.GenerationSoftware,KiCad,Pcbnew,8.0.7*%
%TF.CreationDate,2025-06-17T16:53:58+08:00*%
%TF.ProjectId,TT_0.4_Control_board!,54545f30-2e34-45f4-936f-6e74726f6c5f,rev?*%
%TF.SameCoordinates,Original*%
%TF.FileFunction,Soldermask,Bot*%
%TF.FilePolarity,Negative*%
%FSLAX46Y46*%
G04 Gerber Fmt 4.6, Leading zero omitted, Abs format (unit mm)*
G04 Created by KiCad (PCBNEW 8.0.7) date 2025-06-17 16:53:58*
%MOMM*%
%LPD*%
G01*
G04 APERTURE LIST*
%ADD10R,1.700000X1.700000*%
%ADD11O,1.700000X1.700000*%
%ADD12C,1.600000*%
%ADD13O,1.600000X1.600000*%
%ADD14C,2.100000*%
%ADD15C,0.500000*%
%ADD16R,2.800000X2.800000*%
%ADD17C,2.800000*%
%ADD18R,1.800000X1.800000*%
%ADD19C,1.800000*%
%ADD20C,2.000000*%
%ADD21C,2.400000*%
%ADD22O,2.400000X2.400000*%
G04 APERTURE END LIST*
D10*
%TO.C,J1*%
X239510000Y-142550000D03*
D11*
X242050000Y-142550000D03*
X244590000Y-142550000D03*
%TD*%
D12*
%TO.C,R14*%
X51310000Y-98650000D03*
D13*
X43690000Y-98650000D03*
%TD*%
D12*
%TO.C,R13*%
X43740000Y-104050000D03*
D13*
X51360000Y-104050000D03*
%TD*%
D10*
%TO.C,J24*%
X85650000Y-73010000D03*
D11*
X85650000Y-75550000D03*
X85650000Y-78090000D03*
X85650000Y-80630000D03*
X85650000Y-83170000D03*
X85650000Y-85710000D03*
X85650000Y-88250000D03*
X85650000Y-90790000D03*
X85650000Y-93330000D03*
X85650000Y-95870000D03*
%TD*%
D14*
%TO.C,J18*%
X193325000Y-142035000D03*
X195825000Y-142035000D03*
X198325000Y-142035000D03*
X200825000Y-142035000D03*
%TD*%
D15*
%TO.C,mouse-bite-5mm-slot*%
X223600000Y-138450000D03*
X228600000Y-138450000D03*
X223600000Y-137700000D03*
X223600000Y-137700000D03*
X228600000Y-137700000D03*
X228600000Y-137700000D03*
X223600000Y-136950000D03*
X228600000Y-136950000D03*
X223600000Y-136200000D03*
X228600000Y-136200000D03*
X223600000Y-135450000D03*
X228600000Y-135450000D03*
X223600000Y-134700000D03*
X228600000Y-134700000D03*
X223600000Y-133950000D03*
X228600000Y-133950000D03*
X223600000Y-133200000D03*
X228600000Y-133200000D03*
X223600000Y-132450000D03*
X228600000Y-132450000D03*
X223600000Y-131700000D03*
X228600000Y-131700000D03*
X223600000Y-130950000D03*
X228600000Y-130950000D03*
%TD*%
D10*
%TO.C,J23*%
X78450000Y-73010000D03*
D11*
X78450000Y-75550000D03*
X78450000Y-78090000D03*
X78450000Y-80630000D03*
X78450000Y-83170000D03*
X78450000Y-85710000D03*
X78450000Y-88250000D03*
X78450000Y-90790000D03*
X78450000Y-93330000D03*
X78450000Y-95870000D03*
%TD*%
D12*
%TO.C,R2*%
X233430000Y-131800000D03*
D13*
X248670000Y-131800000D03*
%TD*%
D10*
%TO.C,J25*%
X89250000Y-73010000D03*
D11*
X89250000Y-75550000D03*
X89250000Y-78090000D03*
X89250000Y-80630000D03*
X89250000Y-83170000D03*
X89250000Y-85710000D03*
X89250000Y-88250000D03*
X89250000Y-90790000D03*
X89250000Y-93330000D03*
X89250000Y-95870000D03*
%TD*%
D10*
%TO.C,REF\u002A\u002A*%
X138075000Y-63915000D03*
D11*
X138075000Y-66455000D03*
X138075000Y-68995000D03*
X138075000Y-71535000D03*
X138075000Y-74075000D03*
X138075000Y-76615000D03*
X138075000Y-79155000D03*
X138075000Y-81695000D03*
X138075000Y-84235000D03*
%TD*%
D15*
%TO.C,mouse-bite-5mm-slot*%
X67700000Y-139100000D03*
X72700000Y-139100000D03*
X67700000Y-138350000D03*
X67700000Y-138350000D03*
X72700000Y-138350000D03*
X72700000Y-138350000D03*
X67700000Y-137600000D03*
X72700000Y-137600000D03*
X67700000Y-136850000D03*
X72700000Y-136850000D03*
X67700000Y-136100000D03*
X72700000Y-136100000D03*
X67700000Y-135350000D03*
X72700000Y-135350000D03*
X67700000Y-134600000D03*
X72700000Y-134600000D03*
X67700000Y-133850000D03*
X72700000Y-133850000D03*
X67700000Y-133100000D03*
X72700000Y-133100000D03*
X67700000Y-132350000D03*
X72700000Y-132350000D03*
X67700000Y-131600000D03*
X72700000Y-131600000D03*
%TD*%
D10*
%TO.C,REF\u002A\u002A*%
X168775000Y-121035000D03*
D11*
X171315000Y-121035000D03*
X173855000Y-121035000D03*
X176395000Y-121035000D03*
X178935000Y-121035000D03*
X181475000Y-121035000D03*
X184015000Y-121035000D03*
X186555000Y-121035000D03*
X189095000Y-121035000D03*
%TD*%
D16*
%TO.C,J2*%
X45600000Y-142150000D03*
D17*
X50600000Y-142150000D03*
%TD*%
D15*
%TO.C,mouse-bite-5mm-slot*%
X246600000Y-121150000D03*
X246600000Y-116150000D03*
X245850000Y-121150000D03*
X245850000Y-121150000D03*
X245850000Y-116150000D03*
X245850000Y-116150000D03*
X245100000Y-121150000D03*
X245100000Y-116150000D03*
X244350000Y-121150000D03*
X244350000Y-116150000D03*
X243600000Y-121150000D03*
X243600000Y-116150000D03*
X242850000Y-121150000D03*
X242850000Y-116150000D03*
X242100000Y-121150000D03*
X242100000Y-116150000D03*
X241350000Y-121150000D03*
X241350000Y-116150000D03*
X240600000Y-121150000D03*
X240600000Y-116150000D03*
X239850000Y-121150000D03*
X239850000Y-116150000D03*
X239100000Y-121150000D03*
X239100000Y-116150000D03*
%TD*%
D10*
%TO.C,J12*%
X153775000Y-63715000D03*
D11*
X153775000Y-66255000D03*
X153775000Y-68795000D03*
X153775000Y-71335000D03*
X153775000Y-73875000D03*
X153775000Y-76415000D03*
X153775000Y-78955000D03*
X153775000Y-81495000D03*
X153775000Y-84035000D03*
%TD*%
D18*
%TO.C,D11*%
X36625000Y-101800000D03*
D19*
X39165000Y-101800000D03*
%TD*%
D12*
%TO.C,R6*%
X240850000Y-91200000D03*
D13*
X248470000Y-91200000D03*
%TD*%
D10*
%TO.C,J7*%
X39400000Y-65650000D03*
D11*
X39400000Y-68190000D03*
X39400000Y-70730000D03*
X39400000Y-73270000D03*
X39400000Y-75810000D03*
X39400000Y-78350000D03*
X39400000Y-80890000D03*
X39400000Y-83430000D03*
X39400000Y-85970000D03*
X39400000Y-88510000D03*
%TD*%
D10*
%TO.C,J6*%
X157075000Y-136035000D03*
D11*
X154535000Y-136035000D03*
X151995000Y-136035000D03*
X149455000Y-136035000D03*
%TD*%
D12*
%TO.C,R10*%
X240600000Y-64950000D03*
D13*
X248220000Y-64950000D03*
%TD*%
D15*
%TO.C,mouse-bite-5mm-slot*%
X67700000Y-77250000D03*
X72700000Y-77250000D03*
X67700000Y-76500000D03*
X67700000Y-76500000D03*
X72700000Y-76500000D03*
X72700000Y-76500000D03*
X67700000Y-75750000D03*
X72700000Y-75750000D03*
X67700000Y-75000000D03*
X72700000Y-75000000D03*
X67700000Y-74250000D03*
X72700000Y-74250000D03*
X67700000Y-73500000D03*
X72700000Y-73500000D03*
X67700000Y-72750000D03*
X72700000Y-72750000D03*
X67700000Y-72000000D03*
X72700000Y-72000000D03*
X67700000Y-71250000D03*
X72700000Y-71250000D03*
X67700000Y-70500000D03*
X72700000Y-70500000D03*
X67700000Y-69750000D03*
X72700000Y-69750000D03*
%TD*%
D12*
%TO.C,R4*%
X240600000Y-104200000D03*
D13*
X248220000Y-104200000D03*
%TD*%
D10*
%TO.C,J20*%
X252850000Y-98860000D03*
D11*
X252850000Y-96320000D03*
X252850000Y-93780000D03*
X252850000Y-91240000D03*
X252850000Y-88700000D03*
X252850000Y-86160000D03*
X252850000Y-83620000D03*
X252850000Y-81080000D03*
X252850000Y-78540000D03*
%TD*%
D10*
%TO.C,J14*%
X35800000Y-65650000D03*
D11*
X35800000Y-68190000D03*
X35800000Y-70730000D03*
X35800000Y-73270000D03*
X35800000Y-75810000D03*
X35800000Y-78350000D03*
X35800000Y-80890000D03*
X35800000Y-83430000D03*
X35800000Y-85970000D03*
X35800000Y-88510000D03*
%TD*%
D20*
%TO.C,C4*%
X60350000Y-122200000D03*
X65350000Y-122200000D03*
%TD*%
D18*
%TO.C,D9*%
X57600000Y-142150000D03*
D19*
X60140000Y-142150000D03*
%TD*%
D10*
%TO.C,J21*%
X115400000Y-74960000D03*
D11*
X115400000Y-77500000D03*
X115400000Y-80040000D03*
X115400000Y-82580000D03*
X115400000Y-85120000D03*
X115400000Y-87660000D03*
X115400000Y-90200000D03*
X115400000Y-92740000D03*
X115400000Y-95280000D03*
X115400000Y-97820000D03*
X115400000Y-100360000D03*
X115400000Y-102900000D03*
X115400000Y-105440000D03*
X115400000Y-107980000D03*
X115400000Y-110520000D03*
X115400000Y-113060000D03*
X115400000Y-115600000D03*
X115400000Y-118140000D03*
X115400000Y-120680000D03*
X115400000Y-123220000D03*
X115400000Y-125760000D03*
X115400000Y-128300000D03*
X115400000Y-130840000D03*
X115400000Y-133380000D03*
%TD*%
D10*
%TO.C,J5*%
X142275000Y-93235000D03*
D11*
X142275000Y-95775000D03*
X142275000Y-98315000D03*
X142275000Y-100855000D03*
X142275000Y-103395000D03*
X142275000Y-105935000D03*
X142275000Y-108475000D03*
X142275000Y-111015000D03*
X142275000Y-113555000D03*
X142275000Y-116095000D03*
%TD*%
D10*
%TO.C,J19*%
X189010000Y-76975000D03*
D11*
X189010000Y-79515000D03*
X189010000Y-82055000D03*
X189010000Y-84595000D03*
X189010000Y-87135000D03*
X189010000Y-89675000D03*
X189010000Y-92215000D03*
X189010000Y-94755000D03*
X189010000Y-97295000D03*
%TD*%
D10*
%TO.C,J13*%
X189075000Y-136035000D03*
D11*
X186535000Y-136035000D03*
X183995000Y-136035000D03*
X181455000Y-136035000D03*
X178915000Y-136035000D03*
X176375000Y-136035000D03*
X173835000Y-136035000D03*
X171295000Y-136035000D03*
X168755000Y-136035000D03*
%TD*%
D20*
%TO.C,C3*%
X52100000Y-122150000D03*
X57100000Y-122150000D03*
%TD*%
D21*
%TO.C,R11*%
X44980000Y-133150000D03*
D22*
X60220000Y-133150000D03*
%TD*%
D15*
%TO.C,mouse-bite-5mm-slot*%
X67750000Y-108800000D03*
X72750000Y-108800000D03*
X67750000Y-108050000D03*
X67750000Y-108050000D03*
X72750000Y-108050000D03*
X72750000Y-108050000D03*
X67750000Y-107300000D03*
X72750000Y-107300000D03*
X67750000Y-106550000D03*
X72750000Y-106550000D03*
X67750000Y-105800000D03*
X72750000Y-105800000D03*
X67750000Y-105050000D03*
X72750000Y-105050000D03*
X67750000Y-104300000D03*
X72750000Y-104300000D03*
X67750000Y-103550000D03*
X72750000Y-103550000D03*
X67750000Y-102800000D03*
X72750000Y-102800000D03*
X67750000Y-102050000D03*
X72750000Y-102050000D03*
X67750000Y-101300000D03*
X72750000Y-101300000D03*
%TD*%
D10*
%TO.C,J8*%
X52190000Y-65710000D03*
D11*
X52190000Y-68250000D03*
X52190000Y-70790000D03*
X52190000Y-73330000D03*
X52190000Y-75870000D03*
X52190000Y-78410000D03*
X52190000Y-80950000D03*
X52190000Y-83490000D03*
X52190000Y-86030000D03*
X52190000Y-88570000D03*
%TD*%
D20*
%TO.C,C1*%
X34600000Y-122150000D03*
X39600000Y-122150000D03*
%TD*%
D12*
%TO.C,R3*%
X240350000Y-110700000D03*
D13*
X247970000Y-110700000D03*
%TD*%
D12*
%TO.C,R5*%
X240600000Y-97700000D03*
D13*
X248220000Y-97700000D03*
%TD*%
D15*
%TO.C,mouse-bite-5mm-slot*%
X223500000Y-110750000D03*
X228500000Y-110750000D03*
X223500000Y-110000000D03*
X223500000Y-110000000D03*
X228500000Y-110000000D03*
X228500000Y-110000000D03*
X223500000Y-109250000D03*
X228500000Y-109250000D03*
X223500000Y-108500000D03*
X228500000Y-108500000D03*
X223500000Y-107750000D03*
X228500000Y-107750000D03*
X223500000Y-107000000D03*
X228500000Y-107000000D03*
X223500000Y-106250000D03*
X228500000Y-106250000D03*
X223500000Y-105500000D03*
X228500000Y-105500000D03*
X223500000Y-104750000D03*
X228500000Y-104750000D03*
X223500000Y-104000000D03*
X228500000Y-104000000D03*
X223500000Y-103250000D03*
X228500000Y-103250000D03*
%TD*%
%TO.C,mouse-bite-5mm-slot*%
X223550000Y-74000000D03*
X228550000Y-74000000D03*
X223550000Y-73250000D03*
X223550000Y-73250000D03*
X228550000Y-73250000D03*
X228550000Y-73250000D03*
X223550000Y-72500000D03*
X228550000Y-72500000D03*
X223550000Y-71750000D03*
X228550000Y-71750000D03*
X223550000Y-71000000D03*
X228550000Y-71000000D03*
X223550000Y-70250000D03*
X228550000Y-70250000D03*
X223550000Y-69500000D03*
X228550000Y-69500000D03*
X223550000Y-68750000D03*
X228550000Y-68750000D03*
X223550000Y-68000000D03*
X228550000Y-68000000D03*
X223550000Y-67250000D03*
X228550000Y-67250000D03*
X223550000Y-66500000D03*
X228550000Y-66500000D03*
%TD*%
D10*
%TO.C,J11*%
X43000000Y-65650000D03*
D11*
X43000000Y-68190000D03*
X43000000Y-70730000D03*
X43000000Y-73270000D03*
X43000000Y-75810000D03*
X43000000Y-78350000D03*
X43000000Y-80890000D03*
X43000000Y-83430000D03*
X43000000Y-85970000D03*
X43000000Y-88510000D03*
%TD*%
D20*
%TO.C,C2*%
X42750000Y-122100000D03*
X47750000Y-122100000D03*
%TD*%
D12*
%TO.C,R7*%
X240600000Y-84700000D03*
D13*
X248220000Y-84700000D03*
%TD*%
D18*
%TO.C,D5*%
X232870000Y-84700000D03*
D19*
X235410000Y-84700000D03*
%TD*%
D18*
%TO.C,D10*%
X62475000Y-98000000D03*
D19*
X65015000Y-98000000D03*
%TD*%
D10*
%TO.C,J3*%
X130600000Y-75120000D03*
D11*
X130600000Y-77660000D03*
X130600000Y-80200000D03*
X130600000Y-82740000D03*
X130600000Y-85280000D03*
X130600000Y-87820000D03*
X130600000Y-90360000D03*
X130600000Y-92900000D03*
X130600000Y-95440000D03*
X130600000Y-97980000D03*
X130600000Y-100520000D03*
X130600000Y-103060000D03*
X130600000Y-105600000D03*
X130600000Y-108140000D03*
X130600000Y-110680000D03*
X130600000Y-113220000D03*
X130600000Y-115760000D03*
X130600000Y-118300000D03*
X130600000Y-120840000D03*
X130600000Y-123380000D03*
X130600000Y-125920000D03*
X130600000Y-128460000D03*
X130600000Y-131000000D03*
X130600000Y-133540000D03*
%TD*%
D10*
%TO.C,J9*%
X55780000Y-65700000D03*
D11*
X55780000Y-68240000D03*
X55780000Y-70780000D03*
X55780000Y-73320000D03*
X55780000Y-75860000D03*
X55780000Y-78400000D03*
X55780000Y-80940000D03*
X55780000Y-83480000D03*
X55780000Y-86020000D03*
X55780000Y-88560000D03*
%TD*%
D18*
%TO.C,D7*%
X232885000Y-71450000D03*
D19*
X235425000Y-71450000D03*
%TD*%
D10*
%TO.C,J22*%
X82050000Y-73060000D03*
D11*
X82050000Y-75600000D03*
X82050000Y-78140000D03*
X82050000Y-80680000D03*
X82050000Y-83220000D03*
X82050000Y-85760000D03*
X82050000Y-88300000D03*
X82050000Y-90840000D03*
X82050000Y-93380000D03*
X82050000Y-95920000D03*
%TD*%
D10*
%TO.C,J4*%
X168135000Y-81585000D03*
D11*
X170675000Y-81585000D03*
X173215000Y-81585000D03*
%TD*%
D10*
%TO.C,J10*%
X111650000Y-82560000D03*
D11*
X111650000Y-85100000D03*
X111650000Y-87640000D03*
X111650000Y-90180000D03*
X111650000Y-92720000D03*
X111650000Y-95260000D03*
X111650000Y-97800000D03*
X111650000Y-100340000D03*
X111650000Y-102880000D03*
X111650000Y-105420000D03*
%TD*%
D12*
%TO.C,R1*%
X248920000Y-125800000D03*
D13*
X233680000Y-125800000D03*
%TD*%
D12*
%TO.C,R9*%
X240600000Y-71450000D03*
D13*
X248220000Y-71450000D03*
%TD*%
D10*
%TO.C,J15*%
X46600000Y-65650000D03*
D11*
X46600000Y-68190000D03*
X46600000Y-70730000D03*
X46600000Y-73270000D03*
X46600000Y-75810000D03*
X46600000Y-78350000D03*
X46600000Y-80890000D03*
X46600000Y-83430000D03*
X46600000Y-85970000D03*
X46600000Y-88510000D03*
%TD*%
D18*
%TO.C,D8*%
X232870000Y-64950000D03*
D19*
X235410000Y-64950000D03*
%TD*%
D12*
%TO.C,R8*%
X240600000Y-78200000D03*
D13*
X248220000Y-78200000D03*
%TD*%
D18*
%TO.C,D1*%
X232910000Y-110700000D03*
D19*
X235450000Y-110700000D03*
%TD*%
D12*
%TO.C,R12*%
X55200000Y-103900000D03*
D13*
X62820000Y-103900000D03*
%TD*%
D10*
%TO.C,J16*%
X59340000Y-65710000D03*
D11*
X59340000Y-68250000D03*
X59340000Y-70790000D03*
X59340000Y-73330000D03*
X59340000Y-75870000D03*
X59340000Y-78410000D03*
X59340000Y-80950000D03*
X59340000Y-83490000D03*
X59340000Y-86030000D03*
X59340000Y-88570000D03*
%TD*%
D18*
%TO.C,D3*%
X232910000Y-97700000D03*
D19*
X235450000Y-97700000D03*
%TD*%
D18*
%TO.C,D4*%
X232870000Y-91200000D03*
D19*
X235410000Y-91200000D03*
%TD*%
D10*
%TO.C,J17*%
X64900000Y-65660000D03*
D11*
X64900000Y-68200000D03*
X64900000Y-70740000D03*
X64900000Y-73280000D03*
X64900000Y-75820000D03*
X64900000Y-78360000D03*
X64900000Y-80900000D03*
X64900000Y-83440000D03*
X64900000Y-85980000D03*
X64900000Y-88520000D03*
%TD*%
D18*
%TO.C,D6*%
X232885000Y-78200000D03*
D19*
X235425000Y-78200000D03*
%TD*%
D18*
%TO.C,D2*%
X232910000Y-104200000D03*
D19*
X235450000Y-104200000D03*
%TD*%
M02*
