M48
; DRILL file {KiCad 8.0.7} date 2025-06-17T16:53:53+0800
; FORMAT={-:-/ absolute / metric / decimal}
; #@! TF.CreationDate,2025-06-17T16:53:53+08:00
; #@! TF.GenerationSoftware,Kicad,Pcbnew,8.0.7
; #@! TF.FileFunction,NonPlated,1,2,NPTH
FMAT,2
METRIC
; #@! TA.AperFunction,NonPlated,NPTH,ComponentDrill
T1C0.500
%
G90
G05
T1
X67.7Y-69.75
X67.7Y-70.5
X67.7Y-71.25
X67.7Y-72.0
X67.7Y-72.75
X67.7Y-73.5
X67.7Y-74.25
X67.7Y-75.0
X67.7Y-75.75
X67.7Y-76.5
X67.7Y-76.5
X67.7Y-77.25
X67.7Y-131.6
X67.7Y-132.35
X67.7Y-133.1
X67.7Y-133.85
X67.7Y-134.6
X67.7Y-135.35
X67.7Y-136.1
X67.7Y-136.85
X67.7Y-137.6
X67.7Y-138.35
X67.7Y-138.35
X67.7Y-139.1
X67.75Y-101.3
X67.75Y-102.05
X67.75Y-102.8
X67.75Y-103.55
X67.75Y-104.3
X67.75Y-105.05
X67.75Y-105.8
X67.75Y-106.55
X67.75Y-107.3
X67.75Y-108.05
X67.75Y-108.05
X67.75Y-108.8
X72.7Y-69.75
X72.7Y-70.5
X72.7Y-71.25
X72.7Y-72.0
X72.7Y-72.75
X72.7Y-73.5
X72.7Y-74.25
X72.7Y-75.0
X72.7Y-75.75
X72.7Y-76.5
X72.7Y-76.5
X72.7Y-77.25
X72.7Y-131.6
X72.7Y-132.35
X72.7Y-133.1
X72.7Y-133.85
X72.7Y-134.6
X72.7Y-135.35
X72.7Y-136.1
X72.7Y-136.85
X72.7Y-137.6
X72.7Y-138.35
X72.7Y-138.35
X72.7Y-139.1
X72.75Y-101.3
X72.75Y-102.05
X72.75Y-102.8
X72.75Y-103.55
X72.75Y-104.3
X72.75Y-105.05
X72.75Y-105.8
X72.75Y-106.55
X72.75Y-107.3
X72.75Y-108.05
X72.75Y-108.05
X72.75Y-108.8
X223.5Y-103.25
X223.5Y-104.0
X223.5Y-104.75
X223.5Y-105.5
X223.5Y-106.25
X223.5Y-107.0
X223.5Y-107.75
X223.5Y-108.5
X223.5Y-109.25
X223.5Y-110.0
X223.5Y-110.0
X223.5Y-110.75
X223.55Y-66.5
X223.55Y-67.25
X223.55Y-68.0
X223.55Y-68.75
X223.55Y-69.5
X223.55Y-70.25
X223.55Y-71.0
X223.55Y-71.75
X223.55Y-72.5
X223.55Y-73.25
X223.55Y-73.25
X223.55Y-74.0
X223.6Y-130.95
X223.6Y-131.7
X223.6Y-132.45
X223.6Y-133.2
X223.6Y-133.95
X223.6Y-134.7
X223.6Y-135.45
X223.6Y-136.2
X223.6Y-136.95
X223.6Y-137.7
X223.6Y-137.7
X223.6Y-138.45
X228.5Y-103.25
X228.5Y-104.0
X228.5Y-104.75
X228.5Y-105.5
X228.5Y-106.25
X228.5Y-107.0
X228.5Y-107.75
X228.5Y-108.5
X228.5Y-109.25
X228.5Y-110.0
X228.5Y-110.0
X228.5Y-110.75
X228.55Y-66.5
X228.55Y-67.25
X228.55Y-68.0
X228.55Y-68.75
X228.55Y-69.5
X228.55Y-70.25
X228.55Y-71.0
X228.55Y-71.75
X228.55Y-72.5
X228.55Y-73.25
X228.55Y-73.25
X228.55Y-74.0
X228.6Y-130.95
X228.6Y-131.7
X228.6Y-132.45
X228.6Y-133.2
X228.6Y-133.95
X228.6Y-134.7
X228.6Y-135.45
X228.6Y-136.2
X228.6Y-136.95
X228.6Y-137.7
X228.6Y-137.7
X228.6Y-138.45
X239.1Y-116.15
X239.1Y-121.15
X239.85Y-116.15
X239.85Y-121.15
X240.6Y-116.15
X240.6Y-121.15
X241.35Y-116.15
X241.35Y-121.15
X242.1Y-116.15
X242.1Y-121.15
X242.85Y-116.15
X242.85Y-121.15
X243.6Y-116.15
X243.6Y-121.15
X244.35Y-116.15
X244.35Y-121.15
X245.1Y-116.15
X245.1Y-121.15
X245.85Y-116.15
X245.85Y-116.15
X245.85Y-121.15
X245.85Y-121.15
X246.6Y-116.15
X246.6Y-121.15
M30
