%TF.GenerationSoftware,KiCad,Pcbnew,8.0.7*%
%TF.CreationDate,2025-06-17T16:53:55+08:00*%
%TF.ProjectId,TT_0.4_Control_board!,54545f30-2e34-45f4-936f-6e74726f6c5f,rev?*%
%TF.SameCoordinates,Original*%
%TF.FileFunction,Drillmap*%
%TF.FilePolarity,Positive*%
%FSLAX45Y45*%
G04 Gerber Fmt 4.5, Leading zero omitted, Abs format (unit mm)*
G04 Created by KiCad (PCBNEW 8.0.7) date 2025-06-17 16:53:55*
%MOMM*%
%LPD*%
G01*
G04 APERTURE LIST*
%ADD10C,0.500000*%
%ADD11C,0.200000*%
%ADD12C,0.100000*%
G04 APERTURE END LIST*
D10*
X3260000Y-6415000D02*
G75*
G02*
X3760000Y-5915000I500000J0D01*
G01*
X22330000Y-6220000D02*
X22360000Y-6515000D01*
D11*
X3962500Y-10965000D02*
G75*
G02*
X3707500Y-10965000I-127500J0D01*
G01*
X3707500Y-10965000D02*
G75*
G02*
X3962500Y-10965000I127500J0D01*
G01*
D10*
X23155000Y-12155000D02*
X23785000Y-12135000D01*
X22859768Y-6510308D02*
X22868500Y-6170000D01*
X22030000Y-5920000D02*
G75*
G02*
X22330000Y-6220000I0J-300000D01*
G01*
X6775000Y-11000000D02*
G75*
G02*
X7284219Y-11019939I255000J0D01*
G01*
X22355000Y-7525000D02*
X22335000Y-10205000D01*
X6260000Y-5915000D02*
G75*
G02*
X6760000Y-6415000I0J-500000D01*
G01*
X22355000Y-7525000D02*
G75*
G02*
X22855000Y-7525000I250000J0D01*
G01*
X22076918Y-14533082D02*
G75*
G02*
X21723082Y-14533082I-176918J0D01*
G01*
X21723082Y-14533082D02*
G75*
G02*
X22076918Y-14533082I176918J0D01*
G01*
X4060000Y-13665000D02*
X4060000Y-14665000D01*
X25593500Y-11345000D02*
G75*
G02*
X25343500Y-11595000I-250000J0D01*
G01*
X23118500Y-11595000D02*
G75*
G02*
X22868500Y-11345000I0J250000D01*
G01*
X25593500Y-6170000D02*
X25593500Y-11345000D01*
X23155000Y-14730000D02*
G75*
G02*
X22905000Y-14480000I0J250000D01*
G01*
X24785000Y-12125000D02*
G75*
G02*
X24785000Y-11605000I0J260000D01*
G01*
X7290000Y-6850000D02*
X7290000Y-6220000D01*
X23118500Y-5920000D02*
X25343500Y-5920000D01*
X7290000Y-6220000D02*
G75*
G02*
X7590000Y-5920000I300000J0D01*
G01*
X22868500Y-6170000D02*
G75*
G02*
X23118500Y-5920000I250000J0D01*
G01*
X3810000Y-13415000D02*
G75*
G02*
X4060000Y-13665000I0J-250000D01*
G01*
X6760000Y-14040000D02*
X6760000Y-14415000D01*
X7290000Y-6850000D02*
G75*
G02*
X6750200Y-6839623I-270000J0D01*
G01*
X22869920Y-11206583D02*
X22868500Y-11345000D01*
X25405000Y-14730000D02*
X23155000Y-14730000D01*
X25343500Y-5920000D02*
G75*
G02*
X25593500Y-6170000I0J-250000D01*
G01*
X4310000Y-14915000D02*
G75*
G02*
X4060000Y-14665000I0J250000D01*
G01*
X7290432Y-10005000D02*
G75*
G02*
X6770000Y-9990000I-260432J0D01*
G01*
D11*
X25437500Y-6270000D02*
G75*
G02*
X25182500Y-6270000I-127500J0D01*
G01*
X25182500Y-6270000D02*
G75*
G02*
X25437500Y-6270000I127500J0D01*
G01*
D10*
X7590000Y-14960000D02*
G75*
G02*
X7290000Y-14660000I0J300000D01*
G01*
D11*
X25437500Y-11270000D02*
G75*
G02*
X25182500Y-11270000I-127500J0D01*
G01*
X25182500Y-11270000D02*
G75*
G02*
X25437500Y-11270000I127500J0D01*
G01*
D10*
X22330000Y-11200000D02*
X22345000Y-12960000D01*
X22360050Y-13964999D02*
G75*
G02*
X22870048Y-13954899I255000J4999D01*
G01*
D11*
X6662500Y-10965000D02*
G75*
G02*
X6407500Y-10965000I-127500J0D01*
G01*
X6407500Y-10965000D02*
G75*
G02*
X6662500Y-10965000I127500J0D01*
G01*
D10*
X6775000Y-11000000D02*
X6770000Y-13030000D01*
X7269983Y-7839584D02*
X7290432Y-10005000D01*
X25405000Y-12155000D02*
G75*
G02*
X25655000Y-12405000I0J-250000D01*
G01*
X22875000Y-12960000D02*
G75*
G02*
X22345000Y-12960000I-265000J0D01*
G01*
X6770000Y-7860000D02*
G75*
G02*
X7269983Y-7839584I250000J10000D01*
G01*
X22330000Y-11200000D02*
G75*
G02*
X22869920Y-11206583I270000J0D01*
G01*
X7893836Y-6350000D02*
G75*
G02*
X7540000Y-6350000I-176918J0D01*
G01*
X7540000Y-6350000D02*
G75*
G02*
X7893836Y-6350000I176918J0D01*
G01*
X7590000Y-5920000D02*
X22030000Y-5920000D01*
X22905000Y-14480000D02*
X22870048Y-13954899D01*
X6770000Y-7860000D02*
X6770000Y-9990000D01*
X6260000Y-14915000D02*
X4310000Y-14915000D01*
X7251115Y-13035451D02*
G75*
G02*
X6769999Y-13030000I-240522J5867D01*
G01*
X6760000Y-6415000D02*
X6750200Y-6839623D01*
X22864975Y-10193838D02*
G75*
G02*
X22335000Y-10205000I-264976J-6162D01*
G01*
X22030000Y-14960000D02*
X7590000Y-14960000D01*
X7290092Y-14037165D02*
X7290000Y-14660000D01*
X22360050Y-13964999D02*
X22330000Y-14660000D01*
X6760000Y-14040000D02*
G75*
G02*
X7290092Y-14037165I265000J10000D01*
G01*
X3760000Y-5915000D02*
X6260000Y-5915000D01*
X6760000Y-14415000D02*
G75*
G02*
X6260000Y-14915000I-500000J0D01*
G01*
X7284219Y-11019939D02*
X7251115Y-13035451D01*
X3260000Y-13165000D02*
X3260000Y-6415000D01*
X3510000Y-13415000D02*
X3810000Y-13415000D01*
X23785000Y-11595000D02*
X23118500Y-11595000D01*
X22859768Y-6510308D02*
G75*
G02*
X22360000Y-6515000I-249768J-14692D01*
G01*
X22875000Y-12960000D02*
X22905000Y-12405000D01*
X22076918Y-6350000D02*
G75*
G02*
X21723082Y-6350000I-176918J0D01*
G01*
X21723082Y-6350000D02*
G75*
G02*
X22076918Y-6350000I176918J0D01*
G01*
X22905000Y-12405000D02*
G75*
G02*
X23155000Y-12155000I250000J0D01*
G01*
X22855000Y-7525000D02*
X22864975Y-10193838D01*
X22330000Y-14660000D02*
G75*
G02*
X22030000Y-14960000I-300000J0D01*
G01*
X3510000Y-13415000D02*
G75*
G02*
X3260000Y-13165000I0J250000D01*
G01*
X25655000Y-12405000D02*
X25655000Y-14480000D01*
X24785000Y-12125000D02*
X25405000Y-12155000D01*
D11*
X25232500Y-14380000D02*
G75*
G02*
X24977500Y-14380000I-127500J0D01*
G01*
X24977500Y-14380000D02*
G75*
G02*
X25232500Y-14380000I127500J0D01*
G01*
D10*
X7893836Y-14530000D02*
G75*
G02*
X7540000Y-14530000I-176918J0D01*
G01*
X7540000Y-14530000D02*
G75*
G02*
X7893836Y-14530000I176918J0D01*
G01*
X24785000Y-11605000D02*
X25343500Y-11595000D01*
D11*
X23432500Y-14380000D02*
G75*
G02*
X23177500Y-14380000I-127500J0D01*
G01*
X23177500Y-14380000D02*
G75*
G02*
X23432500Y-14380000I127500J0D01*
G01*
D10*
X25655000Y-14480000D02*
G75*
G02*
X25405000Y-14730000I-250000J0D01*
G01*
X23785000Y-11595000D02*
G75*
G02*
X23785000Y-12135000I0J-270000D01*
G01*
D11*
D12*
X6745000Y-6950000D02*
X6795000Y-7000000D01*
X6795000Y-6950000D02*
X6745000Y-7000000D01*
X6745000Y-7025000D02*
X6795000Y-7075000D01*
X6795000Y-7025000D02*
X6745000Y-7075000D01*
X6745000Y-7100000D02*
X6795000Y-7150000D01*
X6795000Y-7100000D02*
X6745000Y-7150000D01*
X6745000Y-7175000D02*
X6795000Y-7225000D01*
X6795000Y-7175000D02*
X6745000Y-7225000D01*
X6745000Y-7250000D02*
X6795000Y-7300000D01*
X6795000Y-7250000D02*
X6745000Y-7300000D01*
X6745000Y-7325000D02*
X6795000Y-7375000D01*
X6795000Y-7325000D02*
X6745000Y-7375000D01*
X6745000Y-7400000D02*
X6795000Y-7450000D01*
X6795000Y-7400000D02*
X6745000Y-7450000D01*
X6745000Y-7475000D02*
X6795000Y-7525000D01*
X6795000Y-7475000D02*
X6745000Y-7525000D01*
X6745000Y-7550000D02*
X6795000Y-7600000D01*
X6795000Y-7550000D02*
X6745000Y-7600000D01*
X6745000Y-7625000D02*
X6795000Y-7675000D01*
X6795000Y-7625000D02*
X6745000Y-7675000D01*
X6745000Y-7625000D02*
X6795000Y-7675000D01*
X6795000Y-7625000D02*
X6745000Y-7675000D01*
X6745000Y-7700000D02*
X6795000Y-7750000D01*
X6795000Y-7700000D02*
X6745000Y-7750000D01*
X6745000Y-13135000D02*
X6795000Y-13185000D01*
X6795000Y-13135000D02*
X6745000Y-13185000D01*
X6745000Y-13210000D02*
X6795000Y-13260000D01*
X6795000Y-13210000D02*
X6745000Y-13260000D01*
X6745000Y-13285000D02*
X6795000Y-13335000D01*
X6795000Y-13285000D02*
X6745000Y-13335000D01*
X6745000Y-13360000D02*
X6795000Y-13410000D01*
X6795000Y-13360000D02*
X6745000Y-13410000D01*
X6745000Y-13435000D02*
X6795000Y-13485000D01*
X6795000Y-13435000D02*
X6745000Y-13485000D01*
X6745000Y-13510000D02*
X6795000Y-13560000D01*
X6795000Y-13510000D02*
X6745000Y-13560000D01*
X6745000Y-13585000D02*
X6795000Y-13635000D01*
X6795000Y-13585000D02*
X6745000Y-13635000D01*
X6745000Y-13660000D02*
X6795000Y-13710000D01*
X6795000Y-13660000D02*
X6745000Y-13710000D01*
X6745000Y-13735000D02*
X6795000Y-13785000D01*
X6795000Y-13735000D02*
X6745000Y-13785000D01*
X6745000Y-13810000D02*
X6795000Y-13860000D01*
X6795000Y-13810000D02*
X6745000Y-13860000D01*
X6745000Y-13810000D02*
X6795000Y-13860000D01*
X6795000Y-13810000D02*
X6745000Y-13860000D01*
X6745000Y-13885000D02*
X6795000Y-13935000D01*
X6795000Y-13885000D02*
X6745000Y-13935000D01*
X6750000Y-10105000D02*
X6800000Y-10155000D01*
X6800000Y-10105000D02*
X6750000Y-10155000D01*
X6750000Y-10180000D02*
X6800000Y-10230000D01*
X6800000Y-10180000D02*
X6750000Y-10230000D01*
X6750000Y-10255000D02*
X6800000Y-10305000D01*
X6800000Y-10255000D02*
X6750000Y-10305000D01*
X6750000Y-10330000D02*
X6800000Y-10380000D01*
X6800000Y-10330000D02*
X6750000Y-10380000D01*
X6750000Y-10405000D02*
X6800000Y-10455000D01*
X6800000Y-10405000D02*
X6750000Y-10455000D01*
X6750000Y-10480000D02*
X6800000Y-10530000D01*
X6800000Y-10480000D02*
X6750000Y-10530000D01*
X6750000Y-10555000D02*
X6800000Y-10605000D01*
X6800000Y-10555000D02*
X6750000Y-10605000D01*
X6750000Y-10630000D02*
X6800000Y-10680000D01*
X6800000Y-10630000D02*
X6750000Y-10680000D01*
X6750000Y-10705000D02*
X6800000Y-10755000D01*
X6800000Y-10705000D02*
X6750000Y-10755000D01*
X6750000Y-10780000D02*
X6800000Y-10830000D01*
X6800000Y-10780000D02*
X6750000Y-10830000D01*
X6750000Y-10780000D02*
X6800000Y-10830000D01*
X6800000Y-10780000D02*
X6750000Y-10830000D01*
X6750000Y-10855000D02*
X6800000Y-10905000D01*
X6800000Y-10855000D02*
X6750000Y-10905000D01*
X7245000Y-6950000D02*
X7295000Y-7000000D01*
X7295000Y-6950000D02*
X7245000Y-7000000D01*
X7245000Y-7025000D02*
X7295000Y-7075000D01*
X7295000Y-7025000D02*
X7245000Y-7075000D01*
X7245000Y-7100000D02*
X7295000Y-7150000D01*
X7295000Y-7100000D02*
X7245000Y-7150000D01*
X7245000Y-7175000D02*
X7295000Y-7225000D01*
X7295000Y-7175000D02*
X7245000Y-7225000D01*
X7245000Y-7250000D02*
X7295000Y-7300000D01*
X7295000Y-7250000D02*
X7245000Y-7300000D01*
X7245000Y-7325000D02*
X7295000Y-7375000D01*
X7295000Y-7325000D02*
X7245000Y-7375000D01*
X7245000Y-7400000D02*
X7295000Y-7450000D01*
X7295000Y-7400000D02*
X7245000Y-7450000D01*
X7245000Y-7475000D02*
X7295000Y-7525000D01*
X7295000Y-7475000D02*
X7245000Y-7525000D01*
X7245000Y-7550000D02*
X7295000Y-7600000D01*
X7295000Y-7550000D02*
X7245000Y-7600000D01*
X7245000Y-7625000D02*
X7295000Y-7675000D01*
X7295000Y-7625000D02*
X7245000Y-7675000D01*
X7245000Y-7625000D02*
X7295000Y-7675000D01*
X7295000Y-7625000D02*
X7245000Y-7675000D01*
X7245000Y-7700000D02*
X7295000Y-7750000D01*
X7295000Y-7700000D02*
X7245000Y-7750000D01*
X7245000Y-13135000D02*
X7295000Y-13185000D01*
X7295000Y-13135000D02*
X7245000Y-13185000D01*
X7245000Y-13210000D02*
X7295000Y-13260000D01*
X7295000Y-13210000D02*
X7245000Y-13260000D01*
X7245000Y-13285000D02*
X7295000Y-13335000D01*
X7295000Y-13285000D02*
X7245000Y-13335000D01*
X7245000Y-13360000D02*
X7295000Y-13410000D01*
X7295000Y-13360000D02*
X7245000Y-13410000D01*
X7245000Y-13435000D02*
X7295000Y-13485000D01*
X7295000Y-13435000D02*
X7245000Y-13485000D01*
X7245000Y-13510000D02*
X7295000Y-13560000D01*
X7295000Y-13510000D02*
X7245000Y-13560000D01*
X7245000Y-13585000D02*
X7295000Y-13635000D01*
X7295000Y-13585000D02*
X7245000Y-13635000D01*
X7245000Y-13660000D02*
X7295000Y-13710000D01*
X7295000Y-13660000D02*
X7245000Y-13710000D01*
X7245000Y-13735000D02*
X7295000Y-13785000D01*
X7295000Y-13735000D02*
X7245000Y-13785000D01*
X7245000Y-13810000D02*
X7295000Y-13860000D01*
X7295000Y-13810000D02*
X7245000Y-13860000D01*
X7245000Y-13810000D02*
X7295000Y-13860000D01*
X7295000Y-13810000D02*
X7245000Y-13860000D01*
X7245000Y-13885000D02*
X7295000Y-13935000D01*
X7295000Y-13885000D02*
X7245000Y-13935000D01*
X7250000Y-10105000D02*
X7300000Y-10155000D01*
X7300000Y-10105000D02*
X7250000Y-10155000D01*
X7250000Y-10180000D02*
X7300000Y-10230000D01*
X7300000Y-10180000D02*
X7250000Y-10230000D01*
X7250000Y-10255000D02*
X7300000Y-10305000D01*
X7300000Y-10255000D02*
X7250000Y-10305000D01*
X7250000Y-10330000D02*
X7300000Y-10380000D01*
X7300000Y-10330000D02*
X7250000Y-10380000D01*
X7250000Y-10405000D02*
X7300000Y-10455000D01*
X7300000Y-10405000D02*
X7250000Y-10455000D01*
X7250000Y-10480000D02*
X7300000Y-10530000D01*
X7300000Y-10480000D02*
X7250000Y-10530000D01*
X7250000Y-10555000D02*
X7300000Y-10605000D01*
X7300000Y-10555000D02*
X7250000Y-10605000D01*
X7250000Y-10630000D02*
X7300000Y-10680000D01*
X7300000Y-10630000D02*
X7250000Y-10680000D01*
X7250000Y-10705000D02*
X7300000Y-10755000D01*
X7300000Y-10705000D02*
X7250000Y-10755000D01*
X7250000Y-10780000D02*
X7300000Y-10830000D01*
X7300000Y-10780000D02*
X7250000Y-10830000D01*
X7250000Y-10780000D02*
X7300000Y-10830000D01*
X7300000Y-10780000D02*
X7250000Y-10830000D01*
X7250000Y-10855000D02*
X7300000Y-10905000D01*
X7300000Y-10855000D02*
X7250000Y-10905000D01*
X22325000Y-10300000D02*
X22375000Y-10350000D01*
X22375000Y-10300000D02*
X22325000Y-10350000D01*
X22325000Y-10375000D02*
X22375000Y-10425000D01*
X22375000Y-10375000D02*
X22325000Y-10425000D01*
X22325000Y-10450000D02*
X22375000Y-10500000D01*
X22375000Y-10450000D02*
X22325000Y-10500000D01*
X22325000Y-10525000D02*
X22375000Y-10575000D01*
X22375000Y-10525000D02*
X22325000Y-10575000D01*
X22325000Y-10600000D02*
X22375000Y-10650000D01*
X22375000Y-10600000D02*
X22325000Y-10650000D01*
X22325000Y-10675000D02*
X22375000Y-10725000D01*
X22375000Y-10675000D02*
X22325000Y-10725000D01*
X22325000Y-10750000D02*
X22375000Y-10800000D01*
X22375000Y-10750000D02*
X22325000Y-10800000D01*
X22325000Y-10825000D02*
X22375000Y-10875000D01*
X22375000Y-10825000D02*
X22325000Y-10875000D01*
X22325000Y-10900000D02*
X22375000Y-10950000D01*
X22375000Y-10900000D02*
X22325000Y-10950000D01*
X22325000Y-10975000D02*
X22375000Y-11025000D01*
X22375000Y-10975000D02*
X22325000Y-11025000D01*
X22325000Y-10975000D02*
X22375000Y-11025000D01*
X22375000Y-10975000D02*
X22325000Y-11025000D01*
X22325000Y-11050000D02*
X22375000Y-11100000D01*
X22375000Y-11050000D02*
X22325000Y-11100000D01*
X22330000Y-6625000D02*
X22380000Y-6675000D01*
X22380000Y-6625000D02*
X22330000Y-6675000D01*
X22330000Y-6700000D02*
X22380000Y-6750000D01*
X22380000Y-6700000D02*
X22330000Y-6750000D01*
X22330000Y-6775000D02*
X22380000Y-6825000D01*
X22380000Y-6775000D02*
X22330000Y-6825000D01*
X22330000Y-6850000D02*
X22380000Y-6900000D01*
X22380000Y-6850000D02*
X22330000Y-6900000D01*
X22330000Y-6925000D02*
X22380000Y-6975000D01*
X22380000Y-6925000D02*
X22330000Y-6975000D01*
X22330000Y-7000000D02*
X22380000Y-7050000D01*
X22380000Y-7000000D02*
X22330000Y-7050000D01*
X22330000Y-7075000D02*
X22380000Y-7125000D01*
X22380000Y-7075000D02*
X22330000Y-7125000D01*
X22330000Y-7150000D02*
X22380000Y-7200000D01*
X22380000Y-7150000D02*
X22330000Y-7200000D01*
X22330000Y-7225000D02*
X22380000Y-7275000D01*
X22380000Y-7225000D02*
X22330000Y-7275000D01*
X22330000Y-7300000D02*
X22380000Y-7350000D01*
X22380000Y-7300000D02*
X22330000Y-7350000D01*
X22330000Y-7300000D02*
X22380000Y-7350000D01*
X22380000Y-7300000D02*
X22330000Y-7350000D01*
X22330000Y-7375000D02*
X22380000Y-7425000D01*
X22380000Y-7375000D02*
X22330000Y-7425000D01*
X22335000Y-13070000D02*
X22385000Y-13120000D01*
X22385000Y-13070000D02*
X22335000Y-13120000D01*
X22335000Y-13145000D02*
X22385000Y-13195000D01*
X22385000Y-13145000D02*
X22335000Y-13195000D01*
X22335000Y-13220000D02*
X22385000Y-13270000D01*
X22385000Y-13220000D02*
X22335000Y-13270000D01*
X22335000Y-13295000D02*
X22385000Y-13345000D01*
X22385000Y-13295000D02*
X22335000Y-13345000D01*
X22335000Y-13370000D02*
X22385000Y-13420000D01*
X22385000Y-13370000D02*
X22335000Y-13420000D01*
X22335000Y-13445000D02*
X22385000Y-13495000D01*
X22385000Y-13445000D02*
X22335000Y-13495000D01*
X22335000Y-13520000D02*
X22385000Y-13570000D01*
X22385000Y-13520000D02*
X22335000Y-13570000D01*
X22335000Y-13595000D02*
X22385000Y-13645000D01*
X22385000Y-13595000D02*
X22335000Y-13645000D01*
X22335000Y-13670000D02*
X22385000Y-13720000D01*
X22385000Y-13670000D02*
X22335000Y-13720000D01*
X22335000Y-13745000D02*
X22385000Y-13795000D01*
X22385000Y-13745000D02*
X22335000Y-13795000D01*
X22335000Y-13745000D02*
X22385000Y-13795000D01*
X22385000Y-13745000D02*
X22335000Y-13795000D01*
X22335000Y-13820000D02*
X22385000Y-13870000D01*
X22385000Y-13820000D02*
X22335000Y-13870000D01*
X22825000Y-10300000D02*
X22875000Y-10350000D01*
X22875000Y-10300000D02*
X22825000Y-10350000D01*
X22825000Y-10375000D02*
X22875000Y-10425000D01*
X22875000Y-10375000D02*
X22825000Y-10425000D01*
X22825000Y-10450000D02*
X22875000Y-10500000D01*
X22875000Y-10450000D02*
X22825000Y-10500000D01*
X22825000Y-10525000D02*
X22875000Y-10575000D01*
X22875000Y-10525000D02*
X22825000Y-10575000D01*
X22825000Y-10600000D02*
X22875000Y-10650000D01*
X22875000Y-10600000D02*
X22825000Y-10650000D01*
X22825000Y-10675000D02*
X22875000Y-10725000D01*
X22875000Y-10675000D02*
X22825000Y-10725000D01*
X22825000Y-10750000D02*
X22875000Y-10800000D01*
X22875000Y-10750000D02*
X22825000Y-10800000D01*
X22825000Y-10825000D02*
X22875000Y-10875000D01*
X22875000Y-10825000D02*
X22825000Y-10875000D01*
X22825000Y-10900000D02*
X22875000Y-10950000D01*
X22875000Y-10900000D02*
X22825000Y-10950000D01*
X22825000Y-10975000D02*
X22875000Y-11025000D01*
X22875000Y-10975000D02*
X22825000Y-11025000D01*
X22825000Y-10975000D02*
X22875000Y-11025000D01*
X22875000Y-10975000D02*
X22825000Y-11025000D01*
X22825000Y-11050000D02*
X22875000Y-11100000D01*
X22875000Y-11050000D02*
X22825000Y-11100000D01*
X22830000Y-6625000D02*
X22880000Y-6675000D01*
X22880000Y-6625000D02*
X22830000Y-6675000D01*
X22830000Y-6700000D02*
X22880000Y-6750000D01*
X22880000Y-6700000D02*
X22830000Y-6750000D01*
X22830000Y-6775000D02*
X22880000Y-6825000D01*
X22880000Y-6775000D02*
X22830000Y-6825000D01*
X22830000Y-6850000D02*
X22880000Y-6900000D01*
X22880000Y-6850000D02*
X22830000Y-6900000D01*
X22830000Y-6925000D02*
X22880000Y-6975000D01*
X22880000Y-6925000D02*
X22830000Y-6975000D01*
X22830000Y-7000000D02*
X22880000Y-7050000D01*
X22880000Y-7000000D02*
X22830000Y-7050000D01*
X22830000Y-7075000D02*
X22880000Y-7125000D01*
X22880000Y-7075000D02*
X22830000Y-7125000D01*
X22830000Y-7150000D02*
X22880000Y-7200000D01*
X22880000Y-7150000D02*
X22830000Y-7200000D01*
X22830000Y-7225000D02*
X22880000Y-7275000D01*
X22880000Y-7225000D02*
X22830000Y-7275000D01*
X22830000Y-7300000D02*
X22880000Y-7350000D01*
X22880000Y-7300000D02*
X22830000Y-7350000D01*
X22830000Y-7300000D02*
X22880000Y-7350000D01*
X22880000Y-7300000D02*
X22830000Y-7350000D01*
X22830000Y-7375000D02*
X22880000Y-7425000D01*
X22880000Y-7375000D02*
X22830000Y-7425000D01*
X22835000Y-13070000D02*
X22885000Y-13120000D01*
X22885000Y-13070000D02*
X22835000Y-13120000D01*
X22835000Y-13145000D02*
X22885000Y-13195000D01*
X22885000Y-13145000D02*
X22835000Y-13195000D01*
X22835000Y-13220000D02*
X22885000Y-13270000D01*
X22885000Y-13220000D02*
X22835000Y-13270000D01*
X22835000Y-13295000D02*
X22885000Y-13345000D01*
X22885000Y-13295000D02*
X22835000Y-13345000D01*
X22835000Y-13370000D02*
X22885000Y-13420000D01*
X22885000Y-13370000D02*
X22835000Y-13420000D01*
X22835000Y-13445000D02*
X22885000Y-13495000D01*
X22885000Y-13445000D02*
X22835000Y-13495000D01*
X22835000Y-13520000D02*
X22885000Y-13570000D01*
X22885000Y-13520000D02*
X22835000Y-13570000D01*
X22835000Y-13595000D02*
X22885000Y-13645000D01*
X22885000Y-13595000D02*
X22835000Y-13645000D01*
X22835000Y-13670000D02*
X22885000Y-13720000D01*
X22885000Y-13670000D02*
X22835000Y-13720000D01*
X22835000Y-13745000D02*
X22885000Y-13795000D01*
X22885000Y-13745000D02*
X22835000Y-13795000D01*
X22835000Y-13745000D02*
X22885000Y-13795000D01*
X22885000Y-13745000D02*
X22835000Y-13795000D01*
X22835000Y-13820000D02*
X22885000Y-13870000D01*
X22885000Y-13820000D02*
X22835000Y-13870000D01*
X23885000Y-11590000D02*
X23935000Y-11640000D01*
X23935000Y-11590000D02*
X23885000Y-11640000D01*
X23885000Y-12090000D02*
X23935000Y-12140000D01*
X23935000Y-12090000D02*
X23885000Y-12140000D01*
X23960000Y-11590000D02*
X24010000Y-11640000D01*
X24010000Y-11590000D02*
X23960000Y-11640000D01*
X23960000Y-12090000D02*
X24010000Y-12140000D01*
X24010000Y-12090000D02*
X23960000Y-12140000D01*
X24035000Y-11590000D02*
X24085000Y-11640000D01*
X24085000Y-11590000D02*
X24035000Y-11640000D01*
X24035000Y-12090000D02*
X24085000Y-12140000D01*
X24085000Y-12090000D02*
X24035000Y-12140000D01*
X24110000Y-11590000D02*
X24160000Y-11640000D01*
X24160000Y-11590000D02*
X24110000Y-11640000D01*
X24110000Y-12090000D02*
X24160000Y-12140000D01*
X24160000Y-12090000D02*
X24110000Y-12140000D01*
X24185000Y-11590000D02*
X24235000Y-11640000D01*
X24235000Y-11590000D02*
X24185000Y-11640000D01*
X24185000Y-12090000D02*
X24235000Y-12140000D01*
X24235000Y-12090000D02*
X24185000Y-12140000D01*
X24260000Y-11590000D02*
X24310000Y-11640000D01*
X24310000Y-11590000D02*
X24260000Y-11640000D01*
X24260000Y-12090000D02*
X24310000Y-12140000D01*
X24310000Y-12090000D02*
X24260000Y-12140000D01*
X24335000Y-11590000D02*
X24385000Y-11640000D01*
X24385000Y-11590000D02*
X24335000Y-11640000D01*
X24335000Y-12090000D02*
X24385000Y-12140000D01*
X24385000Y-12090000D02*
X24335000Y-12140000D01*
X24410000Y-11590000D02*
X24460000Y-11640000D01*
X24460000Y-11590000D02*
X24410000Y-11640000D01*
X24410000Y-12090000D02*
X24460000Y-12140000D01*
X24460000Y-12090000D02*
X24410000Y-12140000D01*
X24485000Y-11590000D02*
X24535000Y-11640000D01*
X24535000Y-11590000D02*
X24485000Y-11640000D01*
X24485000Y-12090000D02*
X24535000Y-12140000D01*
X24535000Y-12090000D02*
X24485000Y-12140000D01*
X24560000Y-11590000D02*
X24610000Y-11640000D01*
X24610000Y-11590000D02*
X24560000Y-11640000D01*
X24560000Y-11590000D02*
X24610000Y-11640000D01*
X24610000Y-11590000D02*
X24560000Y-11640000D01*
X24560000Y-12090000D02*
X24610000Y-12140000D01*
X24610000Y-12090000D02*
X24560000Y-12140000D01*
X24560000Y-12090000D02*
X24610000Y-12140000D01*
X24610000Y-12090000D02*
X24560000Y-12140000D01*
X24635000Y-11590000D02*
X24685000Y-11640000D01*
X24685000Y-11590000D02*
X24635000Y-11640000D01*
X24635000Y-12090000D02*
X24685000Y-12140000D01*
X24685000Y-12090000D02*
X24635000Y-12140000D01*
D11*
X3495777Y-15296484D02*
X3495777Y-15096484D01*
X3495777Y-15096484D02*
X3543396Y-15096484D01*
X3543396Y-15096484D02*
X3571967Y-15106008D01*
X3571967Y-15106008D02*
X3591015Y-15125055D01*
X3591015Y-15125055D02*
X3600539Y-15144103D01*
X3600539Y-15144103D02*
X3610062Y-15182198D01*
X3610062Y-15182198D02*
X3610062Y-15210769D01*
X3610062Y-15210769D02*
X3600539Y-15248865D01*
X3600539Y-15248865D02*
X3591015Y-15267912D01*
X3591015Y-15267912D02*
X3571967Y-15286960D01*
X3571967Y-15286960D02*
X3543396Y-15296484D01*
X3543396Y-15296484D02*
X3495777Y-15296484D01*
X3695777Y-15296484D02*
X3695777Y-15163150D01*
X3695777Y-15201246D02*
X3705301Y-15182198D01*
X3705301Y-15182198D02*
X3714824Y-15172674D01*
X3714824Y-15172674D02*
X3733872Y-15163150D01*
X3733872Y-15163150D02*
X3752920Y-15163150D01*
X3819586Y-15296484D02*
X3819586Y-15163150D01*
X3819586Y-15096484D02*
X3810062Y-15106008D01*
X3810062Y-15106008D02*
X3819586Y-15115531D01*
X3819586Y-15115531D02*
X3829110Y-15106008D01*
X3829110Y-15106008D02*
X3819586Y-15096484D01*
X3819586Y-15096484D02*
X3819586Y-15115531D01*
X3943396Y-15296484D02*
X3924348Y-15286960D01*
X3924348Y-15286960D02*
X3914824Y-15267912D01*
X3914824Y-15267912D02*
X3914824Y-15096484D01*
X4048158Y-15296484D02*
X4029110Y-15286960D01*
X4029110Y-15286960D02*
X4019586Y-15267912D01*
X4019586Y-15267912D02*
X4019586Y-15096484D01*
X4276729Y-15296484D02*
X4276729Y-15096484D01*
X4276729Y-15096484D02*
X4343396Y-15239341D01*
X4343396Y-15239341D02*
X4410063Y-15096484D01*
X4410063Y-15096484D02*
X4410063Y-15296484D01*
X4591015Y-15296484D02*
X4591015Y-15191722D01*
X4591015Y-15191722D02*
X4581491Y-15172674D01*
X4581491Y-15172674D02*
X4562444Y-15163150D01*
X4562444Y-15163150D02*
X4524348Y-15163150D01*
X4524348Y-15163150D02*
X4505301Y-15172674D01*
X4591015Y-15286960D02*
X4571967Y-15296484D01*
X4571967Y-15296484D02*
X4524348Y-15296484D01*
X4524348Y-15296484D02*
X4505301Y-15286960D01*
X4505301Y-15286960D02*
X4495777Y-15267912D01*
X4495777Y-15267912D02*
X4495777Y-15248865D01*
X4495777Y-15248865D02*
X4505301Y-15229817D01*
X4505301Y-15229817D02*
X4524348Y-15220293D01*
X4524348Y-15220293D02*
X4571967Y-15220293D01*
X4571967Y-15220293D02*
X4591015Y-15210769D01*
X4686253Y-15163150D02*
X4686253Y-15363150D01*
X4686253Y-15172674D02*
X4705301Y-15163150D01*
X4705301Y-15163150D02*
X4743396Y-15163150D01*
X4743396Y-15163150D02*
X4762444Y-15172674D01*
X4762444Y-15172674D02*
X4771967Y-15182198D01*
X4771967Y-15182198D02*
X4781491Y-15201246D01*
X4781491Y-15201246D02*
X4781491Y-15258388D01*
X4781491Y-15258388D02*
X4771967Y-15277436D01*
X4771967Y-15277436D02*
X4762444Y-15286960D01*
X4762444Y-15286960D02*
X4743396Y-15296484D01*
X4743396Y-15296484D02*
X4705301Y-15296484D01*
X4705301Y-15296484D02*
X4686253Y-15286960D01*
X4867205Y-15277436D02*
X4876729Y-15286960D01*
X4876729Y-15286960D02*
X4867205Y-15296484D01*
X4867205Y-15296484D02*
X4857682Y-15286960D01*
X4857682Y-15286960D02*
X4867205Y-15277436D01*
X4867205Y-15277436D02*
X4867205Y-15296484D01*
X4867205Y-15172674D02*
X4876729Y-15182198D01*
X4876729Y-15182198D02*
X4867205Y-15191722D01*
X4867205Y-15191722D02*
X4857682Y-15182198D01*
X4857682Y-15182198D02*
X4867205Y-15172674D01*
X4867205Y-15172674D02*
X4867205Y-15191722D01*
D12*
X3185000Y-15600000D02*
X3235000Y-15650000D01*
X3235000Y-15600000D02*
X3185000Y-15650000D01*
D11*
X3533872Y-15516484D02*
X3552920Y-15516484D01*
X3552920Y-15516484D02*
X3571967Y-15526008D01*
X3571967Y-15526008D02*
X3581491Y-15535531D01*
X3581491Y-15535531D02*
X3591015Y-15554579D01*
X3591015Y-15554579D02*
X3600539Y-15592674D01*
X3600539Y-15592674D02*
X3600539Y-15640293D01*
X3600539Y-15640293D02*
X3591015Y-15678388D01*
X3591015Y-15678388D02*
X3581491Y-15697436D01*
X3581491Y-15697436D02*
X3571967Y-15706960D01*
X3571967Y-15706960D02*
X3552920Y-15716484D01*
X3552920Y-15716484D02*
X3533872Y-15716484D01*
X3533872Y-15716484D02*
X3514824Y-15706960D01*
X3514824Y-15706960D02*
X3505301Y-15697436D01*
X3505301Y-15697436D02*
X3495777Y-15678388D01*
X3495777Y-15678388D02*
X3486253Y-15640293D01*
X3486253Y-15640293D02*
X3486253Y-15592674D01*
X3486253Y-15592674D02*
X3495777Y-15554579D01*
X3495777Y-15554579D02*
X3505301Y-15535531D01*
X3505301Y-15535531D02*
X3514824Y-15526008D01*
X3514824Y-15526008D02*
X3533872Y-15516484D01*
X3686253Y-15697436D02*
X3695777Y-15706960D01*
X3695777Y-15706960D02*
X3686253Y-15716484D01*
X3686253Y-15716484D02*
X3676729Y-15706960D01*
X3676729Y-15706960D02*
X3686253Y-15697436D01*
X3686253Y-15697436D02*
X3686253Y-15716484D01*
X3876729Y-15516484D02*
X3781491Y-15516484D01*
X3781491Y-15516484D02*
X3771967Y-15611722D01*
X3771967Y-15611722D02*
X3781491Y-15602198D01*
X3781491Y-15602198D02*
X3800539Y-15592674D01*
X3800539Y-15592674D02*
X3848158Y-15592674D01*
X3848158Y-15592674D02*
X3867205Y-15602198D01*
X3867205Y-15602198D02*
X3876729Y-15611722D01*
X3876729Y-15611722D02*
X3886253Y-15630769D01*
X3886253Y-15630769D02*
X3886253Y-15678388D01*
X3886253Y-15678388D02*
X3876729Y-15697436D01*
X3876729Y-15697436D02*
X3867205Y-15706960D01*
X3867205Y-15706960D02*
X3848158Y-15716484D01*
X3848158Y-15716484D02*
X3800539Y-15716484D01*
X3800539Y-15716484D02*
X3781491Y-15706960D01*
X3781491Y-15706960D02*
X3771967Y-15697436D01*
X4010062Y-15516484D02*
X4029110Y-15516484D01*
X4029110Y-15516484D02*
X4048158Y-15526008D01*
X4048158Y-15526008D02*
X4057682Y-15535531D01*
X4057682Y-15535531D02*
X4067205Y-15554579D01*
X4067205Y-15554579D02*
X4076729Y-15592674D01*
X4076729Y-15592674D02*
X4076729Y-15640293D01*
X4076729Y-15640293D02*
X4067205Y-15678388D01*
X4067205Y-15678388D02*
X4057682Y-15697436D01*
X4057682Y-15697436D02*
X4048158Y-15706960D01*
X4048158Y-15706960D02*
X4029110Y-15716484D01*
X4029110Y-15716484D02*
X4010062Y-15716484D01*
X4010062Y-15716484D02*
X3991015Y-15706960D01*
X3991015Y-15706960D02*
X3981491Y-15697436D01*
X3981491Y-15697436D02*
X3971967Y-15678388D01*
X3971967Y-15678388D02*
X3962443Y-15640293D01*
X3962443Y-15640293D02*
X3962443Y-15592674D01*
X3962443Y-15592674D02*
X3971967Y-15554579D01*
X3971967Y-15554579D02*
X3981491Y-15535531D01*
X3981491Y-15535531D02*
X3991015Y-15526008D01*
X3991015Y-15526008D02*
X4010062Y-15516484D01*
X4200539Y-15516484D02*
X4219586Y-15516484D01*
X4219586Y-15516484D02*
X4238634Y-15526008D01*
X4238634Y-15526008D02*
X4248158Y-15535531D01*
X4248158Y-15535531D02*
X4257682Y-15554579D01*
X4257682Y-15554579D02*
X4267205Y-15592674D01*
X4267205Y-15592674D02*
X4267205Y-15640293D01*
X4267205Y-15640293D02*
X4257682Y-15678388D01*
X4257682Y-15678388D02*
X4248158Y-15697436D01*
X4248158Y-15697436D02*
X4238634Y-15706960D01*
X4238634Y-15706960D02*
X4219586Y-15716484D01*
X4219586Y-15716484D02*
X4200539Y-15716484D01*
X4200539Y-15716484D02*
X4181491Y-15706960D01*
X4181491Y-15706960D02*
X4171967Y-15697436D01*
X4171967Y-15697436D02*
X4162443Y-15678388D01*
X4162443Y-15678388D02*
X4152920Y-15640293D01*
X4152920Y-15640293D02*
X4152920Y-15592674D01*
X4152920Y-15592674D02*
X4162443Y-15554579D01*
X4162443Y-15554579D02*
X4171967Y-15535531D01*
X4171967Y-15535531D02*
X4181491Y-15526008D01*
X4181491Y-15526008D02*
X4200539Y-15516484D01*
X4352920Y-15716484D02*
X4352920Y-15583150D01*
X4352920Y-15602198D02*
X4362444Y-15592674D01*
X4362444Y-15592674D02*
X4381491Y-15583150D01*
X4381491Y-15583150D02*
X4410063Y-15583150D01*
X4410063Y-15583150D02*
X4429110Y-15592674D01*
X4429110Y-15592674D02*
X4438634Y-15611722D01*
X4438634Y-15611722D02*
X4438634Y-15716484D01*
X4438634Y-15611722D02*
X4448158Y-15592674D01*
X4448158Y-15592674D02*
X4467205Y-15583150D01*
X4467205Y-15583150D02*
X4495777Y-15583150D01*
X4495777Y-15583150D02*
X4514825Y-15592674D01*
X4514825Y-15592674D02*
X4524348Y-15611722D01*
X4524348Y-15611722D02*
X4524348Y-15716484D01*
X4619586Y-15716484D02*
X4619586Y-15583150D01*
X4619586Y-15602198D02*
X4629110Y-15592674D01*
X4629110Y-15592674D02*
X4648158Y-15583150D01*
X4648158Y-15583150D02*
X4676729Y-15583150D01*
X4676729Y-15583150D02*
X4695777Y-15592674D01*
X4695777Y-15592674D02*
X4705301Y-15611722D01*
X4705301Y-15611722D02*
X4705301Y-15716484D01*
X4705301Y-15611722D02*
X4714825Y-15592674D01*
X4714825Y-15592674D02*
X4733872Y-15583150D01*
X4733872Y-15583150D02*
X4762444Y-15583150D01*
X4762444Y-15583150D02*
X4781491Y-15592674D01*
X4781491Y-15592674D02*
X4791015Y-15611722D01*
X4791015Y-15611722D02*
X4791015Y-15716484D01*
X5181491Y-15506960D02*
X5010063Y-15764103D01*
X5438634Y-15516484D02*
X5457682Y-15516484D01*
X5457682Y-15516484D02*
X5476729Y-15526008D01*
X5476729Y-15526008D02*
X5486253Y-15535531D01*
X5486253Y-15535531D02*
X5495777Y-15554579D01*
X5495777Y-15554579D02*
X5505301Y-15592674D01*
X5505301Y-15592674D02*
X5505301Y-15640293D01*
X5505301Y-15640293D02*
X5495777Y-15678388D01*
X5495777Y-15678388D02*
X5486253Y-15697436D01*
X5486253Y-15697436D02*
X5476729Y-15706960D01*
X5476729Y-15706960D02*
X5457682Y-15716484D01*
X5457682Y-15716484D02*
X5438634Y-15716484D01*
X5438634Y-15716484D02*
X5419587Y-15706960D01*
X5419587Y-15706960D02*
X5410063Y-15697436D01*
X5410063Y-15697436D02*
X5400539Y-15678388D01*
X5400539Y-15678388D02*
X5391015Y-15640293D01*
X5391015Y-15640293D02*
X5391015Y-15592674D01*
X5391015Y-15592674D02*
X5400539Y-15554579D01*
X5400539Y-15554579D02*
X5410063Y-15535531D01*
X5410063Y-15535531D02*
X5419587Y-15526008D01*
X5419587Y-15526008D02*
X5438634Y-15516484D01*
X5591015Y-15697436D02*
X5600539Y-15706960D01*
X5600539Y-15706960D02*
X5591015Y-15716484D01*
X5591015Y-15716484D02*
X5581491Y-15706960D01*
X5581491Y-15706960D02*
X5591015Y-15697436D01*
X5591015Y-15697436D02*
X5591015Y-15716484D01*
X5724348Y-15516484D02*
X5743396Y-15516484D01*
X5743396Y-15516484D02*
X5762444Y-15526008D01*
X5762444Y-15526008D02*
X5771967Y-15535531D01*
X5771967Y-15535531D02*
X5781491Y-15554579D01*
X5781491Y-15554579D02*
X5791015Y-15592674D01*
X5791015Y-15592674D02*
X5791015Y-15640293D01*
X5791015Y-15640293D02*
X5781491Y-15678388D01*
X5781491Y-15678388D02*
X5771967Y-15697436D01*
X5771967Y-15697436D02*
X5762444Y-15706960D01*
X5762444Y-15706960D02*
X5743396Y-15716484D01*
X5743396Y-15716484D02*
X5724348Y-15716484D01*
X5724348Y-15716484D02*
X5705301Y-15706960D01*
X5705301Y-15706960D02*
X5695777Y-15697436D01*
X5695777Y-15697436D02*
X5686253Y-15678388D01*
X5686253Y-15678388D02*
X5676729Y-15640293D01*
X5676729Y-15640293D02*
X5676729Y-15592674D01*
X5676729Y-15592674D02*
X5686253Y-15554579D01*
X5686253Y-15554579D02*
X5695777Y-15535531D01*
X5695777Y-15535531D02*
X5705301Y-15526008D01*
X5705301Y-15526008D02*
X5724348Y-15516484D01*
X5981491Y-15716484D02*
X5867206Y-15716484D01*
X5924348Y-15716484D02*
X5924348Y-15516484D01*
X5924348Y-15516484D02*
X5905301Y-15545055D01*
X5905301Y-15545055D02*
X5886253Y-15564103D01*
X5886253Y-15564103D02*
X5867206Y-15573627D01*
X6076729Y-15716484D02*
X6114825Y-15716484D01*
X6114825Y-15716484D02*
X6133872Y-15706960D01*
X6133872Y-15706960D02*
X6143396Y-15697436D01*
X6143396Y-15697436D02*
X6162444Y-15668865D01*
X6162444Y-15668865D02*
X6171967Y-15630769D01*
X6171967Y-15630769D02*
X6171967Y-15554579D01*
X6171967Y-15554579D02*
X6162444Y-15535531D01*
X6162444Y-15535531D02*
X6152920Y-15526008D01*
X6152920Y-15526008D02*
X6133872Y-15516484D01*
X6133872Y-15516484D02*
X6095777Y-15516484D01*
X6095777Y-15516484D02*
X6076729Y-15526008D01*
X6076729Y-15526008D02*
X6067206Y-15535531D01*
X6067206Y-15535531D02*
X6057682Y-15554579D01*
X6057682Y-15554579D02*
X6057682Y-15602198D01*
X6057682Y-15602198D02*
X6067206Y-15621246D01*
X6067206Y-15621246D02*
X6076729Y-15630769D01*
X6076729Y-15630769D02*
X6095777Y-15640293D01*
X6095777Y-15640293D02*
X6133872Y-15640293D01*
X6133872Y-15640293D02*
X6152920Y-15630769D01*
X6152920Y-15630769D02*
X6162444Y-15621246D01*
X6162444Y-15621246D02*
X6171967Y-15602198D01*
X6238634Y-15516484D02*
X6371967Y-15516484D01*
X6371967Y-15516484D02*
X6286253Y-15716484D01*
X6438634Y-15516484D02*
X6438634Y-15554579D01*
X6514825Y-15516484D02*
X6514825Y-15554579D01*
X6810063Y-15792674D02*
X6800539Y-15783150D01*
X6800539Y-15783150D02*
X6781491Y-15754579D01*
X6781491Y-15754579D02*
X6771968Y-15735531D01*
X6771968Y-15735531D02*
X6762444Y-15706960D01*
X6762444Y-15706960D02*
X6752920Y-15659341D01*
X6752920Y-15659341D02*
X6752920Y-15621246D01*
X6752920Y-15621246D02*
X6762444Y-15573627D01*
X6762444Y-15573627D02*
X6771968Y-15545055D01*
X6771968Y-15545055D02*
X6781491Y-15526008D01*
X6781491Y-15526008D02*
X6800539Y-15497436D01*
X6800539Y-15497436D02*
X6810063Y-15487912D01*
X6991015Y-15716484D02*
X6876729Y-15716484D01*
X6933872Y-15716484D02*
X6933872Y-15516484D01*
X6933872Y-15516484D02*
X6914825Y-15545055D01*
X6914825Y-15545055D02*
X6895777Y-15564103D01*
X6895777Y-15564103D02*
X6876729Y-15573627D01*
X7162444Y-15516484D02*
X7124348Y-15516484D01*
X7124348Y-15516484D02*
X7105301Y-15526008D01*
X7105301Y-15526008D02*
X7095777Y-15535531D01*
X7095777Y-15535531D02*
X7076729Y-15564103D01*
X7076729Y-15564103D02*
X7067206Y-15602198D01*
X7067206Y-15602198D02*
X7067206Y-15678388D01*
X7067206Y-15678388D02*
X7076729Y-15697436D01*
X7076729Y-15697436D02*
X7086253Y-15706960D01*
X7086253Y-15706960D02*
X7105301Y-15716484D01*
X7105301Y-15716484D02*
X7143396Y-15716484D01*
X7143396Y-15716484D02*
X7162444Y-15706960D01*
X7162444Y-15706960D02*
X7171968Y-15697436D01*
X7171968Y-15697436D02*
X7181491Y-15678388D01*
X7181491Y-15678388D02*
X7181491Y-15630769D01*
X7181491Y-15630769D02*
X7171968Y-15611722D01*
X7171968Y-15611722D02*
X7162444Y-15602198D01*
X7162444Y-15602198D02*
X7143396Y-15592674D01*
X7143396Y-15592674D02*
X7105301Y-15592674D01*
X7105301Y-15592674D02*
X7086253Y-15602198D01*
X7086253Y-15602198D02*
X7076729Y-15611722D01*
X7076729Y-15611722D02*
X7067206Y-15630769D01*
X7295777Y-15602198D02*
X7276729Y-15592674D01*
X7276729Y-15592674D02*
X7267206Y-15583150D01*
X7267206Y-15583150D02*
X7257682Y-15564103D01*
X7257682Y-15564103D02*
X7257682Y-15554579D01*
X7257682Y-15554579D02*
X7267206Y-15535531D01*
X7267206Y-15535531D02*
X7276729Y-15526008D01*
X7276729Y-15526008D02*
X7295777Y-15516484D01*
X7295777Y-15516484D02*
X7333872Y-15516484D01*
X7333872Y-15516484D02*
X7352920Y-15526008D01*
X7352920Y-15526008D02*
X7362444Y-15535531D01*
X7362444Y-15535531D02*
X7371968Y-15554579D01*
X7371968Y-15554579D02*
X7371968Y-15564103D01*
X7371968Y-15564103D02*
X7362444Y-15583150D01*
X7362444Y-15583150D02*
X7352920Y-15592674D01*
X7352920Y-15592674D02*
X7333872Y-15602198D01*
X7333872Y-15602198D02*
X7295777Y-15602198D01*
X7295777Y-15602198D02*
X7276729Y-15611722D01*
X7276729Y-15611722D02*
X7267206Y-15621246D01*
X7267206Y-15621246D02*
X7257682Y-15640293D01*
X7257682Y-15640293D02*
X7257682Y-15678388D01*
X7257682Y-15678388D02*
X7267206Y-15697436D01*
X7267206Y-15697436D02*
X7276729Y-15706960D01*
X7276729Y-15706960D02*
X7295777Y-15716484D01*
X7295777Y-15716484D02*
X7333872Y-15716484D01*
X7333872Y-15716484D02*
X7352920Y-15706960D01*
X7352920Y-15706960D02*
X7362444Y-15697436D01*
X7362444Y-15697436D02*
X7371968Y-15678388D01*
X7371968Y-15678388D02*
X7371968Y-15640293D01*
X7371968Y-15640293D02*
X7362444Y-15621246D01*
X7362444Y-15621246D02*
X7352920Y-15611722D01*
X7352920Y-15611722D02*
X7333872Y-15602198D01*
X7610063Y-15716484D02*
X7610063Y-15516484D01*
X7695777Y-15716484D02*
X7695777Y-15611722D01*
X7695777Y-15611722D02*
X7686253Y-15592674D01*
X7686253Y-15592674D02*
X7667206Y-15583150D01*
X7667206Y-15583150D02*
X7638634Y-15583150D01*
X7638634Y-15583150D02*
X7619587Y-15592674D01*
X7619587Y-15592674D02*
X7610063Y-15602198D01*
X7819587Y-15716484D02*
X7800539Y-15706960D01*
X7800539Y-15706960D02*
X7791015Y-15697436D01*
X7791015Y-15697436D02*
X7781491Y-15678388D01*
X7781491Y-15678388D02*
X7781491Y-15621246D01*
X7781491Y-15621246D02*
X7791015Y-15602198D01*
X7791015Y-15602198D02*
X7800539Y-15592674D01*
X7800539Y-15592674D02*
X7819587Y-15583150D01*
X7819587Y-15583150D02*
X7848158Y-15583150D01*
X7848158Y-15583150D02*
X7867206Y-15592674D01*
X7867206Y-15592674D02*
X7876730Y-15602198D01*
X7876730Y-15602198D02*
X7886253Y-15621246D01*
X7886253Y-15621246D02*
X7886253Y-15678388D01*
X7886253Y-15678388D02*
X7876730Y-15697436D01*
X7876730Y-15697436D02*
X7867206Y-15706960D01*
X7867206Y-15706960D02*
X7848158Y-15716484D01*
X7848158Y-15716484D02*
X7819587Y-15716484D01*
X8000539Y-15716484D02*
X7981491Y-15706960D01*
X7981491Y-15706960D02*
X7971968Y-15687912D01*
X7971968Y-15687912D02*
X7971968Y-15516484D01*
X8152920Y-15706960D02*
X8133872Y-15716484D01*
X8133872Y-15716484D02*
X8095777Y-15716484D01*
X8095777Y-15716484D02*
X8076730Y-15706960D01*
X8076730Y-15706960D02*
X8067206Y-15687912D01*
X8067206Y-15687912D02*
X8067206Y-15611722D01*
X8067206Y-15611722D02*
X8076730Y-15592674D01*
X8076730Y-15592674D02*
X8095777Y-15583150D01*
X8095777Y-15583150D02*
X8133872Y-15583150D01*
X8133872Y-15583150D02*
X8152920Y-15592674D01*
X8152920Y-15592674D02*
X8162444Y-15611722D01*
X8162444Y-15611722D02*
X8162444Y-15630769D01*
X8162444Y-15630769D02*
X8067206Y-15649817D01*
X8238634Y-15706960D02*
X8257682Y-15716484D01*
X8257682Y-15716484D02*
X8295777Y-15716484D01*
X8295777Y-15716484D02*
X8314825Y-15706960D01*
X8314825Y-15706960D02*
X8324349Y-15687912D01*
X8324349Y-15687912D02*
X8324349Y-15678388D01*
X8324349Y-15678388D02*
X8314825Y-15659341D01*
X8314825Y-15659341D02*
X8295777Y-15649817D01*
X8295777Y-15649817D02*
X8267206Y-15649817D01*
X8267206Y-15649817D02*
X8248158Y-15640293D01*
X8248158Y-15640293D02*
X8238634Y-15621246D01*
X8238634Y-15621246D02*
X8238634Y-15611722D01*
X8238634Y-15611722D02*
X8248158Y-15592674D01*
X8248158Y-15592674D02*
X8267206Y-15583150D01*
X8267206Y-15583150D02*
X8295777Y-15583150D01*
X8295777Y-15583150D02*
X8314825Y-15592674D01*
X8391015Y-15792674D02*
X8400539Y-15783150D01*
X8400539Y-15783150D02*
X8419587Y-15754579D01*
X8419587Y-15754579D02*
X8429111Y-15735531D01*
X8429111Y-15735531D02*
X8438634Y-15706960D01*
X8438634Y-15706960D02*
X8448158Y-15659341D01*
X8448158Y-15659341D02*
X8448158Y-15621246D01*
X8448158Y-15621246D02*
X8438634Y-15573627D01*
X8438634Y-15573627D02*
X8429111Y-15545055D01*
X8429111Y-15545055D02*
X8419587Y-15526008D01*
X8419587Y-15526008D02*
X8400539Y-15497436D01*
X8400539Y-15497436D02*
X8391015Y-15487912D01*
X8752920Y-15792674D02*
X8743396Y-15783150D01*
X8743396Y-15783150D02*
X8724349Y-15754579D01*
X8724349Y-15754579D02*
X8714825Y-15735531D01*
X8714825Y-15735531D02*
X8705301Y-15706960D01*
X8705301Y-15706960D02*
X8695777Y-15659341D01*
X8695777Y-15659341D02*
X8695777Y-15621246D01*
X8695777Y-15621246D02*
X8705301Y-15573627D01*
X8705301Y-15573627D02*
X8714825Y-15545055D01*
X8714825Y-15545055D02*
X8724349Y-15526008D01*
X8724349Y-15526008D02*
X8743396Y-15497436D01*
X8743396Y-15497436D02*
X8752920Y-15487912D01*
X8829111Y-15583150D02*
X8829111Y-15716484D01*
X8829111Y-15602198D02*
X8838634Y-15592674D01*
X8838634Y-15592674D02*
X8857682Y-15583150D01*
X8857682Y-15583150D02*
X8886254Y-15583150D01*
X8886254Y-15583150D02*
X8905301Y-15592674D01*
X8905301Y-15592674D02*
X8914825Y-15611722D01*
X8914825Y-15611722D02*
X8914825Y-15716484D01*
X9038634Y-15716484D02*
X9019587Y-15706960D01*
X9019587Y-15706960D02*
X9010063Y-15697436D01*
X9010063Y-15697436D02*
X9000539Y-15678388D01*
X9000539Y-15678388D02*
X9000539Y-15621246D01*
X9000539Y-15621246D02*
X9010063Y-15602198D01*
X9010063Y-15602198D02*
X9019587Y-15592674D01*
X9019587Y-15592674D02*
X9038634Y-15583150D01*
X9038634Y-15583150D02*
X9067206Y-15583150D01*
X9067206Y-15583150D02*
X9086254Y-15592674D01*
X9086254Y-15592674D02*
X9095777Y-15602198D01*
X9095777Y-15602198D02*
X9105301Y-15621246D01*
X9105301Y-15621246D02*
X9105301Y-15678388D01*
X9105301Y-15678388D02*
X9095777Y-15697436D01*
X9095777Y-15697436D02*
X9086254Y-15706960D01*
X9086254Y-15706960D02*
X9067206Y-15716484D01*
X9067206Y-15716484D02*
X9038634Y-15716484D01*
X9162444Y-15583150D02*
X9238634Y-15583150D01*
X9191015Y-15516484D02*
X9191015Y-15687912D01*
X9191015Y-15687912D02*
X9200539Y-15706960D01*
X9200539Y-15706960D02*
X9219587Y-15716484D01*
X9219587Y-15716484D02*
X9238634Y-15716484D01*
X9457682Y-15583150D02*
X9457682Y-15783150D01*
X9457682Y-15592674D02*
X9476730Y-15583150D01*
X9476730Y-15583150D02*
X9514825Y-15583150D01*
X9514825Y-15583150D02*
X9533873Y-15592674D01*
X9533873Y-15592674D02*
X9543396Y-15602198D01*
X9543396Y-15602198D02*
X9552920Y-15621246D01*
X9552920Y-15621246D02*
X9552920Y-15678388D01*
X9552920Y-15678388D02*
X9543396Y-15697436D01*
X9543396Y-15697436D02*
X9533873Y-15706960D01*
X9533873Y-15706960D02*
X9514825Y-15716484D01*
X9514825Y-15716484D02*
X9476730Y-15716484D01*
X9476730Y-15716484D02*
X9457682Y-15706960D01*
X9667206Y-15716484D02*
X9648158Y-15706960D01*
X9648158Y-15706960D02*
X9638635Y-15687912D01*
X9638635Y-15687912D02*
X9638635Y-15516484D01*
X9829111Y-15716484D02*
X9829111Y-15611722D01*
X9829111Y-15611722D02*
X9819587Y-15592674D01*
X9819587Y-15592674D02*
X9800539Y-15583150D01*
X9800539Y-15583150D02*
X9762444Y-15583150D01*
X9762444Y-15583150D02*
X9743396Y-15592674D01*
X9829111Y-15706960D02*
X9810063Y-15716484D01*
X9810063Y-15716484D02*
X9762444Y-15716484D01*
X9762444Y-15716484D02*
X9743396Y-15706960D01*
X9743396Y-15706960D02*
X9733873Y-15687912D01*
X9733873Y-15687912D02*
X9733873Y-15668865D01*
X9733873Y-15668865D02*
X9743396Y-15649817D01*
X9743396Y-15649817D02*
X9762444Y-15640293D01*
X9762444Y-15640293D02*
X9810063Y-15640293D01*
X9810063Y-15640293D02*
X9829111Y-15630769D01*
X9895777Y-15583150D02*
X9971968Y-15583150D01*
X9924349Y-15516484D02*
X9924349Y-15687912D01*
X9924349Y-15687912D02*
X9933873Y-15706960D01*
X9933873Y-15706960D02*
X9952920Y-15716484D01*
X9952920Y-15716484D02*
X9971968Y-15716484D01*
X10114825Y-15706960D02*
X10095777Y-15716484D01*
X10095777Y-15716484D02*
X10057682Y-15716484D01*
X10057682Y-15716484D02*
X10038635Y-15706960D01*
X10038635Y-15706960D02*
X10029111Y-15687912D01*
X10029111Y-15687912D02*
X10029111Y-15611722D01*
X10029111Y-15611722D02*
X10038635Y-15592674D01*
X10038635Y-15592674D02*
X10057682Y-15583150D01*
X10057682Y-15583150D02*
X10095777Y-15583150D01*
X10095777Y-15583150D02*
X10114825Y-15592674D01*
X10114825Y-15592674D02*
X10124349Y-15611722D01*
X10124349Y-15611722D02*
X10124349Y-15630769D01*
X10124349Y-15630769D02*
X10029111Y-15649817D01*
X10295777Y-15716484D02*
X10295777Y-15516484D01*
X10295777Y-15706960D02*
X10276730Y-15716484D01*
X10276730Y-15716484D02*
X10238635Y-15716484D01*
X10238635Y-15716484D02*
X10219587Y-15706960D01*
X10219587Y-15706960D02*
X10210063Y-15697436D01*
X10210063Y-15697436D02*
X10200539Y-15678388D01*
X10200539Y-15678388D02*
X10200539Y-15621246D01*
X10200539Y-15621246D02*
X10210063Y-15602198D01*
X10210063Y-15602198D02*
X10219587Y-15592674D01*
X10219587Y-15592674D02*
X10238635Y-15583150D01*
X10238635Y-15583150D02*
X10276730Y-15583150D01*
X10276730Y-15583150D02*
X10295777Y-15592674D01*
X10371968Y-15792674D02*
X10381492Y-15783150D01*
X10381492Y-15783150D02*
X10400539Y-15754579D01*
X10400539Y-15754579D02*
X10410063Y-15735531D01*
X10410063Y-15735531D02*
X10419587Y-15706960D01*
X10419587Y-15706960D02*
X10429111Y-15659341D01*
X10429111Y-15659341D02*
X10429111Y-15621246D01*
X10429111Y-15621246D02*
X10419587Y-15573627D01*
X10419587Y-15573627D02*
X10410063Y-15545055D01*
X10410063Y-15545055D02*
X10400539Y-15526008D01*
X10400539Y-15526008D02*
X10381492Y-15497436D01*
X10381492Y-15497436D02*
X10371968Y-15487912D01*
M02*
