%TF.GenerationSoftware,KiCad,Pcbnew,8.0.7*%
%TF.CreationDate,2025-06-17T16:53:55+08:00*%
%TF.ProjectId,TT_0.4_Control_board!,54545f30-2e34-45f4-936f-6e74726f6c5f,rev?*%
%TF.SameCoordinates,Original*%
%TF.FileFunction,Drillmap*%
%TF.FilePolarity,Positive*%
%FSLAX45Y45*%
G04 Gerber Fmt 4.5, Leading zero omitted, Abs format (unit mm)*
G04 Created by KiCad (PCBNEW 8.0.7) date 2025-06-17 16:53:55*
%MOMM*%
%LPD*%
G01*
G04 APERTURE LIST*
%ADD10C,0.500000*%
%ADD11C,0.200000*%
%ADD12C,0.100000*%
%ADD13C,0.110000*%
%ADD14C,0.120000*%
%ADD15C,0.130000*%
G04 APERTURE END LIST*
D10*
X3260000Y-6415000D02*
G75*
G02*
X3760000Y-5915000I500000J0D01*
G01*
X22330000Y-6220000D02*
X22360000Y-6515000D01*
D11*
X3962500Y-10965000D02*
G75*
G02*
X3707500Y-10965000I-127500J0D01*
G01*
X3707500Y-10965000D02*
G75*
G02*
X3962500Y-10965000I127500J0D01*
G01*
D10*
X23155000Y-12155000D02*
X23785000Y-12135000D01*
X22859768Y-6510308D02*
X22868500Y-6170000D01*
X22030000Y-5920000D02*
G75*
G02*
X22330000Y-6220000I0J-300000D01*
G01*
X6775000Y-11000000D02*
G75*
G02*
X7284219Y-11019939I255000J0D01*
G01*
X22355000Y-7525000D02*
X22335000Y-10205000D01*
X6260000Y-5915000D02*
G75*
G02*
X6760000Y-6415000I0J-500000D01*
G01*
X22355000Y-7525000D02*
G75*
G02*
X22855000Y-7525000I250000J0D01*
G01*
X22076918Y-14533082D02*
G75*
G02*
X21723082Y-14533082I-176918J0D01*
G01*
X21723082Y-14533082D02*
G75*
G02*
X22076918Y-14533082I176918J0D01*
G01*
X4060000Y-13665000D02*
X4060000Y-14665000D01*
X25593500Y-11345000D02*
G75*
G02*
X25343500Y-11595000I-250000J0D01*
G01*
X23118500Y-11595000D02*
G75*
G02*
X22868500Y-11345000I0J250000D01*
G01*
X25593500Y-6170000D02*
X25593500Y-11345000D01*
X23155000Y-14730000D02*
G75*
G02*
X22905000Y-14480000I0J250000D01*
G01*
X24785000Y-12125000D02*
G75*
G02*
X24785000Y-11605000I0J260000D01*
G01*
X7290000Y-6850000D02*
X7290000Y-6220000D01*
X23118500Y-5920000D02*
X25343500Y-5920000D01*
X7290000Y-6220000D02*
G75*
G02*
X7590000Y-5920000I300000J0D01*
G01*
X22868500Y-6170000D02*
G75*
G02*
X23118500Y-5920000I250000J0D01*
G01*
X3810000Y-13415000D02*
G75*
G02*
X4060000Y-13665000I0J-250000D01*
G01*
X6760000Y-14040000D02*
X6760000Y-14415000D01*
X7290000Y-6850000D02*
G75*
G02*
X6750200Y-6839623I-270000J0D01*
G01*
X22869920Y-11206583D02*
X22868500Y-11345000D01*
X25405000Y-14730000D02*
X23155000Y-14730000D01*
X25343500Y-5920000D02*
G75*
G02*
X25593500Y-6170000I0J-250000D01*
G01*
X4310000Y-14915000D02*
G75*
G02*
X4060000Y-14665000I0J250000D01*
G01*
X7290432Y-10005000D02*
G75*
G02*
X6770000Y-9990000I-260432J0D01*
G01*
D11*
X25437500Y-6270000D02*
G75*
G02*
X25182500Y-6270000I-127500J0D01*
G01*
X25182500Y-6270000D02*
G75*
G02*
X25437500Y-6270000I127500J0D01*
G01*
D10*
X7590000Y-14960000D02*
G75*
G02*
X7290000Y-14660000I0J300000D01*
G01*
D11*
X25437500Y-11270000D02*
G75*
G02*
X25182500Y-11270000I-127500J0D01*
G01*
X25182500Y-11270000D02*
G75*
G02*
X25437500Y-11270000I127500J0D01*
G01*
D10*
X22330000Y-11200000D02*
X22345000Y-12960000D01*
X22360050Y-13964999D02*
G75*
G02*
X22870048Y-13954899I255000J4999D01*
G01*
D11*
X6662500Y-10965000D02*
G75*
G02*
X6407500Y-10965000I-127500J0D01*
G01*
X6407500Y-10965000D02*
G75*
G02*
X6662500Y-10965000I127500J0D01*
G01*
D10*
X6775000Y-11000000D02*
X6770000Y-13030000D01*
X7269983Y-7839584D02*
X7290432Y-10005000D01*
X25405000Y-12155000D02*
G75*
G02*
X25655000Y-12405000I0J-250000D01*
G01*
X22875000Y-12960000D02*
G75*
G02*
X22345000Y-12960000I-265000J0D01*
G01*
X6770000Y-7860000D02*
G75*
G02*
X7269983Y-7839584I250000J10000D01*
G01*
X22330000Y-11200000D02*
G75*
G02*
X22869920Y-11206583I270000J0D01*
G01*
X7893836Y-6350000D02*
G75*
G02*
X7540000Y-6350000I-176918J0D01*
G01*
X7540000Y-6350000D02*
G75*
G02*
X7893836Y-6350000I176918J0D01*
G01*
X7590000Y-5920000D02*
X22030000Y-5920000D01*
X22905000Y-14480000D02*
X22870048Y-13954899D01*
X6770000Y-7860000D02*
X6770000Y-9990000D01*
X6260000Y-14915000D02*
X4310000Y-14915000D01*
X7251115Y-13035451D02*
G75*
G02*
X6769999Y-13030000I-240522J5867D01*
G01*
X6760000Y-6415000D02*
X6750200Y-6839623D01*
X22864975Y-10193838D02*
G75*
G02*
X22335000Y-10205000I-264976J-6162D01*
G01*
X22030000Y-14960000D02*
X7590000Y-14960000D01*
X7290092Y-14037165D02*
X7290000Y-14660000D01*
X22360050Y-13964999D02*
X22330000Y-14660000D01*
X6760000Y-14040000D02*
G75*
G02*
X7290092Y-14037165I265000J10000D01*
G01*
X3760000Y-5915000D02*
X6260000Y-5915000D01*
X6760000Y-14415000D02*
G75*
G02*
X6260000Y-14915000I-500000J0D01*
G01*
X7284219Y-11019939D02*
X7251115Y-13035451D01*
X3260000Y-13165000D02*
X3260000Y-6415000D01*
X3510000Y-13415000D02*
X3810000Y-13415000D01*
X23785000Y-11595000D02*
X23118500Y-11595000D01*
X22859768Y-6510308D02*
G75*
G02*
X22360000Y-6515000I-249768J-14692D01*
G01*
X22875000Y-12960000D02*
X22905000Y-12405000D01*
X22076918Y-6350000D02*
G75*
G02*
X21723082Y-6350000I-176918J0D01*
G01*
X21723082Y-6350000D02*
G75*
G02*
X22076918Y-6350000I176918J0D01*
G01*
X22905000Y-12405000D02*
G75*
G02*
X23155000Y-12155000I250000J0D01*
G01*
X22855000Y-7525000D02*
X22864975Y-10193838D01*
X22330000Y-14660000D02*
G75*
G02*
X22030000Y-14960000I-300000J0D01*
G01*
X3510000Y-13415000D02*
G75*
G02*
X3260000Y-13165000I0J250000D01*
G01*
X25655000Y-12405000D02*
X25655000Y-14480000D01*
X24785000Y-12125000D02*
X25405000Y-12155000D01*
D11*
X25232500Y-14380000D02*
G75*
G02*
X24977500Y-14380000I-127500J0D01*
G01*
X24977500Y-14380000D02*
G75*
G02*
X25232500Y-14380000I127500J0D01*
G01*
D10*
X7893836Y-14530000D02*
G75*
G02*
X7540000Y-14530000I-176918J0D01*
G01*
X7540000Y-14530000D02*
G75*
G02*
X7893836Y-14530000I176918J0D01*
G01*
X24785000Y-11605000D02*
X25343500Y-11595000D01*
D11*
X23432500Y-14380000D02*
G75*
G02*
X23177500Y-14380000I-127500J0D01*
G01*
X23177500Y-14380000D02*
G75*
G02*
X23432500Y-14380000I127500J0D01*
G01*
D10*
X25655000Y-14480000D02*
G75*
G02*
X25405000Y-14730000I-250000J0D01*
G01*
X23785000Y-11595000D02*
G75*
G02*
X23785000Y-12135000I0J-270000D01*
G01*
D11*
D12*
X3865000Y-11485000D02*
X3905000Y-11525000D01*
X3905000Y-11485000D02*
X3865000Y-11525000D01*
X5050000Y-11580000D02*
X5090000Y-11620000D01*
X5090000Y-11580000D02*
X5050000Y-11620000D01*
X5275000Y-10960000D02*
X5315000Y-11000000D01*
X5315000Y-10960000D02*
X5275000Y-11000000D01*
X6410000Y-11605000D02*
X6450000Y-11645000D01*
X6450000Y-11605000D02*
X6410000Y-11645000D01*
X4409000Y-9865000D02*
G75*
G02*
X4329000Y-9865000I-40000J0D01*
G01*
X4329000Y-9865000D02*
G75*
G02*
X4409000Y-9865000I40000J0D01*
G01*
X4414000Y-10405000D02*
G75*
G02*
X4334000Y-10405000I-40000J0D01*
G01*
X4334000Y-10405000D02*
G75*
G02*
X4414000Y-10405000I40000J0D01*
G01*
X5171000Y-9865000D02*
G75*
G02*
X5091000Y-9865000I-40000J0D01*
G01*
X5091000Y-9865000D02*
G75*
G02*
X5171000Y-9865000I40000J0D01*
G01*
X5176000Y-10405000D02*
G75*
G02*
X5096000Y-10405000I-40000J0D01*
G01*
X5096000Y-10405000D02*
G75*
G02*
X5176000Y-10405000I40000J0D01*
G01*
X5560000Y-10390000D02*
G75*
G02*
X5480000Y-10390000I-40000J0D01*
G01*
X5480000Y-10390000D02*
G75*
G02*
X5560000Y-10390000I40000J0D01*
G01*
X6322000Y-10390000D02*
G75*
G02*
X6242000Y-10390000I-40000J0D01*
G01*
X6242000Y-10390000D02*
G75*
G02*
X6322000Y-10390000I40000J0D01*
G01*
X23383000Y-13180000D02*
G75*
G02*
X23303000Y-13180000I-40000J0D01*
G01*
X23303000Y-13180000D02*
G75*
G02*
X23383000Y-13180000I40000J0D01*
G01*
X23408000Y-12580000D02*
G75*
G02*
X23328000Y-12580000I-40000J0D01*
G01*
X23328000Y-12580000D02*
G75*
G02*
X23408000Y-12580000I40000J0D01*
G01*
X24075000Y-11070000D02*
G75*
G02*
X23995000Y-11070000I-40000J0D01*
G01*
X23995000Y-11070000D02*
G75*
G02*
X24075000Y-11070000I40000J0D01*
G01*
X24100000Y-6495000D02*
G75*
G02*
X24020000Y-6495000I-40000J0D01*
G01*
X24020000Y-6495000D02*
G75*
G02*
X24100000Y-6495000I40000J0D01*
G01*
X24100000Y-7145000D02*
G75*
G02*
X24020000Y-7145000I-40000J0D01*
G01*
X24020000Y-7145000D02*
G75*
G02*
X24100000Y-7145000I40000J0D01*
G01*
X24100000Y-7820000D02*
G75*
G02*
X24020000Y-7820000I-40000J0D01*
G01*
X24020000Y-7820000D02*
G75*
G02*
X24100000Y-7820000I40000J0D01*
G01*
X24100000Y-8470000D02*
G75*
G02*
X24020000Y-8470000I-40000J0D01*
G01*
X24020000Y-8470000D02*
G75*
G02*
X24100000Y-8470000I40000J0D01*
G01*
X24100000Y-9770000D02*
G75*
G02*
X24020000Y-9770000I-40000J0D01*
G01*
X24020000Y-9770000D02*
G75*
G02*
X24100000Y-9770000I40000J0D01*
G01*
X24100000Y-10420000D02*
G75*
G02*
X24020000Y-10420000I-40000J0D01*
G01*
X24020000Y-10420000D02*
G75*
G02*
X24100000Y-10420000I40000J0D01*
G01*
X24125000Y-9120000D02*
G75*
G02*
X24045000Y-9120000I-40000J0D01*
G01*
X24045000Y-9120000D02*
G75*
G02*
X24125000Y-9120000I40000J0D01*
G01*
X24837000Y-11070000D02*
G75*
G02*
X24757000Y-11070000I-40000J0D01*
G01*
X24757000Y-11070000D02*
G75*
G02*
X24837000Y-11070000I40000J0D01*
G01*
X24862000Y-6495000D02*
G75*
G02*
X24782000Y-6495000I-40000J0D01*
G01*
X24782000Y-6495000D02*
G75*
G02*
X24862000Y-6495000I40000J0D01*
G01*
X24862000Y-7145000D02*
G75*
G02*
X24782000Y-7145000I-40000J0D01*
G01*
X24782000Y-7145000D02*
G75*
G02*
X24862000Y-7145000I40000J0D01*
G01*
X24862000Y-7820000D02*
G75*
G02*
X24782000Y-7820000I-40000J0D01*
G01*
X24782000Y-7820000D02*
G75*
G02*
X24862000Y-7820000I40000J0D01*
G01*
X24862000Y-8470000D02*
G75*
G02*
X24782000Y-8470000I-40000J0D01*
G01*
X24782000Y-8470000D02*
G75*
G02*
X24862000Y-8470000I40000J0D01*
G01*
X24862000Y-9770000D02*
G75*
G02*
X24782000Y-9770000I-40000J0D01*
G01*
X24782000Y-9770000D02*
G75*
G02*
X24862000Y-9770000I40000J0D01*
G01*
X24862000Y-10420000D02*
G75*
G02*
X24782000Y-10420000I-40000J0D01*
G01*
X24782000Y-10420000D02*
G75*
G02*
X24862000Y-10420000I40000J0D01*
G01*
X24887000Y-9120000D02*
G75*
G02*
X24807000Y-9120000I-40000J0D01*
G01*
X24807000Y-9120000D02*
G75*
G02*
X24887000Y-9120000I40000J0D01*
G01*
X24907000Y-13180000D02*
G75*
G02*
X24827000Y-13180000I-40000J0D01*
G01*
X24827000Y-13180000D02*
G75*
G02*
X24907000Y-13180000I40000J0D01*
G01*
X24932000Y-12580000D02*
G75*
G02*
X24852000Y-12580000I-40000J0D01*
G01*
X24852000Y-12580000D02*
G75*
G02*
X24932000Y-12580000I40000J0D01*
G01*
X3662500Y-10135000D02*
X3662500Y-10225000D01*
X3617500Y-10180000D02*
X3707500Y-10180000D01*
X3916500Y-10135000D02*
X3916500Y-10225000D01*
X3871500Y-10180000D02*
X3961500Y-10180000D01*
X5760000Y-14170000D02*
X5760000Y-14260000D01*
X5715000Y-14215000D02*
X5805000Y-14215000D01*
X6014000Y-14170000D02*
X6014000Y-14260000D01*
X5969000Y-14215000D02*
X6059000Y-14215000D01*
X6247500Y-9755000D02*
X6247500Y-9845000D01*
X6202500Y-9800000D02*
X6292500Y-9800000D01*
X6501500Y-9755000D02*
X6501500Y-9845000D01*
X6456500Y-9800000D02*
X6546500Y-9800000D01*
X23287000Y-6450000D02*
X23287000Y-6540000D01*
X23242000Y-6495000D02*
X23332000Y-6495000D01*
X23287000Y-8425000D02*
X23287000Y-8515000D01*
X23242000Y-8470000D02*
X23332000Y-8470000D01*
X23287000Y-9075000D02*
X23287000Y-9165000D01*
X23242000Y-9120000D02*
X23332000Y-9120000D01*
X23288500Y-7100000D02*
X23288500Y-7190000D01*
X23243500Y-7145000D02*
X23333500Y-7145000D01*
X23288500Y-7775000D02*
X23288500Y-7865000D01*
X23243500Y-7820000D02*
X23333500Y-7820000D01*
X23291000Y-9725000D02*
X23291000Y-9815000D01*
X23246000Y-9770000D02*
X23336000Y-9770000D01*
X23291000Y-10375000D02*
X23291000Y-10465000D01*
X23246000Y-10420000D02*
X23336000Y-10420000D01*
X23291000Y-11025000D02*
X23291000Y-11115000D01*
X23246000Y-11070000D02*
X23336000Y-11070000D01*
X23541000Y-6450000D02*
X23541000Y-6540000D01*
X23496000Y-6495000D02*
X23586000Y-6495000D01*
X23541000Y-8425000D02*
X23541000Y-8515000D01*
X23496000Y-8470000D02*
X23586000Y-8470000D01*
X23541000Y-9075000D02*
X23541000Y-9165000D01*
X23496000Y-9120000D02*
X23586000Y-9120000D01*
X23542500Y-7100000D02*
X23542500Y-7190000D01*
X23497500Y-7145000D02*
X23587500Y-7145000D01*
X23542500Y-7775000D02*
X23542500Y-7865000D01*
X23497500Y-7820000D02*
X23587500Y-7820000D01*
X23545000Y-9725000D02*
X23545000Y-9815000D01*
X23500000Y-9770000D02*
X23590000Y-9770000D01*
X23545000Y-10375000D02*
X23545000Y-10465000D01*
X23500000Y-10420000D02*
X23590000Y-10420000D01*
X23545000Y-11025000D02*
X23545000Y-11115000D01*
X23500000Y-11070000D02*
X23590000Y-11070000D01*
X3495356Y-12250356D02*
X3495356Y-12179644D01*
X3424644Y-12179644D01*
X3424644Y-12250356D01*
X3495356Y-12250356D01*
X3615356Y-6600356D02*
X3615356Y-6529644D01*
X3544644Y-6529644D01*
X3544644Y-6600356D01*
X3615356Y-6600356D01*
X3615356Y-6854356D02*
X3615356Y-6783644D01*
X3544644Y-6783644D01*
X3544644Y-6854356D01*
X3615356Y-6854356D01*
X3615356Y-7108356D02*
X3615356Y-7037644D01*
X3544644Y-7037644D01*
X3544644Y-7108356D01*
X3615356Y-7108356D01*
X3615356Y-7362356D02*
X3615356Y-7291644D01*
X3544644Y-7291644D01*
X3544644Y-7362356D01*
X3615356Y-7362356D01*
X3615356Y-7616356D02*
X3615356Y-7545644D01*
X3544644Y-7545644D01*
X3544644Y-7616356D01*
X3615356Y-7616356D01*
X3615356Y-7870356D02*
X3615356Y-7799644D01*
X3544644Y-7799644D01*
X3544644Y-7870356D01*
X3615356Y-7870356D01*
X3615356Y-8124356D02*
X3615356Y-8053644D01*
X3544644Y-8053644D01*
X3544644Y-8124356D01*
X3615356Y-8124356D01*
X3615356Y-8378356D02*
X3615356Y-8307644D01*
X3544644Y-8307644D01*
X3544644Y-8378356D01*
X3615356Y-8378356D01*
X3615356Y-8632356D02*
X3615356Y-8561644D01*
X3544644Y-8561644D01*
X3544644Y-8632356D01*
X3615356Y-8632356D01*
X3615356Y-8886356D02*
X3615356Y-8815644D01*
X3544644Y-8815644D01*
X3544644Y-8886356D01*
X3615356Y-8886356D01*
X3975356Y-6600356D02*
X3975356Y-6529644D01*
X3904644Y-6529644D01*
X3904644Y-6600356D01*
X3975356Y-6600356D01*
X3975356Y-6854356D02*
X3975356Y-6783644D01*
X3904644Y-6783644D01*
X3904644Y-6854356D01*
X3975356Y-6854356D01*
X3975356Y-7108356D02*
X3975356Y-7037644D01*
X3904644Y-7037644D01*
X3904644Y-7108356D01*
X3975356Y-7108356D01*
X3975356Y-7362356D02*
X3975356Y-7291644D01*
X3904644Y-7291644D01*
X3904644Y-7362356D01*
X3975356Y-7362356D01*
X3975356Y-7616356D02*
X3975356Y-7545644D01*
X3904644Y-7545644D01*
X3904644Y-7616356D01*
X3975356Y-7616356D01*
X3975356Y-7870356D02*
X3975356Y-7799644D01*
X3904644Y-7799644D01*
X3904644Y-7870356D01*
X3975356Y-7870356D01*
X3975356Y-8124356D02*
X3975356Y-8053644D01*
X3904644Y-8053644D01*
X3904644Y-8124356D01*
X3975356Y-8124356D01*
X3975356Y-8378356D02*
X3975356Y-8307644D01*
X3904644Y-8307644D01*
X3904644Y-8378356D01*
X3975356Y-8378356D01*
X3975356Y-8632356D02*
X3975356Y-8561644D01*
X3904644Y-8561644D01*
X3904644Y-8632356D01*
X3975356Y-8632356D01*
X3975356Y-8886356D02*
X3975356Y-8815644D01*
X3904644Y-8815644D01*
X3904644Y-8886356D01*
X3975356Y-8886356D01*
X3995356Y-12250356D02*
X3995356Y-12179644D01*
X3924644Y-12179644D01*
X3924644Y-12250356D01*
X3995356Y-12250356D01*
X4310356Y-12245356D02*
X4310356Y-12174644D01*
X4239644Y-12174644D01*
X4239644Y-12245356D01*
X4310356Y-12245356D01*
X4335356Y-6600356D02*
X4335356Y-6529644D01*
X4264644Y-6529644D01*
X4264644Y-6600356D01*
X4335356Y-6600356D01*
X4335356Y-6854356D02*
X4335356Y-6783644D01*
X4264644Y-6783644D01*
X4264644Y-6854356D01*
X4335356Y-6854356D01*
X4335356Y-7108356D02*
X4335356Y-7037644D01*
X4264644Y-7037644D01*
X4264644Y-7108356D01*
X4335356Y-7108356D01*
X4335356Y-7362356D02*
X4335356Y-7291644D01*
X4264644Y-7291644D01*
X4264644Y-7362356D01*
X4335356Y-7362356D01*
X4335356Y-7616356D02*
X4335356Y-7545644D01*
X4264644Y-7545644D01*
X4264644Y-7616356D01*
X4335356Y-7616356D01*
X4335356Y-7870356D02*
X4335356Y-7799644D01*
X4264644Y-7799644D01*
X4264644Y-7870356D01*
X4335356Y-7870356D01*
X4335356Y-8124356D02*
X4335356Y-8053644D01*
X4264644Y-8053644D01*
X4264644Y-8124356D01*
X4335356Y-8124356D01*
X4335356Y-8378356D02*
X4335356Y-8307644D01*
X4264644Y-8307644D01*
X4264644Y-8378356D01*
X4335356Y-8378356D01*
X4335356Y-8632356D02*
X4335356Y-8561644D01*
X4264644Y-8561644D01*
X4264644Y-8632356D01*
X4335356Y-8632356D01*
X4335356Y-8886356D02*
X4335356Y-8815644D01*
X4264644Y-8815644D01*
X4264644Y-8886356D01*
X4335356Y-8886356D01*
X4695356Y-6600356D02*
X4695356Y-6529644D01*
X4624644Y-6529644D01*
X4624644Y-6600356D01*
X4695356Y-6600356D01*
X4695356Y-6854356D02*
X4695356Y-6783644D01*
X4624644Y-6783644D01*
X4624644Y-6854356D01*
X4695356Y-6854356D01*
X4695356Y-7108356D02*
X4695356Y-7037644D01*
X4624644Y-7037644D01*
X4624644Y-7108356D01*
X4695356Y-7108356D01*
X4695356Y-7362356D02*
X4695356Y-7291644D01*
X4624644Y-7291644D01*
X4624644Y-7362356D01*
X4695356Y-7362356D01*
X4695356Y-7616356D02*
X4695356Y-7545644D01*
X4624644Y-7545644D01*
X4624644Y-7616356D01*
X4695356Y-7616356D01*
X4695356Y-7870356D02*
X4695356Y-7799644D01*
X4624644Y-7799644D01*
X4624644Y-7870356D01*
X4695356Y-7870356D01*
X4695356Y-8124356D02*
X4695356Y-8053644D01*
X4624644Y-8053644D01*
X4624644Y-8124356D01*
X4695356Y-8124356D01*
X4695356Y-8378356D02*
X4695356Y-8307644D01*
X4624644Y-8307644D01*
X4624644Y-8378356D01*
X4695356Y-8378356D01*
X4695356Y-8632356D02*
X4695356Y-8561644D01*
X4624644Y-8561644D01*
X4624644Y-8632356D01*
X4695356Y-8632356D01*
X4695356Y-8886356D02*
X4695356Y-8815644D01*
X4624644Y-8815644D01*
X4624644Y-8886356D01*
X4695356Y-8886356D01*
X4810356Y-12245356D02*
X4810356Y-12174644D01*
X4739644Y-12174644D01*
X4739644Y-12245356D01*
X4810356Y-12245356D01*
X5245356Y-12250356D02*
X5245356Y-12179644D01*
X5174644Y-12179644D01*
X5174644Y-12250356D01*
X5245356Y-12250356D01*
X5254356Y-6606356D02*
X5254356Y-6535644D01*
X5183644Y-6535644D01*
X5183644Y-6606356D01*
X5254356Y-6606356D01*
X5254356Y-6860356D02*
X5254356Y-6789644D01*
X5183644Y-6789644D01*
X5183644Y-6860356D01*
X5254356Y-6860356D01*
X5254356Y-7114356D02*
X5254356Y-7043644D01*
X5183644Y-7043644D01*
X5183644Y-7114356D01*
X5254356Y-7114356D01*
X5254356Y-7368356D02*
X5254356Y-7297644D01*
X5183644Y-7297644D01*
X5183644Y-7368356D01*
X5254356Y-7368356D01*
X5254356Y-7622356D02*
X5254356Y-7551644D01*
X5183644Y-7551644D01*
X5183644Y-7622356D01*
X5254356Y-7622356D01*
X5254356Y-7876356D02*
X5254356Y-7805644D01*
X5183644Y-7805644D01*
X5183644Y-7876356D01*
X5254356Y-7876356D01*
X5254356Y-8130356D02*
X5254356Y-8059644D01*
X5183644Y-8059644D01*
X5183644Y-8130356D01*
X5254356Y-8130356D01*
X5254356Y-8384356D02*
X5254356Y-8313644D01*
X5183644Y-8313644D01*
X5183644Y-8384356D01*
X5254356Y-8384356D01*
X5254356Y-8638356D02*
X5254356Y-8567644D01*
X5183644Y-8567644D01*
X5183644Y-8638356D01*
X5254356Y-8638356D01*
X5254356Y-8892356D02*
X5254356Y-8821644D01*
X5183644Y-8821644D01*
X5183644Y-8892356D01*
X5254356Y-8892356D01*
X5613356Y-6605356D02*
X5613356Y-6534644D01*
X5542644Y-6534644D01*
X5542644Y-6605356D01*
X5613356Y-6605356D01*
X5613356Y-6859356D02*
X5613356Y-6788644D01*
X5542644Y-6788644D01*
X5542644Y-6859356D01*
X5613356Y-6859356D01*
X5613356Y-7113356D02*
X5613356Y-7042644D01*
X5542644Y-7042644D01*
X5542644Y-7113356D01*
X5613356Y-7113356D01*
X5613356Y-7367356D02*
X5613356Y-7296644D01*
X5542644Y-7296644D01*
X5542644Y-7367356D01*
X5613356Y-7367356D01*
X5613356Y-7621356D02*
X5613356Y-7550644D01*
X5542644Y-7550644D01*
X5542644Y-7621356D01*
X5613356Y-7621356D01*
X5613356Y-7875356D02*
X5613356Y-7804644D01*
X5542644Y-7804644D01*
X5542644Y-7875356D01*
X5613356Y-7875356D01*
X5613356Y-8129356D02*
X5613356Y-8058644D01*
X5542644Y-8058644D01*
X5542644Y-8129356D01*
X5613356Y-8129356D01*
X5613356Y-8383356D02*
X5613356Y-8312644D01*
X5542644Y-8312644D01*
X5542644Y-8383356D01*
X5613356Y-8383356D01*
X5613356Y-8637356D02*
X5613356Y-8566644D01*
X5542644Y-8566644D01*
X5542644Y-8637356D01*
X5613356Y-8637356D01*
X5613356Y-8891356D02*
X5613356Y-8820644D01*
X5542644Y-8820644D01*
X5542644Y-8891356D01*
X5613356Y-8891356D01*
X5745356Y-12250356D02*
X5745356Y-12179644D01*
X5674644Y-12179644D01*
X5674644Y-12250356D01*
X5745356Y-12250356D01*
X5969356Y-6606356D02*
X5969356Y-6535644D01*
X5898644Y-6535644D01*
X5898644Y-6606356D01*
X5969356Y-6606356D01*
X5969356Y-6860356D02*
X5969356Y-6789644D01*
X5898644Y-6789644D01*
X5898644Y-6860356D01*
X5969356Y-6860356D01*
X5969356Y-7114356D02*
X5969356Y-7043644D01*
X5898644Y-7043644D01*
X5898644Y-7114356D01*
X5969356Y-7114356D01*
X5969356Y-7368356D02*
X5969356Y-7297644D01*
X5898644Y-7297644D01*
X5898644Y-7368356D01*
X5969356Y-7368356D01*
X5969356Y-7622356D02*
X5969356Y-7551644D01*
X5898644Y-7551644D01*
X5898644Y-7622356D01*
X5969356Y-7622356D01*
X5969356Y-7876356D02*
X5969356Y-7805644D01*
X5898644Y-7805644D01*
X5898644Y-7876356D01*
X5969356Y-7876356D01*
X5969356Y-8130356D02*
X5969356Y-8059644D01*
X5898644Y-8059644D01*
X5898644Y-8130356D01*
X5969356Y-8130356D01*
X5969356Y-8384356D02*
X5969356Y-8313644D01*
X5898644Y-8313644D01*
X5898644Y-8384356D01*
X5969356Y-8384356D01*
X5969356Y-8638356D02*
X5969356Y-8567644D01*
X5898644Y-8567644D01*
X5898644Y-8638356D01*
X5969356Y-8638356D01*
X5969356Y-8892356D02*
X5969356Y-8821644D01*
X5898644Y-8821644D01*
X5898644Y-8892356D01*
X5969356Y-8892356D01*
X6070356Y-12255356D02*
X6070356Y-12184644D01*
X5999644Y-12184644D01*
X5999644Y-12255356D01*
X6070356Y-12255356D01*
X6525356Y-6601356D02*
X6525356Y-6530644D01*
X6454644Y-6530644D01*
X6454644Y-6601356D01*
X6525356Y-6601356D01*
X6525356Y-6855356D02*
X6525356Y-6784644D01*
X6454644Y-6784644D01*
X6454644Y-6855356D01*
X6525356Y-6855356D01*
X6525356Y-7109356D02*
X6525356Y-7038644D01*
X6454644Y-7038644D01*
X6454644Y-7109356D01*
X6525356Y-7109356D01*
X6525356Y-7363356D02*
X6525356Y-7292644D01*
X6454644Y-7292644D01*
X6454644Y-7363356D01*
X6525356Y-7363356D01*
X6525356Y-7617356D02*
X6525356Y-7546644D01*
X6454644Y-7546644D01*
X6454644Y-7617356D01*
X6525356Y-7617356D01*
X6525356Y-7871356D02*
X6525356Y-7800644D01*
X6454644Y-7800644D01*
X6454644Y-7871356D01*
X6525356Y-7871356D01*
X6525356Y-8125356D02*
X6525356Y-8054644D01*
X6454644Y-8054644D01*
X6454644Y-8125356D01*
X6525356Y-8125356D01*
X6525356Y-8379356D02*
X6525356Y-8308644D01*
X6454644Y-8308644D01*
X6454644Y-8379356D01*
X6525356Y-8379356D01*
X6525356Y-8633356D02*
X6525356Y-8562644D01*
X6454644Y-8562644D01*
X6454644Y-8633356D01*
X6525356Y-8633356D01*
X6525356Y-8887356D02*
X6525356Y-8816644D01*
X6454644Y-8816644D01*
X6454644Y-8887356D01*
X6525356Y-8887356D01*
X6570356Y-12255356D02*
X6570356Y-12184644D01*
X6499644Y-12184644D01*
X6499644Y-12255356D01*
X6570356Y-12255356D01*
X7880356Y-7336356D02*
X7880356Y-7265644D01*
X7809644Y-7265644D01*
X7809644Y-7336356D01*
X7880356Y-7336356D01*
X7880356Y-7590356D02*
X7880356Y-7519644D01*
X7809644Y-7519644D01*
X7809644Y-7590356D01*
X7880356Y-7590356D01*
X7880356Y-7844356D02*
X7880356Y-7773644D01*
X7809644Y-7773644D01*
X7809644Y-7844356D01*
X7880356Y-7844356D01*
X7880356Y-8098356D02*
X7880356Y-8027644D01*
X7809644Y-8027644D01*
X7809644Y-8098356D01*
X7880356Y-8098356D01*
X7880356Y-8352356D02*
X7880356Y-8281644D01*
X7809644Y-8281644D01*
X7809644Y-8352356D01*
X7880356Y-8352356D01*
X7880356Y-8606356D02*
X7880356Y-8535644D01*
X7809644Y-8535644D01*
X7809644Y-8606356D01*
X7880356Y-8606356D01*
X7880356Y-8860356D02*
X7880356Y-8789644D01*
X7809644Y-8789644D01*
X7809644Y-8860356D01*
X7880356Y-8860356D01*
X7880356Y-9114356D02*
X7880356Y-9043644D01*
X7809644Y-9043644D01*
X7809644Y-9114356D01*
X7880356Y-9114356D01*
X7880356Y-9368356D02*
X7880356Y-9297644D01*
X7809644Y-9297644D01*
X7809644Y-9368356D01*
X7880356Y-9368356D01*
X7880356Y-9622356D02*
X7880356Y-9551644D01*
X7809644Y-9551644D01*
X7809644Y-9622356D01*
X7880356Y-9622356D01*
X8240356Y-7341356D02*
X8240356Y-7270644D01*
X8169644Y-7270644D01*
X8169644Y-7341356D01*
X8240356Y-7341356D01*
X8240356Y-7595356D02*
X8240356Y-7524644D01*
X8169644Y-7524644D01*
X8169644Y-7595356D01*
X8240356Y-7595356D01*
X8240356Y-7849356D02*
X8240356Y-7778644D01*
X8169644Y-7778644D01*
X8169644Y-7849356D01*
X8240356Y-7849356D01*
X8240356Y-8103356D02*
X8240356Y-8032644D01*
X8169644Y-8032644D01*
X8169644Y-8103356D01*
X8240356Y-8103356D01*
X8240356Y-8357356D02*
X8240356Y-8286644D01*
X8169644Y-8286644D01*
X8169644Y-8357356D01*
X8240356Y-8357356D01*
X8240356Y-8611356D02*
X8240356Y-8540644D01*
X8169644Y-8540644D01*
X8169644Y-8611356D01*
X8240356Y-8611356D01*
X8240356Y-8865356D02*
X8240356Y-8794644D01*
X8169644Y-8794644D01*
X8169644Y-8865356D01*
X8240356Y-8865356D01*
X8240356Y-9119356D02*
X8240356Y-9048644D01*
X8169644Y-9048644D01*
X8169644Y-9119356D01*
X8240356Y-9119356D01*
X8240356Y-9373356D02*
X8240356Y-9302644D01*
X8169644Y-9302644D01*
X8169644Y-9373356D01*
X8240356Y-9373356D01*
X8240356Y-9627356D02*
X8240356Y-9556644D01*
X8169644Y-9556644D01*
X8169644Y-9627356D01*
X8240356Y-9627356D01*
X8600356Y-7336356D02*
X8600356Y-7265644D01*
X8529644Y-7265644D01*
X8529644Y-7336356D01*
X8600356Y-7336356D01*
X8600356Y-7590356D02*
X8600356Y-7519644D01*
X8529644Y-7519644D01*
X8529644Y-7590356D01*
X8600356Y-7590356D01*
X8600356Y-7844356D02*
X8600356Y-7773644D01*
X8529644Y-7773644D01*
X8529644Y-7844356D01*
X8600356Y-7844356D01*
X8600356Y-8098356D02*
X8600356Y-8027644D01*
X8529644Y-8027644D01*
X8529644Y-8098356D01*
X8600356Y-8098356D01*
X8600356Y-8352356D02*
X8600356Y-8281644D01*
X8529644Y-8281644D01*
X8529644Y-8352356D01*
X8600356Y-8352356D01*
X8600356Y-8606356D02*
X8600356Y-8535644D01*
X8529644Y-8535644D01*
X8529644Y-8606356D01*
X8600356Y-8606356D01*
X8600356Y-8860356D02*
X8600356Y-8789644D01*
X8529644Y-8789644D01*
X8529644Y-8860356D01*
X8600356Y-8860356D01*
X8600356Y-9114356D02*
X8600356Y-9043644D01*
X8529644Y-9043644D01*
X8529644Y-9114356D01*
X8600356Y-9114356D01*
X8600356Y-9368356D02*
X8600356Y-9297644D01*
X8529644Y-9297644D01*
X8529644Y-9368356D01*
X8600356Y-9368356D01*
X8600356Y-9622356D02*
X8600356Y-9551644D01*
X8529644Y-9551644D01*
X8529644Y-9622356D01*
X8600356Y-9622356D01*
X8960356Y-7336356D02*
X8960356Y-7265644D01*
X8889644Y-7265644D01*
X8889644Y-7336356D01*
X8960356Y-7336356D01*
X8960356Y-7590356D02*
X8960356Y-7519644D01*
X8889644Y-7519644D01*
X8889644Y-7590356D01*
X8960356Y-7590356D01*
X8960356Y-7844356D02*
X8960356Y-7773644D01*
X8889644Y-7773644D01*
X8889644Y-7844356D01*
X8960356Y-7844356D01*
X8960356Y-8098356D02*
X8960356Y-8027644D01*
X8889644Y-8027644D01*
X8889644Y-8098356D01*
X8960356Y-8098356D01*
X8960356Y-8352356D02*
X8960356Y-8281644D01*
X8889644Y-8281644D01*
X8889644Y-8352356D01*
X8960356Y-8352356D01*
X8960356Y-8606356D02*
X8960356Y-8535644D01*
X8889644Y-8535644D01*
X8889644Y-8606356D01*
X8960356Y-8606356D01*
X8960356Y-8860356D02*
X8960356Y-8789644D01*
X8889644Y-8789644D01*
X8889644Y-8860356D01*
X8960356Y-8860356D01*
X8960356Y-9114356D02*
X8960356Y-9043644D01*
X8889644Y-9043644D01*
X8889644Y-9114356D01*
X8960356Y-9114356D01*
X8960356Y-9368356D02*
X8960356Y-9297644D01*
X8889644Y-9297644D01*
X8889644Y-9368356D01*
X8960356Y-9368356D01*
X8960356Y-9622356D02*
X8960356Y-9551644D01*
X8889644Y-9551644D01*
X8889644Y-9622356D01*
X8960356Y-9622356D01*
X11200356Y-8291356D02*
X11200356Y-8220644D01*
X11129644Y-8220644D01*
X11129644Y-8291356D01*
X11200356Y-8291356D01*
X11200356Y-8545356D02*
X11200356Y-8474644D01*
X11129644Y-8474644D01*
X11129644Y-8545356D01*
X11200356Y-8545356D01*
X11200356Y-8799356D02*
X11200356Y-8728644D01*
X11129644Y-8728644D01*
X11129644Y-8799356D01*
X11200356Y-8799356D01*
X11200356Y-9053356D02*
X11200356Y-8982644D01*
X11129644Y-8982644D01*
X11129644Y-9053356D01*
X11200356Y-9053356D01*
X11200356Y-9307356D02*
X11200356Y-9236644D01*
X11129644Y-9236644D01*
X11129644Y-9307356D01*
X11200356Y-9307356D01*
X11200356Y-9561356D02*
X11200356Y-9490644D01*
X11129644Y-9490644D01*
X11129644Y-9561356D01*
X11200356Y-9561356D01*
X11200356Y-9815356D02*
X11200356Y-9744644D01*
X11129644Y-9744644D01*
X11129644Y-9815356D01*
X11200356Y-9815356D01*
X11200356Y-10069356D02*
X11200356Y-9998644D01*
X11129644Y-9998644D01*
X11129644Y-10069356D01*
X11200356Y-10069356D01*
X11200356Y-10323356D02*
X11200356Y-10252644D01*
X11129644Y-10252644D01*
X11129644Y-10323356D01*
X11200356Y-10323356D01*
X11200356Y-10577356D02*
X11200356Y-10506644D01*
X11129644Y-10506644D01*
X11129644Y-10577356D01*
X11200356Y-10577356D01*
X11575356Y-7531356D02*
X11575356Y-7460644D01*
X11504644Y-7460644D01*
X11504644Y-7531356D01*
X11575356Y-7531356D01*
X11575356Y-7785356D02*
X11575356Y-7714644D01*
X11504644Y-7714644D01*
X11504644Y-7785356D01*
X11575356Y-7785356D01*
X11575356Y-8039356D02*
X11575356Y-7968644D01*
X11504644Y-7968644D01*
X11504644Y-8039356D01*
X11575356Y-8039356D01*
X11575356Y-8293356D02*
X11575356Y-8222644D01*
X11504644Y-8222644D01*
X11504644Y-8293356D01*
X11575356Y-8293356D01*
X11575356Y-8547356D02*
X11575356Y-8476644D01*
X11504644Y-8476644D01*
X11504644Y-8547356D01*
X11575356Y-8547356D01*
X11575356Y-8801356D02*
X11575356Y-8730644D01*
X11504644Y-8730644D01*
X11504644Y-8801356D01*
X11575356Y-8801356D01*
X11575356Y-9055356D02*
X11575356Y-8984644D01*
X11504644Y-8984644D01*
X11504644Y-9055356D01*
X11575356Y-9055356D01*
X11575356Y-9309356D02*
X11575356Y-9238644D01*
X11504644Y-9238644D01*
X11504644Y-9309356D01*
X11575356Y-9309356D01*
X11575356Y-9563356D02*
X11575356Y-9492644D01*
X11504644Y-9492644D01*
X11504644Y-9563356D01*
X11575356Y-9563356D01*
X11575356Y-9817356D02*
X11575356Y-9746644D01*
X11504644Y-9746644D01*
X11504644Y-9817356D01*
X11575356Y-9817356D01*
X11575356Y-10071356D02*
X11575356Y-10000644D01*
X11504644Y-10000644D01*
X11504644Y-10071356D01*
X11575356Y-10071356D01*
X11575356Y-10325356D02*
X11575356Y-10254644D01*
X11504644Y-10254644D01*
X11504644Y-10325356D01*
X11575356Y-10325356D01*
X11575356Y-10579356D02*
X11575356Y-10508644D01*
X11504644Y-10508644D01*
X11504644Y-10579356D01*
X11575356Y-10579356D01*
X11575356Y-10833356D02*
X11575356Y-10762644D01*
X11504644Y-10762644D01*
X11504644Y-10833356D01*
X11575356Y-10833356D01*
X11575356Y-11087356D02*
X11575356Y-11016644D01*
X11504644Y-11016644D01*
X11504644Y-11087356D01*
X11575356Y-11087356D01*
X11575356Y-11341356D02*
X11575356Y-11270644D01*
X11504644Y-11270644D01*
X11504644Y-11341356D01*
X11575356Y-11341356D01*
X11575356Y-11595356D02*
X11575356Y-11524644D01*
X11504644Y-11524644D01*
X11504644Y-11595356D01*
X11575356Y-11595356D01*
X11575356Y-11849356D02*
X11575356Y-11778644D01*
X11504644Y-11778644D01*
X11504644Y-11849356D01*
X11575356Y-11849356D01*
X11575356Y-12103356D02*
X11575356Y-12032644D01*
X11504644Y-12032644D01*
X11504644Y-12103356D01*
X11575356Y-12103356D01*
X11575356Y-12357356D02*
X11575356Y-12286644D01*
X11504644Y-12286644D01*
X11504644Y-12357356D01*
X11575356Y-12357356D01*
X11575356Y-12611356D02*
X11575356Y-12540644D01*
X11504644Y-12540644D01*
X11504644Y-12611356D01*
X11575356Y-12611356D01*
X11575356Y-12865356D02*
X11575356Y-12794644D01*
X11504644Y-12794644D01*
X11504644Y-12865356D01*
X11575356Y-12865356D01*
X11575356Y-13119356D02*
X11575356Y-13048644D01*
X11504644Y-13048644D01*
X11504644Y-13119356D01*
X11575356Y-13119356D01*
X11575356Y-13373356D02*
X11575356Y-13302644D01*
X11504644Y-13302644D01*
X11504644Y-13373356D01*
X11575356Y-13373356D01*
X13095356Y-7547356D02*
X13095356Y-7476644D01*
X13024644Y-7476644D01*
X13024644Y-7547356D01*
X13095356Y-7547356D01*
X13095356Y-7801356D02*
X13095356Y-7730644D01*
X13024644Y-7730644D01*
X13024644Y-7801356D01*
X13095356Y-7801356D01*
X13095356Y-8055356D02*
X13095356Y-7984644D01*
X13024644Y-7984644D01*
X13024644Y-8055356D01*
X13095356Y-8055356D01*
X13095356Y-8309356D02*
X13095356Y-8238644D01*
X13024644Y-8238644D01*
X13024644Y-8309356D01*
X13095356Y-8309356D01*
X13095356Y-8563356D02*
X13095356Y-8492644D01*
X13024644Y-8492644D01*
X13024644Y-8563356D01*
X13095356Y-8563356D01*
X13095356Y-8817356D02*
X13095356Y-8746644D01*
X13024644Y-8746644D01*
X13024644Y-8817356D01*
X13095356Y-8817356D01*
X13095356Y-9071356D02*
X13095356Y-9000644D01*
X13024644Y-9000644D01*
X13024644Y-9071356D01*
X13095356Y-9071356D01*
X13095356Y-9325356D02*
X13095356Y-9254644D01*
X13024644Y-9254644D01*
X13024644Y-9325356D01*
X13095356Y-9325356D01*
X13095356Y-9579356D02*
X13095356Y-9508644D01*
X13024644Y-9508644D01*
X13024644Y-9579356D01*
X13095356Y-9579356D01*
X13095356Y-9833356D02*
X13095356Y-9762644D01*
X13024644Y-9762644D01*
X13024644Y-9833356D01*
X13095356Y-9833356D01*
X13095356Y-10087356D02*
X13095356Y-10016644D01*
X13024644Y-10016644D01*
X13024644Y-10087356D01*
X13095356Y-10087356D01*
X13095356Y-10341356D02*
X13095356Y-10270644D01*
X13024644Y-10270644D01*
X13024644Y-10341356D01*
X13095356Y-10341356D01*
X13095356Y-10595356D02*
X13095356Y-10524644D01*
X13024644Y-10524644D01*
X13024644Y-10595356D01*
X13095356Y-10595356D01*
X13095356Y-10849356D02*
X13095356Y-10778644D01*
X13024644Y-10778644D01*
X13024644Y-10849356D01*
X13095356Y-10849356D01*
X13095356Y-11103356D02*
X13095356Y-11032644D01*
X13024644Y-11032644D01*
X13024644Y-11103356D01*
X13095356Y-11103356D01*
X13095356Y-11357356D02*
X13095356Y-11286644D01*
X13024644Y-11286644D01*
X13024644Y-11357356D01*
X13095356Y-11357356D01*
X13095356Y-11611356D02*
X13095356Y-11540644D01*
X13024644Y-11540644D01*
X13024644Y-11611356D01*
X13095356Y-11611356D01*
X13095356Y-11865356D02*
X13095356Y-11794644D01*
X13024644Y-11794644D01*
X13024644Y-11865356D01*
X13095356Y-11865356D01*
X13095356Y-12119356D02*
X13095356Y-12048644D01*
X13024644Y-12048644D01*
X13024644Y-12119356D01*
X13095356Y-12119356D01*
X13095356Y-12373356D02*
X13095356Y-12302644D01*
X13024644Y-12302644D01*
X13024644Y-12373356D01*
X13095356Y-12373356D01*
X13095356Y-12627356D02*
X13095356Y-12556644D01*
X13024644Y-12556644D01*
X13024644Y-12627356D01*
X13095356Y-12627356D01*
X13095356Y-12881356D02*
X13095356Y-12810644D01*
X13024644Y-12810644D01*
X13024644Y-12881356D01*
X13095356Y-12881356D01*
X13095356Y-13135356D02*
X13095356Y-13064644D01*
X13024644Y-13064644D01*
X13024644Y-13135356D01*
X13095356Y-13135356D01*
X13095356Y-13389356D02*
X13095356Y-13318644D01*
X13024644Y-13318644D01*
X13024644Y-13389356D01*
X13095356Y-13389356D01*
X13842856Y-6426856D02*
X13842856Y-6356144D01*
X13772144Y-6356144D01*
X13772144Y-6426856D01*
X13842856Y-6426856D01*
X13842856Y-6680856D02*
X13842856Y-6610144D01*
X13772144Y-6610144D01*
X13772144Y-6680856D01*
X13842856Y-6680856D01*
X13842856Y-6934856D02*
X13842856Y-6864144D01*
X13772144Y-6864144D01*
X13772144Y-6934856D01*
X13842856Y-6934856D01*
X13842856Y-7188856D02*
X13842856Y-7118144D01*
X13772144Y-7118144D01*
X13772144Y-7188856D01*
X13842856Y-7188856D01*
X13842856Y-7442856D02*
X13842856Y-7372144D01*
X13772144Y-7372144D01*
X13772144Y-7442856D01*
X13842856Y-7442856D01*
X13842856Y-7696856D02*
X13842856Y-7626144D01*
X13772144Y-7626144D01*
X13772144Y-7696856D01*
X13842856Y-7696856D01*
X13842856Y-7950856D02*
X13842856Y-7880144D01*
X13772144Y-7880144D01*
X13772144Y-7950856D01*
X13842856Y-7950856D01*
X13842856Y-8204856D02*
X13842856Y-8134144D01*
X13772144Y-8134144D01*
X13772144Y-8204856D01*
X13842856Y-8204856D01*
X13842856Y-8458856D02*
X13842856Y-8388144D01*
X13772144Y-8388144D01*
X13772144Y-8458856D01*
X13842856Y-8458856D01*
X14262856Y-9358856D02*
X14262856Y-9288144D01*
X14192144Y-9288144D01*
X14192144Y-9358856D01*
X14262856Y-9358856D01*
X14262856Y-9612856D02*
X14262856Y-9542144D01*
X14192144Y-9542144D01*
X14192144Y-9612856D01*
X14262856Y-9612856D01*
X14262856Y-9866856D02*
X14262856Y-9796144D01*
X14192144Y-9796144D01*
X14192144Y-9866856D01*
X14262856Y-9866856D01*
X14262856Y-10120856D02*
X14262856Y-10050144D01*
X14192144Y-10050144D01*
X14192144Y-10120856D01*
X14262856Y-10120856D01*
X14262856Y-10374856D02*
X14262856Y-10304144D01*
X14192144Y-10304144D01*
X14192144Y-10374856D01*
X14262856Y-10374856D01*
X14262856Y-10628856D02*
X14262856Y-10558144D01*
X14192144Y-10558144D01*
X14192144Y-10628856D01*
X14262856Y-10628856D01*
X14262856Y-10882856D02*
X14262856Y-10812144D01*
X14192144Y-10812144D01*
X14192144Y-10882856D01*
X14262856Y-10882856D01*
X14262856Y-11136856D02*
X14262856Y-11066144D01*
X14192144Y-11066144D01*
X14192144Y-11136856D01*
X14262856Y-11136856D01*
X14262856Y-11390856D02*
X14262856Y-11320144D01*
X14192144Y-11320144D01*
X14192144Y-11390856D01*
X14262856Y-11390856D01*
X14262856Y-11644856D02*
X14262856Y-11574144D01*
X14192144Y-11574144D01*
X14192144Y-11644856D01*
X14262856Y-11644856D01*
X14980856Y-13638856D02*
X14980856Y-13568144D01*
X14910144Y-13568144D01*
X14910144Y-13638856D01*
X14980856Y-13638856D01*
X15234856Y-13638856D02*
X15234856Y-13568144D01*
X15164144Y-13568144D01*
X15164144Y-13638856D01*
X15234856Y-13638856D01*
X15412856Y-6406856D02*
X15412856Y-6336144D01*
X15342144Y-6336144D01*
X15342144Y-6406856D01*
X15412856Y-6406856D01*
X15412856Y-6660856D02*
X15412856Y-6590144D01*
X15342144Y-6590144D01*
X15342144Y-6660856D01*
X15412856Y-6660856D01*
X15412856Y-6914856D02*
X15412856Y-6844144D01*
X15342144Y-6844144D01*
X15342144Y-6914856D01*
X15412856Y-6914856D01*
X15412856Y-7168856D02*
X15412856Y-7098144D01*
X15342144Y-7098144D01*
X15342144Y-7168856D01*
X15412856Y-7168856D01*
X15412856Y-7422856D02*
X15412856Y-7352144D01*
X15342144Y-7352144D01*
X15342144Y-7422856D01*
X15412856Y-7422856D01*
X15412856Y-7676856D02*
X15412856Y-7606144D01*
X15342144Y-7606144D01*
X15342144Y-7676856D01*
X15412856Y-7676856D01*
X15412856Y-7930856D02*
X15412856Y-7860144D01*
X15342144Y-7860144D01*
X15342144Y-7930856D01*
X15412856Y-7930856D01*
X15412856Y-8184856D02*
X15412856Y-8114144D01*
X15342144Y-8114144D01*
X15342144Y-8184856D01*
X15412856Y-8184856D01*
X15412856Y-8438856D02*
X15412856Y-8368144D01*
X15342144Y-8368144D01*
X15342144Y-8438856D01*
X15412856Y-8438856D01*
X15488856Y-13638856D02*
X15488856Y-13568144D01*
X15418144Y-13568144D01*
X15418144Y-13638856D01*
X15488856Y-13638856D01*
X15742856Y-13638856D02*
X15742856Y-13568144D01*
X15672144Y-13568144D01*
X15672144Y-13638856D01*
X15742856Y-13638856D01*
X16848856Y-8193856D02*
X16848856Y-8123144D01*
X16778144Y-8123144D01*
X16778144Y-8193856D01*
X16848856Y-8193856D01*
X16910856Y-13638856D02*
X16910856Y-13568144D01*
X16840144Y-13568144D01*
X16840144Y-13638856D01*
X16910856Y-13638856D01*
X16912856Y-12138856D02*
X16912856Y-12068144D01*
X16842144Y-12068144D01*
X16842144Y-12138856D01*
X16912856Y-12138856D01*
X17102856Y-8193856D02*
X17102856Y-8123144D01*
X17032144Y-8123144D01*
X17032144Y-8193856D01*
X17102856Y-8193856D01*
X17164856Y-13638856D02*
X17164856Y-13568144D01*
X17094144Y-13568144D01*
X17094144Y-13638856D01*
X17164856Y-13638856D01*
X17166856Y-12138856D02*
X17166856Y-12068144D01*
X17096144Y-12068144D01*
X17096144Y-12138856D01*
X17166856Y-12138856D01*
X17356856Y-8193856D02*
X17356856Y-8123144D01*
X17286144Y-8123144D01*
X17286144Y-8193856D01*
X17356856Y-8193856D01*
X17418856Y-13638856D02*
X17418856Y-13568144D01*
X17348144Y-13568144D01*
X17348144Y-13638856D01*
X17418856Y-13638856D01*
X17420856Y-12138856D02*
X17420856Y-12068144D01*
X17350144Y-12068144D01*
X17350144Y-12138856D01*
X17420856Y-12138856D01*
X17672856Y-13638856D02*
X17672856Y-13568144D01*
X17602144Y-13568144D01*
X17602144Y-13638856D01*
X17672856Y-13638856D01*
X17674856Y-12138856D02*
X17674856Y-12068144D01*
X17604144Y-12068144D01*
X17604144Y-12138856D01*
X17674856Y-12138856D01*
X17926856Y-13638856D02*
X17926856Y-13568144D01*
X17856144Y-13568144D01*
X17856144Y-13638856D01*
X17926856Y-13638856D01*
X17928856Y-12138856D02*
X17928856Y-12068144D01*
X17858144Y-12068144D01*
X17858144Y-12138856D01*
X17928856Y-12138856D01*
X18180856Y-13638856D02*
X18180856Y-13568144D01*
X18110144Y-13568144D01*
X18110144Y-13638856D01*
X18180856Y-13638856D01*
X18182856Y-12138856D02*
X18182856Y-12068144D01*
X18112144Y-12068144D01*
X18112144Y-12138856D01*
X18182856Y-12138856D01*
X18434856Y-13638856D02*
X18434856Y-13568144D01*
X18364144Y-13568144D01*
X18364144Y-13638856D01*
X18434856Y-13638856D01*
X18436856Y-12138856D02*
X18436856Y-12068144D01*
X18366144Y-12068144D01*
X18366144Y-12138856D01*
X18436856Y-12138856D01*
X18688856Y-13638856D02*
X18688856Y-13568144D01*
X18618144Y-13568144D01*
X18618144Y-13638856D01*
X18688856Y-13638856D01*
X18690856Y-12138856D02*
X18690856Y-12068144D01*
X18620144Y-12068144D01*
X18620144Y-12138856D01*
X18690856Y-12138856D01*
X18936356Y-7732856D02*
X18936356Y-7662144D01*
X18865644Y-7662144D01*
X18865644Y-7732856D01*
X18936356Y-7732856D01*
X18936356Y-7986856D02*
X18936356Y-7916144D01*
X18865644Y-7916144D01*
X18865644Y-7986856D01*
X18936356Y-7986856D01*
X18936356Y-8240856D02*
X18936356Y-8170144D01*
X18865644Y-8170144D01*
X18865644Y-8240856D01*
X18936356Y-8240856D01*
X18936356Y-8494856D02*
X18936356Y-8424144D01*
X18865644Y-8424144D01*
X18865644Y-8494856D01*
X18936356Y-8494856D01*
X18936356Y-8748856D02*
X18936356Y-8678144D01*
X18865644Y-8678144D01*
X18865644Y-8748856D01*
X18936356Y-8748856D01*
X18936356Y-9002856D02*
X18936356Y-8932144D01*
X18865644Y-8932144D01*
X18865644Y-9002856D01*
X18936356Y-9002856D01*
X18936356Y-9256856D02*
X18936356Y-9186144D01*
X18865644Y-9186144D01*
X18865644Y-9256856D01*
X18936356Y-9256856D01*
X18936356Y-9510856D02*
X18936356Y-9440144D01*
X18865644Y-9440144D01*
X18865644Y-9510856D01*
X18936356Y-9510856D01*
X18936356Y-9764856D02*
X18936356Y-9694144D01*
X18865644Y-9694144D01*
X18865644Y-9764856D01*
X18936356Y-9764856D01*
X18942856Y-13638856D02*
X18942856Y-13568144D01*
X18872144Y-13568144D01*
X18872144Y-13638856D01*
X18942856Y-13638856D01*
X18944856Y-12138856D02*
X18944856Y-12068144D01*
X18874144Y-12068144D01*
X18874144Y-12138856D01*
X18944856Y-12138856D01*
X23986356Y-14290356D02*
X23986356Y-14219644D01*
X23915644Y-14219644D01*
X23915644Y-14290356D01*
X23986356Y-14290356D01*
X24240356Y-14290356D02*
X24240356Y-14219644D01*
X24169644Y-14219644D01*
X24169644Y-14290356D01*
X24240356Y-14290356D01*
X24494356Y-14290356D02*
X24494356Y-14219644D01*
X24423644Y-14219644D01*
X24423644Y-14290356D01*
X24494356Y-14290356D01*
X25320356Y-7889356D02*
X25320356Y-7818644D01*
X25249644Y-7818644D01*
X25249644Y-7889356D01*
X25320356Y-7889356D01*
X25320356Y-8143356D02*
X25320356Y-8072644D01*
X25249644Y-8072644D01*
X25249644Y-8143356D01*
X25320356Y-8143356D01*
X25320356Y-8397356D02*
X25320356Y-8326644D01*
X25249644Y-8326644D01*
X25249644Y-8397356D01*
X25320356Y-8397356D01*
X25320356Y-8651356D02*
X25320356Y-8580644D01*
X25249644Y-8580644D01*
X25249644Y-8651356D01*
X25320356Y-8651356D01*
X25320356Y-8905356D02*
X25320356Y-8834644D01*
X25249644Y-8834644D01*
X25249644Y-8905356D01*
X25320356Y-8905356D01*
X25320356Y-9159356D02*
X25320356Y-9088644D01*
X25249644Y-9088644D01*
X25249644Y-9159356D01*
X25320356Y-9159356D01*
X25320356Y-9413356D02*
X25320356Y-9342644D01*
X25249644Y-9342644D01*
X25249644Y-9413356D01*
X25320356Y-9413356D01*
X25320356Y-9667356D02*
X25320356Y-9596644D01*
X25249644Y-9596644D01*
X25249644Y-9667356D01*
X25320356Y-9667356D01*
X25320356Y-9921356D02*
X25320356Y-9850644D01*
X25249644Y-9850644D01*
X25249644Y-9921356D01*
X25320356Y-9921356D01*
D13*
X19332500Y-14258500D02*
X19387500Y-14203500D01*
X19332500Y-14148500D01*
X19277500Y-14203500D01*
X19332500Y-14258500D01*
X19582500Y-14258500D02*
X19637500Y-14203500D01*
X19582500Y-14148500D01*
X19527500Y-14203500D01*
X19582500Y-14258500D01*
X19832500Y-14258500D02*
X19887500Y-14203500D01*
X19832500Y-14148500D01*
X19777500Y-14203500D01*
X19832500Y-14258500D01*
X20082500Y-14258500D02*
X20137500Y-14203500D01*
X20082500Y-14148500D01*
X20027500Y-14203500D01*
X20082500Y-14258500D01*
D14*
X4438000Y-13255000D02*
X4558000Y-13375000D01*
X4558000Y-13255000D02*
X4438000Y-13375000D01*
X4558000Y-13315000D02*
G75*
G02*
X4438000Y-13315000I-60000J0D01*
G01*
X4438000Y-13315000D02*
G75*
G02*
X4558000Y-13315000I60000J0D01*
G01*
X5962000Y-13255000D02*
X6082000Y-13375000D01*
X6082000Y-13255000D02*
X5962000Y-13375000D01*
X6082000Y-13315000D02*
G75*
G02*
X5962000Y-13315000I-60000J0D01*
G01*
X5962000Y-13315000D02*
G75*
G02*
X6082000Y-13315000I60000J0D01*
G01*
D15*
X4495000Y-14150000D02*
X4625000Y-14280000D01*
X4625000Y-14150000D02*
X4495000Y-14280000D01*
X4560000Y-14150000D02*
X4560000Y-14280000D01*
X4495000Y-14215000D02*
X4625000Y-14215000D01*
X4995000Y-14150000D02*
X5125000Y-14280000D01*
X5125000Y-14150000D02*
X4995000Y-14280000D01*
X5060000Y-14150000D02*
X5060000Y-14280000D01*
X4995000Y-14215000D02*
X5125000Y-14215000D01*
D11*
X3495777Y-15296484D02*
X3495777Y-15096484D01*
X3495777Y-15096484D02*
X3543396Y-15096484D01*
X3543396Y-15096484D02*
X3571967Y-15106008D01*
X3571967Y-15106008D02*
X3591015Y-15125055D01*
X3591015Y-15125055D02*
X3600539Y-15144103D01*
X3600539Y-15144103D02*
X3610062Y-15182198D01*
X3610062Y-15182198D02*
X3610062Y-15210769D01*
X3610062Y-15210769D02*
X3600539Y-15248865D01*
X3600539Y-15248865D02*
X3591015Y-15267912D01*
X3591015Y-15267912D02*
X3571967Y-15286960D01*
X3571967Y-15286960D02*
X3543396Y-15296484D01*
X3543396Y-15296484D02*
X3495777Y-15296484D01*
X3695777Y-15296484D02*
X3695777Y-15163150D01*
X3695777Y-15201246D02*
X3705301Y-15182198D01*
X3705301Y-15182198D02*
X3714824Y-15172674D01*
X3714824Y-15172674D02*
X3733872Y-15163150D01*
X3733872Y-15163150D02*
X3752920Y-15163150D01*
X3819586Y-15296484D02*
X3819586Y-15163150D01*
X3819586Y-15096484D02*
X3810062Y-15106008D01*
X3810062Y-15106008D02*
X3819586Y-15115531D01*
X3819586Y-15115531D02*
X3829110Y-15106008D01*
X3829110Y-15106008D02*
X3819586Y-15096484D01*
X3819586Y-15096484D02*
X3819586Y-15115531D01*
X3943396Y-15296484D02*
X3924348Y-15286960D01*
X3924348Y-15286960D02*
X3914824Y-15267912D01*
X3914824Y-15267912D02*
X3914824Y-15096484D01*
X4048158Y-15296484D02*
X4029110Y-15286960D01*
X4029110Y-15286960D02*
X4019586Y-15267912D01*
X4019586Y-15267912D02*
X4019586Y-15096484D01*
X4276729Y-15296484D02*
X4276729Y-15096484D01*
X4276729Y-15096484D02*
X4343396Y-15239341D01*
X4343396Y-15239341D02*
X4410063Y-15096484D01*
X4410063Y-15096484D02*
X4410063Y-15296484D01*
X4591015Y-15296484D02*
X4591015Y-15191722D01*
X4591015Y-15191722D02*
X4581491Y-15172674D01*
X4581491Y-15172674D02*
X4562444Y-15163150D01*
X4562444Y-15163150D02*
X4524348Y-15163150D01*
X4524348Y-15163150D02*
X4505301Y-15172674D01*
X4591015Y-15286960D02*
X4571967Y-15296484D01*
X4571967Y-15296484D02*
X4524348Y-15296484D01*
X4524348Y-15296484D02*
X4505301Y-15286960D01*
X4505301Y-15286960D02*
X4495777Y-15267912D01*
X4495777Y-15267912D02*
X4495777Y-15248865D01*
X4495777Y-15248865D02*
X4505301Y-15229817D01*
X4505301Y-15229817D02*
X4524348Y-15220293D01*
X4524348Y-15220293D02*
X4571967Y-15220293D01*
X4571967Y-15220293D02*
X4591015Y-15210769D01*
X4686253Y-15163150D02*
X4686253Y-15363150D01*
X4686253Y-15172674D02*
X4705301Y-15163150D01*
X4705301Y-15163150D02*
X4743396Y-15163150D01*
X4743396Y-15163150D02*
X4762444Y-15172674D01*
X4762444Y-15172674D02*
X4771967Y-15182198D01*
X4771967Y-15182198D02*
X4781491Y-15201246D01*
X4781491Y-15201246D02*
X4781491Y-15258388D01*
X4781491Y-15258388D02*
X4771967Y-15277436D01*
X4771967Y-15277436D02*
X4762444Y-15286960D01*
X4762444Y-15286960D02*
X4743396Y-15296484D01*
X4743396Y-15296484D02*
X4705301Y-15296484D01*
X4705301Y-15296484D02*
X4686253Y-15286960D01*
X4867205Y-15277436D02*
X4876729Y-15286960D01*
X4876729Y-15286960D02*
X4867205Y-15296484D01*
X4867205Y-15296484D02*
X4857682Y-15286960D01*
X4857682Y-15286960D02*
X4867205Y-15277436D01*
X4867205Y-15277436D02*
X4867205Y-15296484D01*
X4867205Y-15172674D02*
X4876729Y-15182198D01*
X4876729Y-15182198D02*
X4867205Y-15191722D01*
X4867205Y-15191722D02*
X4857682Y-15182198D01*
X4857682Y-15182198D02*
X4867205Y-15172674D01*
X4867205Y-15172674D02*
X4867205Y-15191722D01*
D12*
X3195000Y-15605000D02*
X3235000Y-15645000D01*
X3235000Y-15605000D02*
X3195000Y-15645000D01*
D11*
X3533872Y-15516484D02*
X3552920Y-15516484D01*
X3552920Y-15516484D02*
X3571967Y-15526008D01*
X3571967Y-15526008D02*
X3581491Y-15535531D01*
X3581491Y-15535531D02*
X3591015Y-15554579D01*
X3591015Y-15554579D02*
X3600539Y-15592674D01*
X3600539Y-15592674D02*
X3600539Y-15640293D01*
X3600539Y-15640293D02*
X3591015Y-15678388D01*
X3591015Y-15678388D02*
X3581491Y-15697436D01*
X3581491Y-15697436D02*
X3571967Y-15706960D01*
X3571967Y-15706960D02*
X3552920Y-15716484D01*
X3552920Y-15716484D02*
X3533872Y-15716484D01*
X3533872Y-15716484D02*
X3514824Y-15706960D01*
X3514824Y-15706960D02*
X3505301Y-15697436D01*
X3505301Y-15697436D02*
X3495777Y-15678388D01*
X3495777Y-15678388D02*
X3486253Y-15640293D01*
X3486253Y-15640293D02*
X3486253Y-15592674D01*
X3486253Y-15592674D02*
X3495777Y-15554579D01*
X3495777Y-15554579D02*
X3505301Y-15535531D01*
X3505301Y-15535531D02*
X3514824Y-15526008D01*
X3514824Y-15526008D02*
X3533872Y-15516484D01*
X3686253Y-15697436D02*
X3695777Y-15706960D01*
X3695777Y-15706960D02*
X3686253Y-15716484D01*
X3686253Y-15716484D02*
X3676729Y-15706960D01*
X3676729Y-15706960D02*
X3686253Y-15697436D01*
X3686253Y-15697436D02*
X3686253Y-15716484D01*
X3867205Y-15583150D02*
X3867205Y-15716484D01*
X3819586Y-15506960D02*
X3771967Y-15649817D01*
X3771967Y-15649817D02*
X3895777Y-15649817D01*
X4010062Y-15516484D02*
X4029110Y-15516484D01*
X4029110Y-15516484D02*
X4048158Y-15526008D01*
X4048158Y-15526008D02*
X4057682Y-15535531D01*
X4057682Y-15535531D02*
X4067205Y-15554579D01*
X4067205Y-15554579D02*
X4076729Y-15592674D01*
X4076729Y-15592674D02*
X4076729Y-15640293D01*
X4076729Y-15640293D02*
X4067205Y-15678388D01*
X4067205Y-15678388D02*
X4057682Y-15697436D01*
X4057682Y-15697436D02*
X4048158Y-15706960D01*
X4048158Y-15706960D02*
X4029110Y-15716484D01*
X4029110Y-15716484D02*
X4010062Y-15716484D01*
X4010062Y-15716484D02*
X3991015Y-15706960D01*
X3991015Y-15706960D02*
X3981491Y-15697436D01*
X3981491Y-15697436D02*
X3971967Y-15678388D01*
X3971967Y-15678388D02*
X3962443Y-15640293D01*
X3962443Y-15640293D02*
X3962443Y-15592674D01*
X3962443Y-15592674D02*
X3971967Y-15554579D01*
X3971967Y-15554579D02*
X3981491Y-15535531D01*
X3981491Y-15535531D02*
X3991015Y-15526008D01*
X3991015Y-15526008D02*
X4010062Y-15516484D01*
X4200539Y-15516484D02*
X4219586Y-15516484D01*
X4219586Y-15516484D02*
X4238634Y-15526008D01*
X4238634Y-15526008D02*
X4248158Y-15535531D01*
X4248158Y-15535531D02*
X4257682Y-15554579D01*
X4257682Y-15554579D02*
X4267205Y-15592674D01*
X4267205Y-15592674D02*
X4267205Y-15640293D01*
X4267205Y-15640293D02*
X4257682Y-15678388D01*
X4257682Y-15678388D02*
X4248158Y-15697436D01*
X4248158Y-15697436D02*
X4238634Y-15706960D01*
X4238634Y-15706960D02*
X4219586Y-15716484D01*
X4219586Y-15716484D02*
X4200539Y-15716484D01*
X4200539Y-15716484D02*
X4181491Y-15706960D01*
X4181491Y-15706960D02*
X4171967Y-15697436D01*
X4171967Y-15697436D02*
X4162443Y-15678388D01*
X4162443Y-15678388D02*
X4152920Y-15640293D01*
X4152920Y-15640293D02*
X4152920Y-15592674D01*
X4152920Y-15592674D02*
X4162443Y-15554579D01*
X4162443Y-15554579D02*
X4171967Y-15535531D01*
X4171967Y-15535531D02*
X4181491Y-15526008D01*
X4181491Y-15526008D02*
X4200539Y-15516484D01*
X4352920Y-15716484D02*
X4352920Y-15583150D01*
X4352920Y-15602198D02*
X4362444Y-15592674D01*
X4362444Y-15592674D02*
X4381491Y-15583150D01*
X4381491Y-15583150D02*
X4410063Y-15583150D01*
X4410063Y-15583150D02*
X4429110Y-15592674D01*
X4429110Y-15592674D02*
X4438634Y-15611722D01*
X4438634Y-15611722D02*
X4438634Y-15716484D01*
X4438634Y-15611722D02*
X4448158Y-15592674D01*
X4448158Y-15592674D02*
X4467205Y-15583150D01*
X4467205Y-15583150D02*
X4495777Y-15583150D01*
X4495777Y-15583150D02*
X4514825Y-15592674D01*
X4514825Y-15592674D02*
X4524348Y-15611722D01*
X4524348Y-15611722D02*
X4524348Y-15716484D01*
X4619586Y-15716484D02*
X4619586Y-15583150D01*
X4619586Y-15602198D02*
X4629110Y-15592674D01*
X4629110Y-15592674D02*
X4648158Y-15583150D01*
X4648158Y-15583150D02*
X4676729Y-15583150D01*
X4676729Y-15583150D02*
X4695777Y-15592674D01*
X4695777Y-15592674D02*
X4705301Y-15611722D01*
X4705301Y-15611722D02*
X4705301Y-15716484D01*
X4705301Y-15611722D02*
X4714825Y-15592674D01*
X4714825Y-15592674D02*
X4733872Y-15583150D01*
X4733872Y-15583150D02*
X4762444Y-15583150D01*
X4762444Y-15583150D02*
X4781491Y-15592674D01*
X4781491Y-15592674D02*
X4791015Y-15611722D01*
X4791015Y-15611722D02*
X4791015Y-15716484D01*
X5181491Y-15506960D02*
X5010063Y-15764103D01*
X5438634Y-15516484D02*
X5457682Y-15516484D01*
X5457682Y-15516484D02*
X5476729Y-15526008D01*
X5476729Y-15526008D02*
X5486253Y-15535531D01*
X5486253Y-15535531D02*
X5495777Y-15554579D01*
X5495777Y-15554579D02*
X5505301Y-15592674D01*
X5505301Y-15592674D02*
X5505301Y-15640293D01*
X5505301Y-15640293D02*
X5495777Y-15678388D01*
X5495777Y-15678388D02*
X5486253Y-15697436D01*
X5486253Y-15697436D02*
X5476729Y-15706960D01*
X5476729Y-15706960D02*
X5457682Y-15716484D01*
X5457682Y-15716484D02*
X5438634Y-15716484D01*
X5438634Y-15716484D02*
X5419587Y-15706960D01*
X5419587Y-15706960D02*
X5410063Y-15697436D01*
X5410063Y-15697436D02*
X5400539Y-15678388D01*
X5400539Y-15678388D02*
X5391015Y-15640293D01*
X5391015Y-15640293D02*
X5391015Y-15592674D01*
X5391015Y-15592674D02*
X5400539Y-15554579D01*
X5400539Y-15554579D02*
X5410063Y-15535531D01*
X5410063Y-15535531D02*
X5419587Y-15526008D01*
X5419587Y-15526008D02*
X5438634Y-15516484D01*
X5591015Y-15697436D02*
X5600539Y-15706960D01*
X5600539Y-15706960D02*
X5591015Y-15716484D01*
X5591015Y-15716484D02*
X5581491Y-15706960D01*
X5581491Y-15706960D02*
X5591015Y-15697436D01*
X5591015Y-15697436D02*
X5591015Y-15716484D01*
X5724348Y-15516484D02*
X5743396Y-15516484D01*
X5743396Y-15516484D02*
X5762444Y-15526008D01*
X5762444Y-15526008D02*
X5771967Y-15535531D01*
X5771967Y-15535531D02*
X5781491Y-15554579D01*
X5781491Y-15554579D02*
X5791015Y-15592674D01*
X5791015Y-15592674D02*
X5791015Y-15640293D01*
X5791015Y-15640293D02*
X5781491Y-15678388D01*
X5781491Y-15678388D02*
X5771967Y-15697436D01*
X5771967Y-15697436D02*
X5762444Y-15706960D01*
X5762444Y-15706960D02*
X5743396Y-15716484D01*
X5743396Y-15716484D02*
X5724348Y-15716484D01*
X5724348Y-15716484D02*
X5705301Y-15706960D01*
X5705301Y-15706960D02*
X5695777Y-15697436D01*
X5695777Y-15697436D02*
X5686253Y-15678388D01*
X5686253Y-15678388D02*
X5676729Y-15640293D01*
X5676729Y-15640293D02*
X5676729Y-15592674D01*
X5676729Y-15592674D02*
X5686253Y-15554579D01*
X5686253Y-15554579D02*
X5695777Y-15535531D01*
X5695777Y-15535531D02*
X5705301Y-15526008D01*
X5705301Y-15526008D02*
X5724348Y-15516484D01*
X5981491Y-15716484D02*
X5867206Y-15716484D01*
X5924348Y-15716484D02*
X5924348Y-15516484D01*
X5924348Y-15516484D02*
X5905301Y-15545055D01*
X5905301Y-15545055D02*
X5886253Y-15564103D01*
X5886253Y-15564103D02*
X5867206Y-15573627D01*
X6162444Y-15516484D02*
X6067206Y-15516484D01*
X6067206Y-15516484D02*
X6057682Y-15611722D01*
X6057682Y-15611722D02*
X6067206Y-15602198D01*
X6067206Y-15602198D02*
X6086253Y-15592674D01*
X6086253Y-15592674D02*
X6133872Y-15592674D01*
X6133872Y-15592674D02*
X6152920Y-15602198D01*
X6152920Y-15602198D02*
X6162444Y-15611722D01*
X6162444Y-15611722D02*
X6171967Y-15630769D01*
X6171967Y-15630769D02*
X6171967Y-15678388D01*
X6171967Y-15678388D02*
X6162444Y-15697436D01*
X6162444Y-15697436D02*
X6152920Y-15706960D01*
X6152920Y-15706960D02*
X6133872Y-15716484D01*
X6133872Y-15716484D02*
X6086253Y-15716484D01*
X6086253Y-15716484D02*
X6067206Y-15706960D01*
X6067206Y-15706960D02*
X6057682Y-15697436D01*
X6238634Y-15516484D02*
X6371967Y-15516484D01*
X6371967Y-15516484D02*
X6286253Y-15716484D01*
X6438634Y-15516484D02*
X6438634Y-15554579D01*
X6514825Y-15516484D02*
X6514825Y-15554579D01*
X6810063Y-15792674D02*
X6800539Y-15783150D01*
X6800539Y-15783150D02*
X6781491Y-15754579D01*
X6781491Y-15754579D02*
X6771968Y-15735531D01*
X6771968Y-15735531D02*
X6762444Y-15706960D01*
X6762444Y-15706960D02*
X6752920Y-15659341D01*
X6752920Y-15659341D02*
X6752920Y-15621246D01*
X6752920Y-15621246D02*
X6762444Y-15573627D01*
X6762444Y-15573627D02*
X6771968Y-15545055D01*
X6771968Y-15545055D02*
X6781491Y-15526008D01*
X6781491Y-15526008D02*
X6800539Y-15497436D01*
X6800539Y-15497436D02*
X6810063Y-15487912D01*
X6971968Y-15583150D02*
X6971968Y-15716484D01*
X6924348Y-15506960D02*
X6876729Y-15649817D01*
X6876729Y-15649817D02*
X7000539Y-15649817D01*
X7229110Y-15716484D02*
X7229110Y-15516484D01*
X7314825Y-15716484D02*
X7314825Y-15611722D01*
X7314825Y-15611722D02*
X7305301Y-15592674D01*
X7305301Y-15592674D02*
X7286253Y-15583150D01*
X7286253Y-15583150D02*
X7257682Y-15583150D01*
X7257682Y-15583150D02*
X7238634Y-15592674D01*
X7238634Y-15592674D02*
X7229110Y-15602198D01*
X7438634Y-15716484D02*
X7419587Y-15706960D01*
X7419587Y-15706960D02*
X7410063Y-15697436D01*
X7410063Y-15697436D02*
X7400539Y-15678388D01*
X7400539Y-15678388D02*
X7400539Y-15621246D01*
X7400539Y-15621246D02*
X7410063Y-15602198D01*
X7410063Y-15602198D02*
X7419587Y-15592674D01*
X7419587Y-15592674D02*
X7438634Y-15583150D01*
X7438634Y-15583150D02*
X7467206Y-15583150D01*
X7467206Y-15583150D02*
X7486253Y-15592674D01*
X7486253Y-15592674D02*
X7495777Y-15602198D01*
X7495777Y-15602198D02*
X7505301Y-15621246D01*
X7505301Y-15621246D02*
X7505301Y-15678388D01*
X7505301Y-15678388D02*
X7495777Y-15697436D01*
X7495777Y-15697436D02*
X7486253Y-15706960D01*
X7486253Y-15706960D02*
X7467206Y-15716484D01*
X7467206Y-15716484D02*
X7438634Y-15716484D01*
X7619587Y-15716484D02*
X7600539Y-15706960D01*
X7600539Y-15706960D02*
X7591015Y-15687912D01*
X7591015Y-15687912D02*
X7591015Y-15516484D01*
X7771968Y-15706960D02*
X7752920Y-15716484D01*
X7752920Y-15716484D02*
X7714825Y-15716484D01*
X7714825Y-15716484D02*
X7695777Y-15706960D01*
X7695777Y-15706960D02*
X7686253Y-15687912D01*
X7686253Y-15687912D02*
X7686253Y-15611722D01*
X7686253Y-15611722D02*
X7695777Y-15592674D01*
X7695777Y-15592674D02*
X7714825Y-15583150D01*
X7714825Y-15583150D02*
X7752920Y-15583150D01*
X7752920Y-15583150D02*
X7771968Y-15592674D01*
X7771968Y-15592674D02*
X7781491Y-15611722D01*
X7781491Y-15611722D02*
X7781491Y-15630769D01*
X7781491Y-15630769D02*
X7686253Y-15649817D01*
X7857682Y-15706960D02*
X7876730Y-15716484D01*
X7876730Y-15716484D02*
X7914825Y-15716484D01*
X7914825Y-15716484D02*
X7933872Y-15706960D01*
X7933872Y-15706960D02*
X7943396Y-15687912D01*
X7943396Y-15687912D02*
X7943396Y-15678388D01*
X7943396Y-15678388D02*
X7933872Y-15659341D01*
X7933872Y-15659341D02*
X7914825Y-15649817D01*
X7914825Y-15649817D02*
X7886253Y-15649817D01*
X7886253Y-15649817D02*
X7867206Y-15640293D01*
X7867206Y-15640293D02*
X7857682Y-15621246D01*
X7857682Y-15621246D02*
X7857682Y-15611722D01*
X7857682Y-15611722D02*
X7867206Y-15592674D01*
X7867206Y-15592674D02*
X7886253Y-15583150D01*
X7886253Y-15583150D02*
X7914825Y-15583150D01*
X7914825Y-15583150D02*
X7933872Y-15592674D01*
X8010063Y-15792674D02*
X8019587Y-15783150D01*
X8019587Y-15783150D02*
X8038634Y-15754579D01*
X8038634Y-15754579D02*
X8048158Y-15735531D01*
X8048158Y-15735531D02*
X8057682Y-15706960D01*
X8057682Y-15706960D02*
X8067206Y-15659341D01*
X8067206Y-15659341D02*
X8067206Y-15621246D01*
X8067206Y-15621246D02*
X8057682Y-15573627D01*
X8057682Y-15573627D02*
X8048158Y-15545055D01*
X8048158Y-15545055D02*
X8038634Y-15526008D01*
X8038634Y-15526008D02*
X8019587Y-15497436D01*
X8019587Y-15497436D02*
X8010063Y-15487912D01*
D12*
X3235000Y-15889000D02*
G75*
G02*
X3155000Y-15889000I-40000J0D01*
G01*
X3155000Y-15889000D02*
G75*
G02*
X3235000Y-15889000I40000J0D01*
G01*
D11*
X3533872Y-15780484D02*
X3552920Y-15780484D01*
X3552920Y-15780484D02*
X3571967Y-15790008D01*
X3571967Y-15790008D02*
X3581491Y-15799531D01*
X3581491Y-15799531D02*
X3591015Y-15818579D01*
X3591015Y-15818579D02*
X3600539Y-15856674D01*
X3600539Y-15856674D02*
X3600539Y-15904293D01*
X3600539Y-15904293D02*
X3591015Y-15942388D01*
X3591015Y-15942388D02*
X3581491Y-15961436D01*
X3581491Y-15961436D02*
X3571967Y-15970960D01*
X3571967Y-15970960D02*
X3552920Y-15980484D01*
X3552920Y-15980484D02*
X3533872Y-15980484D01*
X3533872Y-15980484D02*
X3514824Y-15970960D01*
X3514824Y-15970960D02*
X3505301Y-15961436D01*
X3505301Y-15961436D02*
X3495777Y-15942388D01*
X3495777Y-15942388D02*
X3486253Y-15904293D01*
X3486253Y-15904293D02*
X3486253Y-15856674D01*
X3486253Y-15856674D02*
X3495777Y-15818579D01*
X3495777Y-15818579D02*
X3505301Y-15799531D01*
X3505301Y-15799531D02*
X3514824Y-15790008D01*
X3514824Y-15790008D02*
X3533872Y-15780484D01*
X3686253Y-15961436D02*
X3695777Y-15970960D01*
X3695777Y-15970960D02*
X3686253Y-15980484D01*
X3686253Y-15980484D02*
X3676729Y-15970960D01*
X3676729Y-15970960D02*
X3686253Y-15961436D01*
X3686253Y-15961436D02*
X3686253Y-15980484D01*
X3810062Y-15866198D02*
X3791015Y-15856674D01*
X3791015Y-15856674D02*
X3781491Y-15847150D01*
X3781491Y-15847150D02*
X3771967Y-15828103D01*
X3771967Y-15828103D02*
X3771967Y-15818579D01*
X3771967Y-15818579D02*
X3781491Y-15799531D01*
X3781491Y-15799531D02*
X3791015Y-15790008D01*
X3791015Y-15790008D02*
X3810062Y-15780484D01*
X3810062Y-15780484D02*
X3848158Y-15780484D01*
X3848158Y-15780484D02*
X3867205Y-15790008D01*
X3867205Y-15790008D02*
X3876729Y-15799531D01*
X3876729Y-15799531D02*
X3886253Y-15818579D01*
X3886253Y-15818579D02*
X3886253Y-15828103D01*
X3886253Y-15828103D02*
X3876729Y-15847150D01*
X3876729Y-15847150D02*
X3867205Y-15856674D01*
X3867205Y-15856674D02*
X3848158Y-15866198D01*
X3848158Y-15866198D02*
X3810062Y-15866198D01*
X3810062Y-15866198D02*
X3791015Y-15875722D01*
X3791015Y-15875722D02*
X3781491Y-15885246D01*
X3781491Y-15885246D02*
X3771967Y-15904293D01*
X3771967Y-15904293D02*
X3771967Y-15942388D01*
X3771967Y-15942388D02*
X3781491Y-15961436D01*
X3781491Y-15961436D02*
X3791015Y-15970960D01*
X3791015Y-15970960D02*
X3810062Y-15980484D01*
X3810062Y-15980484D02*
X3848158Y-15980484D01*
X3848158Y-15980484D02*
X3867205Y-15970960D01*
X3867205Y-15970960D02*
X3876729Y-15961436D01*
X3876729Y-15961436D02*
X3886253Y-15942388D01*
X3886253Y-15942388D02*
X3886253Y-15904293D01*
X3886253Y-15904293D02*
X3876729Y-15885246D01*
X3876729Y-15885246D02*
X3867205Y-15875722D01*
X3867205Y-15875722D02*
X3848158Y-15866198D01*
X4010062Y-15780484D02*
X4029110Y-15780484D01*
X4029110Y-15780484D02*
X4048158Y-15790008D01*
X4048158Y-15790008D02*
X4057682Y-15799531D01*
X4057682Y-15799531D02*
X4067205Y-15818579D01*
X4067205Y-15818579D02*
X4076729Y-15856674D01*
X4076729Y-15856674D02*
X4076729Y-15904293D01*
X4076729Y-15904293D02*
X4067205Y-15942388D01*
X4067205Y-15942388D02*
X4057682Y-15961436D01*
X4057682Y-15961436D02*
X4048158Y-15970960D01*
X4048158Y-15970960D02*
X4029110Y-15980484D01*
X4029110Y-15980484D02*
X4010062Y-15980484D01*
X4010062Y-15980484D02*
X3991015Y-15970960D01*
X3991015Y-15970960D02*
X3981491Y-15961436D01*
X3981491Y-15961436D02*
X3971967Y-15942388D01*
X3971967Y-15942388D02*
X3962443Y-15904293D01*
X3962443Y-15904293D02*
X3962443Y-15856674D01*
X3962443Y-15856674D02*
X3971967Y-15818579D01*
X3971967Y-15818579D02*
X3981491Y-15799531D01*
X3981491Y-15799531D02*
X3991015Y-15790008D01*
X3991015Y-15790008D02*
X4010062Y-15780484D01*
X4200539Y-15780484D02*
X4219586Y-15780484D01*
X4219586Y-15780484D02*
X4238634Y-15790008D01*
X4238634Y-15790008D02*
X4248158Y-15799531D01*
X4248158Y-15799531D02*
X4257682Y-15818579D01*
X4257682Y-15818579D02*
X4267205Y-15856674D01*
X4267205Y-15856674D02*
X4267205Y-15904293D01*
X4267205Y-15904293D02*
X4257682Y-15942388D01*
X4257682Y-15942388D02*
X4248158Y-15961436D01*
X4248158Y-15961436D02*
X4238634Y-15970960D01*
X4238634Y-15970960D02*
X4219586Y-15980484D01*
X4219586Y-15980484D02*
X4200539Y-15980484D01*
X4200539Y-15980484D02*
X4181491Y-15970960D01*
X4181491Y-15970960D02*
X4171967Y-15961436D01*
X4171967Y-15961436D02*
X4162443Y-15942388D01*
X4162443Y-15942388D02*
X4152920Y-15904293D01*
X4152920Y-15904293D02*
X4152920Y-15856674D01*
X4152920Y-15856674D02*
X4162443Y-15818579D01*
X4162443Y-15818579D02*
X4171967Y-15799531D01*
X4171967Y-15799531D02*
X4181491Y-15790008D01*
X4181491Y-15790008D02*
X4200539Y-15780484D01*
X4352920Y-15980484D02*
X4352920Y-15847150D01*
X4352920Y-15866198D02*
X4362444Y-15856674D01*
X4362444Y-15856674D02*
X4381491Y-15847150D01*
X4381491Y-15847150D02*
X4410063Y-15847150D01*
X4410063Y-15847150D02*
X4429110Y-15856674D01*
X4429110Y-15856674D02*
X4438634Y-15875722D01*
X4438634Y-15875722D02*
X4438634Y-15980484D01*
X4438634Y-15875722D02*
X4448158Y-15856674D01*
X4448158Y-15856674D02*
X4467205Y-15847150D01*
X4467205Y-15847150D02*
X4495777Y-15847150D01*
X4495777Y-15847150D02*
X4514825Y-15856674D01*
X4514825Y-15856674D02*
X4524348Y-15875722D01*
X4524348Y-15875722D02*
X4524348Y-15980484D01*
X4619586Y-15980484D02*
X4619586Y-15847150D01*
X4619586Y-15866198D02*
X4629110Y-15856674D01*
X4629110Y-15856674D02*
X4648158Y-15847150D01*
X4648158Y-15847150D02*
X4676729Y-15847150D01*
X4676729Y-15847150D02*
X4695777Y-15856674D01*
X4695777Y-15856674D02*
X4705301Y-15875722D01*
X4705301Y-15875722D02*
X4705301Y-15980484D01*
X4705301Y-15875722D02*
X4714825Y-15856674D01*
X4714825Y-15856674D02*
X4733872Y-15847150D01*
X4733872Y-15847150D02*
X4762444Y-15847150D01*
X4762444Y-15847150D02*
X4781491Y-15856674D01*
X4781491Y-15856674D02*
X4791015Y-15875722D01*
X4791015Y-15875722D02*
X4791015Y-15980484D01*
X5181491Y-15770960D02*
X5010063Y-16028103D01*
X5438634Y-15780484D02*
X5457682Y-15780484D01*
X5457682Y-15780484D02*
X5476729Y-15790008D01*
X5476729Y-15790008D02*
X5486253Y-15799531D01*
X5486253Y-15799531D02*
X5495777Y-15818579D01*
X5495777Y-15818579D02*
X5505301Y-15856674D01*
X5505301Y-15856674D02*
X5505301Y-15904293D01*
X5505301Y-15904293D02*
X5495777Y-15942388D01*
X5495777Y-15942388D02*
X5486253Y-15961436D01*
X5486253Y-15961436D02*
X5476729Y-15970960D01*
X5476729Y-15970960D02*
X5457682Y-15980484D01*
X5457682Y-15980484D02*
X5438634Y-15980484D01*
X5438634Y-15980484D02*
X5419587Y-15970960D01*
X5419587Y-15970960D02*
X5410063Y-15961436D01*
X5410063Y-15961436D02*
X5400539Y-15942388D01*
X5400539Y-15942388D02*
X5391015Y-15904293D01*
X5391015Y-15904293D02*
X5391015Y-15856674D01*
X5391015Y-15856674D02*
X5400539Y-15818579D01*
X5400539Y-15818579D02*
X5410063Y-15799531D01*
X5410063Y-15799531D02*
X5419587Y-15790008D01*
X5419587Y-15790008D02*
X5438634Y-15780484D01*
X5591015Y-15961436D02*
X5600539Y-15970960D01*
X5600539Y-15970960D02*
X5591015Y-15980484D01*
X5591015Y-15980484D02*
X5581491Y-15970960D01*
X5581491Y-15970960D02*
X5591015Y-15961436D01*
X5591015Y-15961436D02*
X5591015Y-15980484D01*
X5724348Y-15780484D02*
X5743396Y-15780484D01*
X5743396Y-15780484D02*
X5762444Y-15790008D01*
X5762444Y-15790008D02*
X5771967Y-15799531D01*
X5771967Y-15799531D02*
X5781491Y-15818579D01*
X5781491Y-15818579D02*
X5791015Y-15856674D01*
X5791015Y-15856674D02*
X5791015Y-15904293D01*
X5791015Y-15904293D02*
X5781491Y-15942388D01*
X5781491Y-15942388D02*
X5771967Y-15961436D01*
X5771967Y-15961436D02*
X5762444Y-15970960D01*
X5762444Y-15970960D02*
X5743396Y-15980484D01*
X5743396Y-15980484D02*
X5724348Y-15980484D01*
X5724348Y-15980484D02*
X5705301Y-15970960D01*
X5705301Y-15970960D02*
X5695777Y-15961436D01*
X5695777Y-15961436D02*
X5686253Y-15942388D01*
X5686253Y-15942388D02*
X5676729Y-15904293D01*
X5676729Y-15904293D02*
X5676729Y-15856674D01*
X5676729Y-15856674D02*
X5686253Y-15818579D01*
X5686253Y-15818579D02*
X5695777Y-15799531D01*
X5695777Y-15799531D02*
X5705301Y-15790008D01*
X5705301Y-15790008D02*
X5724348Y-15780484D01*
X5857682Y-15780484D02*
X5981491Y-15780484D01*
X5981491Y-15780484D02*
X5914825Y-15856674D01*
X5914825Y-15856674D02*
X5943396Y-15856674D01*
X5943396Y-15856674D02*
X5962444Y-15866198D01*
X5962444Y-15866198D02*
X5971967Y-15875722D01*
X5971967Y-15875722D02*
X5981491Y-15894769D01*
X5981491Y-15894769D02*
X5981491Y-15942388D01*
X5981491Y-15942388D02*
X5971967Y-15961436D01*
X5971967Y-15961436D02*
X5962444Y-15970960D01*
X5962444Y-15970960D02*
X5943396Y-15980484D01*
X5943396Y-15980484D02*
X5886253Y-15980484D01*
X5886253Y-15980484D02*
X5867206Y-15970960D01*
X5867206Y-15970960D02*
X5857682Y-15961436D01*
X6171967Y-15980484D02*
X6057682Y-15980484D01*
X6114825Y-15980484D02*
X6114825Y-15780484D01*
X6114825Y-15780484D02*
X6095777Y-15809055D01*
X6095777Y-15809055D02*
X6076729Y-15828103D01*
X6076729Y-15828103D02*
X6057682Y-15837627D01*
X6352920Y-15780484D02*
X6257682Y-15780484D01*
X6257682Y-15780484D02*
X6248158Y-15875722D01*
X6248158Y-15875722D02*
X6257682Y-15866198D01*
X6257682Y-15866198D02*
X6276729Y-15856674D01*
X6276729Y-15856674D02*
X6324348Y-15856674D01*
X6324348Y-15856674D02*
X6343396Y-15866198D01*
X6343396Y-15866198D02*
X6352920Y-15875722D01*
X6352920Y-15875722D02*
X6362444Y-15894769D01*
X6362444Y-15894769D02*
X6362444Y-15942388D01*
X6362444Y-15942388D02*
X6352920Y-15961436D01*
X6352920Y-15961436D02*
X6343396Y-15970960D01*
X6343396Y-15970960D02*
X6324348Y-15980484D01*
X6324348Y-15980484D02*
X6276729Y-15980484D01*
X6276729Y-15980484D02*
X6257682Y-15970960D01*
X6257682Y-15970960D02*
X6248158Y-15961436D01*
X6438634Y-15780484D02*
X6438634Y-15818579D01*
X6514825Y-15780484D02*
X6514825Y-15818579D01*
X6810063Y-16056674D02*
X6800539Y-16047150D01*
X6800539Y-16047150D02*
X6781491Y-16018579D01*
X6781491Y-16018579D02*
X6771968Y-15999531D01*
X6771968Y-15999531D02*
X6762444Y-15970960D01*
X6762444Y-15970960D02*
X6752920Y-15923341D01*
X6752920Y-15923341D02*
X6752920Y-15885246D01*
X6752920Y-15885246D02*
X6762444Y-15837627D01*
X6762444Y-15837627D02*
X6771968Y-15809055D01*
X6771968Y-15809055D02*
X6781491Y-15790008D01*
X6781491Y-15790008D02*
X6800539Y-15761436D01*
X6800539Y-15761436D02*
X6810063Y-15751912D01*
X6876729Y-15799531D02*
X6886253Y-15790008D01*
X6886253Y-15790008D02*
X6905301Y-15780484D01*
X6905301Y-15780484D02*
X6952920Y-15780484D01*
X6952920Y-15780484D02*
X6971968Y-15790008D01*
X6971968Y-15790008D02*
X6981491Y-15799531D01*
X6981491Y-15799531D02*
X6991015Y-15818579D01*
X6991015Y-15818579D02*
X6991015Y-15837627D01*
X6991015Y-15837627D02*
X6981491Y-15866198D01*
X6981491Y-15866198D02*
X6867206Y-15980484D01*
X6867206Y-15980484D02*
X6991015Y-15980484D01*
X7162444Y-15780484D02*
X7124348Y-15780484D01*
X7124348Y-15780484D02*
X7105301Y-15790008D01*
X7105301Y-15790008D02*
X7095777Y-15799531D01*
X7095777Y-15799531D02*
X7076729Y-15828103D01*
X7076729Y-15828103D02*
X7067206Y-15866198D01*
X7067206Y-15866198D02*
X7067206Y-15942388D01*
X7067206Y-15942388D02*
X7076729Y-15961436D01*
X7076729Y-15961436D02*
X7086253Y-15970960D01*
X7086253Y-15970960D02*
X7105301Y-15980484D01*
X7105301Y-15980484D02*
X7143396Y-15980484D01*
X7143396Y-15980484D02*
X7162444Y-15970960D01*
X7162444Y-15970960D02*
X7171968Y-15961436D01*
X7171968Y-15961436D02*
X7181491Y-15942388D01*
X7181491Y-15942388D02*
X7181491Y-15894769D01*
X7181491Y-15894769D02*
X7171968Y-15875722D01*
X7171968Y-15875722D02*
X7162444Y-15866198D01*
X7162444Y-15866198D02*
X7143396Y-15856674D01*
X7143396Y-15856674D02*
X7105301Y-15856674D01*
X7105301Y-15856674D02*
X7086253Y-15866198D01*
X7086253Y-15866198D02*
X7076729Y-15875722D01*
X7076729Y-15875722D02*
X7067206Y-15894769D01*
X7419587Y-15980484D02*
X7419587Y-15780484D01*
X7505301Y-15980484D02*
X7505301Y-15875722D01*
X7505301Y-15875722D02*
X7495777Y-15856674D01*
X7495777Y-15856674D02*
X7476730Y-15847150D01*
X7476730Y-15847150D02*
X7448158Y-15847150D01*
X7448158Y-15847150D02*
X7429110Y-15856674D01*
X7429110Y-15856674D02*
X7419587Y-15866198D01*
X7629110Y-15980484D02*
X7610063Y-15970960D01*
X7610063Y-15970960D02*
X7600539Y-15961436D01*
X7600539Y-15961436D02*
X7591015Y-15942388D01*
X7591015Y-15942388D02*
X7591015Y-15885246D01*
X7591015Y-15885246D02*
X7600539Y-15866198D01*
X7600539Y-15866198D02*
X7610063Y-15856674D01*
X7610063Y-15856674D02*
X7629110Y-15847150D01*
X7629110Y-15847150D02*
X7657682Y-15847150D01*
X7657682Y-15847150D02*
X7676730Y-15856674D01*
X7676730Y-15856674D02*
X7686253Y-15866198D01*
X7686253Y-15866198D02*
X7695777Y-15885246D01*
X7695777Y-15885246D02*
X7695777Y-15942388D01*
X7695777Y-15942388D02*
X7686253Y-15961436D01*
X7686253Y-15961436D02*
X7676730Y-15970960D01*
X7676730Y-15970960D02*
X7657682Y-15980484D01*
X7657682Y-15980484D02*
X7629110Y-15980484D01*
X7810063Y-15980484D02*
X7791015Y-15970960D01*
X7791015Y-15970960D02*
X7781491Y-15951912D01*
X7781491Y-15951912D02*
X7781491Y-15780484D01*
X7962444Y-15970960D02*
X7943396Y-15980484D01*
X7943396Y-15980484D02*
X7905301Y-15980484D01*
X7905301Y-15980484D02*
X7886253Y-15970960D01*
X7886253Y-15970960D02*
X7876730Y-15951912D01*
X7876730Y-15951912D02*
X7876730Y-15875722D01*
X7876730Y-15875722D02*
X7886253Y-15856674D01*
X7886253Y-15856674D02*
X7905301Y-15847150D01*
X7905301Y-15847150D02*
X7943396Y-15847150D01*
X7943396Y-15847150D02*
X7962444Y-15856674D01*
X7962444Y-15856674D02*
X7971968Y-15875722D01*
X7971968Y-15875722D02*
X7971968Y-15894769D01*
X7971968Y-15894769D02*
X7876730Y-15913817D01*
X8048158Y-15970960D02*
X8067206Y-15980484D01*
X8067206Y-15980484D02*
X8105301Y-15980484D01*
X8105301Y-15980484D02*
X8124349Y-15970960D01*
X8124349Y-15970960D02*
X8133872Y-15951912D01*
X8133872Y-15951912D02*
X8133872Y-15942388D01*
X8133872Y-15942388D02*
X8124349Y-15923341D01*
X8124349Y-15923341D02*
X8105301Y-15913817D01*
X8105301Y-15913817D02*
X8076730Y-15913817D01*
X8076730Y-15913817D02*
X8057682Y-15904293D01*
X8057682Y-15904293D02*
X8048158Y-15885246D01*
X8048158Y-15885246D02*
X8048158Y-15875722D01*
X8048158Y-15875722D02*
X8057682Y-15856674D01*
X8057682Y-15856674D02*
X8076730Y-15847150D01*
X8076730Y-15847150D02*
X8105301Y-15847150D01*
X8105301Y-15847150D02*
X8124349Y-15856674D01*
X8200539Y-16056674D02*
X8210063Y-16047150D01*
X8210063Y-16047150D02*
X8229111Y-16018579D01*
X8229111Y-16018579D02*
X8238634Y-15999531D01*
X8238634Y-15999531D02*
X8248158Y-15970960D01*
X8248158Y-15970960D02*
X8257682Y-15923341D01*
X8257682Y-15923341D02*
X8257682Y-15885246D01*
X8257682Y-15885246D02*
X8248158Y-15837627D01*
X8248158Y-15837627D02*
X8238634Y-15809055D01*
X8238634Y-15809055D02*
X8229111Y-15790008D01*
X8229111Y-15790008D02*
X8210063Y-15761436D01*
X8210063Y-15761436D02*
X8200539Y-15751912D01*
D12*
X3190000Y-16108000D02*
X3190000Y-16198000D01*
X3145000Y-16153000D02*
X3235000Y-16153000D01*
D11*
X3533872Y-16044484D02*
X3552920Y-16044484D01*
X3552920Y-16044484D02*
X3571967Y-16054008D01*
X3571967Y-16054008D02*
X3581491Y-16063531D01*
X3581491Y-16063531D02*
X3591015Y-16082579D01*
X3591015Y-16082579D02*
X3600539Y-16120674D01*
X3600539Y-16120674D02*
X3600539Y-16168293D01*
X3600539Y-16168293D02*
X3591015Y-16206388D01*
X3591015Y-16206388D02*
X3581491Y-16225436D01*
X3581491Y-16225436D02*
X3571967Y-16234960D01*
X3571967Y-16234960D02*
X3552920Y-16244484D01*
X3552920Y-16244484D02*
X3533872Y-16244484D01*
X3533872Y-16244484D02*
X3514824Y-16234960D01*
X3514824Y-16234960D02*
X3505301Y-16225436D01*
X3505301Y-16225436D02*
X3495777Y-16206388D01*
X3495777Y-16206388D02*
X3486253Y-16168293D01*
X3486253Y-16168293D02*
X3486253Y-16120674D01*
X3486253Y-16120674D02*
X3495777Y-16082579D01*
X3495777Y-16082579D02*
X3505301Y-16063531D01*
X3505301Y-16063531D02*
X3514824Y-16054008D01*
X3514824Y-16054008D02*
X3533872Y-16044484D01*
X3686253Y-16225436D02*
X3695777Y-16234960D01*
X3695777Y-16234960D02*
X3686253Y-16244484D01*
X3686253Y-16244484D02*
X3676729Y-16234960D01*
X3676729Y-16234960D02*
X3686253Y-16225436D01*
X3686253Y-16225436D02*
X3686253Y-16244484D01*
X3791015Y-16244484D02*
X3829110Y-16244484D01*
X3829110Y-16244484D02*
X3848158Y-16234960D01*
X3848158Y-16234960D02*
X3857682Y-16225436D01*
X3857682Y-16225436D02*
X3876729Y-16196865D01*
X3876729Y-16196865D02*
X3886253Y-16158769D01*
X3886253Y-16158769D02*
X3886253Y-16082579D01*
X3886253Y-16082579D02*
X3876729Y-16063531D01*
X3876729Y-16063531D02*
X3867205Y-16054008D01*
X3867205Y-16054008D02*
X3848158Y-16044484D01*
X3848158Y-16044484D02*
X3810062Y-16044484D01*
X3810062Y-16044484D02*
X3791015Y-16054008D01*
X3791015Y-16054008D02*
X3781491Y-16063531D01*
X3781491Y-16063531D02*
X3771967Y-16082579D01*
X3771967Y-16082579D02*
X3771967Y-16130198D01*
X3771967Y-16130198D02*
X3781491Y-16149246D01*
X3781491Y-16149246D02*
X3791015Y-16158769D01*
X3791015Y-16158769D02*
X3810062Y-16168293D01*
X3810062Y-16168293D02*
X3848158Y-16168293D01*
X3848158Y-16168293D02*
X3867205Y-16158769D01*
X3867205Y-16158769D02*
X3876729Y-16149246D01*
X3876729Y-16149246D02*
X3886253Y-16130198D01*
X4010062Y-16044484D02*
X4029110Y-16044484D01*
X4029110Y-16044484D02*
X4048158Y-16054008D01*
X4048158Y-16054008D02*
X4057682Y-16063531D01*
X4057682Y-16063531D02*
X4067205Y-16082579D01*
X4067205Y-16082579D02*
X4076729Y-16120674D01*
X4076729Y-16120674D02*
X4076729Y-16168293D01*
X4076729Y-16168293D02*
X4067205Y-16206388D01*
X4067205Y-16206388D02*
X4057682Y-16225436D01*
X4057682Y-16225436D02*
X4048158Y-16234960D01*
X4048158Y-16234960D02*
X4029110Y-16244484D01*
X4029110Y-16244484D02*
X4010062Y-16244484D01*
X4010062Y-16244484D02*
X3991015Y-16234960D01*
X3991015Y-16234960D02*
X3981491Y-16225436D01*
X3981491Y-16225436D02*
X3971967Y-16206388D01*
X3971967Y-16206388D02*
X3962443Y-16168293D01*
X3962443Y-16168293D02*
X3962443Y-16120674D01*
X3962443Y-16120674D02*
X3971967Y-16082579D01*
X3971967Y-16082579D02*
X3981491Y-16063531D01*
X3981491Y-16063531D02*
X3991015Y-16054008D01*
X3991015Y-16054008D02*
X4010062Y-16044484D01*
X4200539Y-16044484D02*
X4219586Y-16044484D01*
X4219586Y-16044484D02*
X4238634Y-16054008D01*
X4238634Y-16054008D02*
X4248158Y-16063531D01*
X4248158Y-16063531D02*
X4257682Y-16082579D01*
X4257682Y-16082579D02*
X4267205Y-16120674D01*
X4267205Y-16120674D02*
X4267205Y-16168293D01*
X4267205Y-16168293D02*
X4257682Y-16206388D01*
X4257682Y-16206388D02*
X4248158Y-16225436D01*
X4248158Y-16225436D02*
X4238634Y-16234960D01*
X4238634Y-16234960D02*
X4219586Y-16244484D01*
X4219586Y-16244484D02*
X4200539Y-16244484D01*
X4200539Y-16244484D02*
X4181491Y-16234960D01*
X4181491Y-16234960D02*
X4171967Y-16225436D01*
X4171967Y-16225436D02*
X4162443Y-16206388D01*
X4162443Y-16206388D02*
X4152920Y-16168293D01*
X4152920Y-16168293D02*
X4152920Y-16120674D01*
X4152920Y-16120674D02*
X4162443Y-16082579D01*
X4162443Y-16082579D02*
X4171967Y-16063531D01*
X4171967Y-16063531D02*
X4181491Y-16054008D01*
X4181491Y-16054008D02*
X4200539Y-16044484D01*
X4352920Y-16244484D02*
X4352920Y-16111150D01*
X4352920Y-16130198D02*
X4362444Y-16120674D01*
X4362444Y-16120674D02*
X4381491Y-16111150D01*
X4381491Y-16111150D02*
X4410063Y-16111150D01*
X4410063Y-16111150D02*
X4429110Y-16120674D01*
X4429110Y-16120674D02*
X4438634Y-16139722D01*
X4438634Y-16139722D02*
X4438634Y-16244484D01*
X4438634Y-16139722D02*
X4448158Y-16120674D01*
X4448158Y-16120674D02*
X4467205Y-16111150D01*
X4467205Y-16111150D02*
X4495777Y-16111150D01*
X4495777Y-16111150D02*
X4514825Y-16120674D01*
X4514825Y-16120674D02*
X4524348Y-16139722D01*
X4524348Y-16139722D02*
X4524348Y-16244484D01*
X4619586Y-16244484D02*
X4619586Y-16111150D01*
X4619586Y-16130198D02*
X4629110Y-16120674D01*
X4629110Y-16120674D02*
X4648158Y-16111150D01*
X4648158Y-16111150D02*
X4676729Y-16111150D01*
X4676729Y-16111150D02*
X4695777Y-16120674D01*
X4695777Y-16120674D02*
X4705301Y-16139722D01*
X4705301Y-16139722D02*
X4705301Y-16244484D01*
X4705301Y-16139722D02*
X4714825Y-16120674D01*
X4714825Y-16120674D02*
X4733872Y-16111150D01*
X4733872Y-16111150D02*
X4762444Y-16111150D01*
X4762444Y-16111150D02*
X4781491Y-16120674D01*
X4781491Y-16120674D02*
X4791015Y-16139722D01*
X4791015Y-16139722D02*
X4791015Y-16244484D01*
X5181491Y-16034960D02*
X5010063Y-16292103D01*
X5438634Y-16044484D02*
X5457682Y-16044484D01*
X5457682Y-16044484D02*
X5476729Y-16054008D01*
X5476729Y-16054008D02*
X5486253Y-16063531D01*
X5486253Y-16063531D02*
X5495777Y-16082579D01*
X5495777Y-16082579D02*
X5505301Y-16120674D01*
X5505301Y-16120674D02*
X5505301Y-16168293D01*
X5505301Y-16168293D02*
X5495777Y-16206388D01*
X5495777Y-16206388D02*
X5486253Y-16225436D01*
X5486253Y-16225436D02*
X5476729Y-16234960D01*
X5476729Y-16234960D02*
X5457682Y-16244484D01*
X5457682Y-16244484D02*
X5438634Y-16244484D01*
X5438634Y-16244484D02*
X5419587Y-16234960D01*
X5419587Y-16234960D02*
X5410063Y-16225436D01*
X5410063Y-16225436D02*
X5400539Y-16206388D01*
X5400539Y-16206388D02*
X5391015Y-16168293D01*
X5391015Y-16168293D02*
X5391015Y-16120674D01*
X5391015Y-16120674D02*
X5400539Y-16082579D01*
X5400539Y-16082579D02*
X5410063Y-16063531D01*
X5410063Y-16063531D02*
X5419587Y-16054008D01*
X5419587Y-16054008D02*
X5438634Y-16044484D01*
X5591015Y-16225436D02*
X5600539Y-16234960D01*
X5600539Y-16234960D02*
X5591015Y-16244484D01*
X5591015Y-16244484D02*
X5581491Y-16234960D01*
X5581491Y-16234960D02*
X5591015Y-16225436D01*
X5591015Y-16225436D02*
X5591015Y-16244484D01*
X5724348Y-16044484D02*
X5743396Y-16044484D01*
X5743396Y-16044484D02*
X5762444Y-16054008D01*
X5762444Y-16054008D02*
X5771967Y-16063531D01*
X5771967Y-16063531D02*
X5781491Y-16082579D01*
X5781491Y-16082579D02*
X5791015Y-16120674D01*
X5791015Y-16120674D02*
X5791015Y-16168293D01*
X5791015Y-16168293D02*
X5781491Y-16206388D01*
X5781491Y-16206388D02*
X5771967Y-16225436D01*
X5771967Y-16225436D02*
X5762444Y-16234960D01*
X5762444Y-16234960D02*
X5743396Y-16244484D01*
X5743396Y-16244484D02*
X5724348Y-16244484D01*
X5724348Y-16244484D02*
X5705301Y-16234960D01*
X5705301Y-16234960D02*
X5695777Y-16225436D01*
X5695777Y-16225436D02*
X5686253Y-16206388D01*
X5686253Y-16206388D02*
X5676729Y-16168293D01*
X5676729Y-16168293D02*
X5676729Y-16120674D01*
X5676729Y-16120674D02*
X5686253Y-16082579D01*
X5686253Y-16082579D02*
X5695777Y-16063531D01*
X5695777Y-16063531D02*
X5705301Y-16054008D01*
X5705301Y-16054008D02*
X5724348Y-16044484D01*
X5857682Y-16044484D02*
X5981491Y-16044484D01*
X5981491Y-16044484D02*
X5914825Y-16120674D01*
X5914825Y-16120674D02*
X5943396Y-16120674D01*
X5943396Y-16120674D02*
X5962444Y-16130198D01*
X5962444Y-16130198D02*
X5971967Y-16139722D01*
X5971967Y-16139722D02*
X5981491Y-16158769D01*
X5981491Y-16158769D02*
X5981491Y-16206388D01*
X5981491Y-16206388D02*
X5971967Y-16225436D01*
X5971967Y-16225436D02*
X5962444Y-16234960D01*
X5962444Y-16234960D02*
X5943396Y-16244484D01*
X5943396Y-16244484D02*
X5886253Y-16244484D01*
X5886253Y-16244484D02*
X5867206Y-16234960D01*
X5867206Y-16234960D02*
X5857682Y-16225436D01*
X6162444Y-16044484D02*
X6067206Y-16044484D01*
X6067206Y-16044484D02*
X6057682Y-16139722D01*
X6057682Y-16139722D02*
X6067206Y-16130198D01*
X6067206Y-16130198D02*
X6086253Y-16120674D01*
X6086253Y-16120674D02*
X6133872Y-16120674D01*
X6133872Y-16120674D02*
X6152920Y-16130198D01*
X6152920Y-16130198D02*
X6162444Y-16139722D01*
X6162444Y-16139722D02*
X6171967Y-16158769D01*
X6171967Y-16158769D02*
X6171967Y-16206388D01*
X6171967Y-16206388D02*
X6162444Y-16225436D01*
X6162444Y-16225436D02*
X6152920Y-16234960D01*
X6152920Y-16234960D02*
X6133872Y-16244484D01*
X6133872Y-16244484D02*
X6086253Y-16244484D01*
X6086253Y-16244484D02*
X6067206Y-16234960D01*
X6067206Y-16234960D02*
X6057682Y-16225436D01*
X6343396Y-16111150D02*
X6343396Y-16244484D01*
X6295777Y-16034960D02*
X6248158Y-16177817D01*
X6248158Y-16177817D02*
X6371967Y-16177817D01*
X6438634Y-16044484D02*
X6438634Y-16082579D01*
X6514825Y-16044484D02*
X6514825Y-16082579D01*
X6810063Y-16320674D02*
X6800539Y-16311150D01*
X6800539Y-16311150D02*
X6781491Y-16282579D01*
X6781491Y-16282579D02*
X6771968Y-16263531D01*
X6771968Y-16263531D02*
X6762444Y-16234960D01*
X6762444Y-16234960D02*
X6752920Y-16187341D01*
X6752920Y-16187341D02*
X6752920Y-16149246D01*
X6752920Y-16149246D02*
X6762444Y-16101627D01*
X6762444Y-16101627D02*
X6771968Y-16073055D01*
X6771968Y-16073055D02*
X6781491Y-16054008D01*
X6781491Y-16054008D02*
X6800539Y-16025436D01*
X6800539Y-16025436D02*
X6810063Y-16015912D01*
X6876729Y-16063531D02*
X6886253Y-16054008D01*
X6886253Y-16054008D02*
X6905301Y-16044484D01*
X6905301Y-16044484D02*
X6952920Y-16044484D01*
X6952920Y-16044484D02*
X6971968Y-16054008D01*
X6971968Y-16054008D02*
X6981491Y-16063531D01*
X6981491Y-16063531D02*
X6991015Y-16082579D01*
X6991015Y-16082579D02*
X6991015Y-16101627D01*
X6991015Y-16101627D02*
X6981491Y-16130198D01*
X6981491Y-16130198D02*
X6867206Y-16244484D01*
X6867206Y-16244484D02*
X6991015Y-16244484D01*
X7067206Y-16063531D02*
X7076729Y-16054008D01*
X7076729Y-16054008D02*
X7095777Y-16044484D01*
X7095777Y-16044484D02*
X7143396Y-16044484D01*
X7143396Y-16044484D02*
X7162444Y-16054008D01*
X7162444Y-16054008D02*
X7171968Y-16063531D01*
X7171968Y-16063531D02*
X7181491Y-16082579D01*
X7181491Y-16082579D02*
X7181491Y-16101627D01*
X7181491Y-16101627D02*
X7171968Y-16130198D01*
X7171968Y-16130198D02*
X7057682Y-16244484D01*
X7057682Y-16244484D02*
X7181491Y-16244484D01*
X7419587Y-16244484D02*
X7419587Y-16044484D01*
X7505301Y-16244484D02*
X7505301Y-16139722D01*
X7505301Y-16139722D02*
X7495777Y-16120674D01*
X7495777Y-16120674D02*
X7476730Y-16111150D01*
X7476730Y-16111150D02*
X7448158Y-16111150D01*
X7448158Y-16111150D02*
X7429110Y-16120674D01*
X7429110Y-16120674D02*
X7419587Y-16130198D01*
X7629110Y-16244484D02*
X7610063Y-16234960D01*
X7610063Y-16234960D02*
X7600539Y-16225436D01*
X7600539Y-16225436D02*
X7591015Y-16206388D01*
X7591015Y-16206388D02*
X7591015Y-16149246D01*
X7591015Y-16149246D02*
X7600539Y-16130198D01*
X7600539Y-16130198D02*
X7610063Y-16120674D01*
X7610063Y-16120674D02*
X7629110Y-16111150D01*
X7629110Y-16111150D02*
X7657682Y-16111150D01*
X7657682Y-16111150D02*
X7676730Y-16120674D01*
X7676730Y-16120674D02*
X7686253Y-16130198D01*
X7686253Y-16130198D02*
X7695777Y-16149246D01*
X7695777Y-16149246D02*
X7695777Y-16206388D01*
X7695777Y-16206388D02*
X7686253Y-16225436D01*
X7686253Y-16225436D02*
X7676730Y-16234960D01*
X7676730Y-16234960D02*
X7657682Y-16244484D01*
X7657682Y-16244484D02*
X7629110Y-16244484D01*
X7810063Y-16244484D02*
X7791015Y-16234960D01*
X7791015Y-16234960D02*
X7781491Y-16215912D01*
X7781491Y-16215912D02*
X7781491Y-16044484D01*
X7962444Y-16234960D02*
X7943396Y-16244484D01*
X7943396Y-16244484D02*
X7905301Y-16244484D01*
X7905301Y-16244484D02*
X7886253Y-16234960D01*
X7886253Y-16234960D02*
X7876730Y-16215912D01*
X7876730Y-16215912D02*
X7876730Y-16139722D01*
X7876730Y-16139722D02*
X7886253Y-16120674D01*
X7886253Y-16120674D02*
X7905301Y-16111150D01*
X7905301Y-16111150D02*
X7943396Y-16111150D01*
X7943396Y-16111150D02*
X7962444Y-16120674D01*
X7962444Y-16120674D02*
X7971968Y-16139722D01*
X7971968Y-16139722D02*
X7971968Y-16158769D01*
X7971968Y-16158769D02*
X7876730Y-16177817D01*
X8048158Y-16234960D02*
X8067206Y-16244484D01*
X8067206Y-16244484D02*
X8105301Y-16244484D01*
X8105301Y-16244484D02*
X8124349Y-16234960D01*
X8124349Y-16234960D02*
X8133872Y-16215912D01*
X8133872Y-16215912D02*
X8133872Y-16206388D01*
X8133872Y-16206388D02*
X8124349Y-16187341D01*
X8124349Y-16187341D02*
X8105301Y-16177817D01*
X8105301Y-16177817D02*
X8076730Y-16177817D01*
X8076730Y-16177817D02*
X8057682Y-16168293D01*
X8057682Y-16168293D02*
X8048158Y-16149246D01*
X8048158Y-16149246D02*
X8048158Y-16139722D01*
X8048158Y-16139722D02*
X8057682Y-16120674D01*
X8057682Y-16120674D02*
X8076730Y-16111150D01*
X8076730Y-16111150D02*
X8105301Y-16111150D01*
X8105301Y-16111150D02*
X8124349Y-16120674D01*
X8200539Y-16320674D02*
X8210063Y-16311150D01*
X8210063Y-16311150D02*
X8229111Y-16282579D01*
X8229111Y-16282579D02*
X8238634Y-16263531D01*
X8238634Y-16263531D02*
X8248158Y-16234960D01*
X8248158Y-16234960D02*
X8257682Y-16187341D01*
X8257682Y-16187341D02*
X8257682Y-16149246D01*
X8257682Y-16149246D02*
X8248158Y-16101627D01*
X8248158Y-16101627D02*
X8238634Y-16073055D01*
X8238634Y-16073055D02*
X8229111Y-16054008D01*
X8229111Y-16054008D02*
X8210063Y-16025436D01*
X8210063Y-16025436D02*
X8200539Y-16015912D01*
D12*
X3220356Y-16452356D02*
X3220356Y-16381644D01*
X3149644Y-16381644D01*
X3149644Y-16452356D01*
X3220356Y-16452356D01*
D11*
X3600539Y-16508484D02*
X3486253Y-16508484D01*
X3543396Y-16508484D02*
X3543396Y-16308484D01*
X3543396Y-16308484D02*
X3524348Y-16337055D01*
X3524348Y-16337055D02*
X3505301Y-16356103D01*
X3505301Y-16356103D02*
X3486253Y-16365627D01*
X3686253Y-16489436D02*
X3695777Y-16498960D01*
X3695777Y-16498960D02*
X3686253Y-16508484D01*
X3686253Y-16508484D02*
X3676729Y-16498960D01*
X3676729Y-16498960D02*
X3686253Y-16489436D01*
X3686253Y-16489436D02*
X3686253Y-16508484D01*
X3819586Y-16308484D02*
X3838634Y-16308484D01*
X3838634Y-16308484D02*
X3857682Y-16318008D01*
X3857682Y-16318008D02*
X3867205Y-16327531D01*
X3867205Y-16327531D02*
X3876729Y-16346579D01*
X3876729Y-16346579D02*
X3886253Y-16384674D01*
X3886253Y-16384674D02*
X3886253Y-16432293D01*
X3886253Y-16432293D02*
X3876729Y-16470388D01*
X3876729Y-16470388D02*
X3867205Y-16489436D01*
X3867205Y-16489436D02*
X3857682Y-16498960D01*
X3857682Y-16498960D02*
X3838634Y-16508484D01*
X3838634Y-16508484D02*
X3819586Y-16508484D01*
X3819586Y-16508484D02*
X3800539Y-16498960D01*
X3800539Y-16498960D02*
X3791015Y-16489436D01*
X3791015Y-16489436D02*
X3781491Y-16470388D01*
X3781491Y-16470388D02*
X3771967Y-16432293D01*
X3771967Y-16432293D02*
X3771967Y-16384674D01*
X3771967Y-16384674D02*
X3781491Y-16346579D01*
X3781491Y-16346579D02*
X3791015Y-16327531D01*
X3791015Y-16327531D02*
X3800539Y-16318008D01*
X3800539Y-16318008D02*
X3819586Y-16308484D01*
X4010062Y-16308484D02*
X4029110Y-16308484D01*
X4029110Y-16308484D02*
X4048158Y-16318008D01*
X4048158Y-16318008D02*
X4057682Y-16327531D01*
X4057682Y-16327531D02*
X4067205Y-16346579D01*
X4067205Y-16346579D02*
X4076729Y-16384674D01*
X4076729Y-16384674D02*
X4076729Y-16432293D01*
X4076729Y-16432293D02*
X4067205Y-16470388D01*
X4067205Y-16470388D02*
X4057682Y-16489436D01*
X4057682Y-16489436D02*
X4048158Y-16498960D01*
X4048158Y-16498960D02*
X4029110Y-16508484D01*
X4029110Y-16508484D02*
X4010062Y-16508484D01*
X4010062Y-16508484D02*
X3991015Y-16498960D01*
X3991015Y-16498960D02*
X3981491Y-16489436D01*
X3981491Y-16489436D02*
X3971967Y-16470388D01*
X3971967Y-16470388D02*
X3962443Y-16432293D01*
X3962443Y-16432293D02*
X3962443Y-16384674D01*
X3962443Y-16384674D02*
X3971967Y-16346579D01*
X3971967Y-16346579D02*
X3981491Y-16327531D01*
X3981491Y-16327531D02*
X3991015Y-16318008D01*
X3991015Y-16318008D02*
X4010062Y-16308484D01*
X4200539Y-16308484D02*
X4219586Y-16308484D01*
X4219586Y-16308484D02*
X4238634Y-16318008D01*
X4238634Y-16318008D02*
X4248158Y-16327531D01*
X4248158Y-16327531D02*
X4257682Y-16346579D01*
X4257682Y-16346579D02*
X4267205Y-16384674D01*
X4267205Y-16384674D02*
X4267205Y-16432293D01*
X4267205Y-16432293D02*
X4257682Y-16470388D01*
X4257682Y-16470388D02*
X4248158Y-16489436D01*
X4248158Y-16489436D02*
X4238634Y-16498960D01*
X4238634Y-16498960D02*
X4219586Y-16508484D01*
X4219586Y-16508484D02*
X4200539Y-16508484D01*
X4200539Y-16508484D02*
X4181491Y-16498960D01*
X4181491Y-16498960D02*
X4171967Y-16489436D01*
X4171967Y-16489436D02*
X4162443Y-16470388D01*
X4162443Y-16470388D02*
X4152920Y-16432293D01*
X4152920Y-16432293D02*
X4152920Y-16384674D01*
X4152920Y-16384674D02*
X4162443Y-16346579D01*
X4162443Y-16346579D02*
X4171967Y-16327531D01*
X4171967Y-16327531D02*
X4181491Y-16318008D01*
X4181491Y-16318008D02*
X4200539Y-16308484D01*
X4352920Y-16508484D02*
X4352920Y-16375150D01*
X4352920Y-16394198D02*
X4362444Y-16384674D01*
X4362444Y-16384674D02*
X4381491Y-16375150D01*
X4381491Y-16375150D02*
X4410063Y-16375150D01*
X4410063Y-16375150D02*
X4429110Y-16384674D01*
X4429110Y-16384674D02*
X4438634Y-16403722D01*
X4438634Y-16403722D02*
X4438634Y-16508484D01*
X4438634Y-16403722D02*
X4448158Y-16384674D01*
X4448158Y-16384674D02*
X4467205Y-16375150D01*
X4467205Y-16375150D02*
X4495777Y-16375150D01*
X4495777Y-16375150D02*
X4514825Y-16384674D01*
X4514825Y-16384674D02*
X4524348Y-16403722D01*
X4524348Y-16403722D02*
X4524348Y-16508484D01*
X4619586Y-16508484D02*
X4619586Y-16375150D01*
X4619586Y-16394198D02*
X4629110Y-16384674D01*
X4629110Y-16384674D02*
X4648158Y-16375150D01*
X4648158Y-16375150D02*
X4676729Y-16375150D01*
X4676729Y-16375150D02*
X4695777Y-16384674D01*
X4695777Y-16384674D02*
X4705301Y-16403722D01*
X4705301Y-16403722D02*
X4705301Y-16508484D01*
X4705301Y-16403722D02*
X4714825Y-16384674D01*
X4714825Y-16384674D02*
X4733872Y-16375150D01*
X4733872Y-16375150D02*
X4762444Y-16375150D01*
X4762444Y-16375150D02*
X4781491Y-16384674D01*
X4781491Y-16384674D02*
X4791015Y-16403722D01*
X4791015Y-16403722D02*
X4791015Y-16508484D01*
X5181491Y-16298960D02*
X5010063Y-16556103D01*
X5438634Y-16308484D02*
X5457682Y-16308484D01*
X5457682Y-16308484D02*
X5476729Y-16318008D01*
X5476729Y-16318008D02*
X5486253Y-16327531D01*
X5486253Y-16327531D02*
X5495777Y-16346579D01*
X5495777Y-16346579D02*
X5505301Y-16384674D01*
X5505301Y-16384674D02*
X5505301Y-16432293D01*
X5505301Y-16432293D02*
X5495777Y-16470388D01*
X5495777Y-16470388D02*
X5486253Y-16489436D01*
X5486253Y-16489436D02*
X5476729Y-16498960D01*
X5476729Y-16498960D02*
X5457682Y-16508484D01*
X5457682Y-16508484D02*
X5438634Y-16508484D01*
X5438634Y-16508484D02*
X5419587Y-16498960D01*
X5419587Y-16498960D02*
X5410063Y-16489436D01*
X5410063Y-16489436D02*
X5400539Y-16470388D01*
X5400539Y-16470388D02*
X5391015Y-16432293D01*
X5391015Y-16432293D02*
X5391015Y-16384674D01*
X5391015Y-16384674D02*
X5400539Y-16346579D01*
X5400539Y-16346579D02*
X5410063Y-16327531D01*
X5410063Y-16327531D02*
X5419587Y-16318008D01*
X5419587Y-16318008D02*
X5438634Y-16308484D01*
X5591015Y-16489436D02*
X5600539Y-16498960D01*
X5600539Y-16498960D02*
X5591015Y-16508484D01*
X5591015Y-16508484D02*
X5581491Y-16498960D01*
X5581491Y-16498960D02*
X5591015Y-16489436D01*
X5591015Y-16489436D02*
X5591015Y-16508484D01*
X5724348Y-16308484D02*
X5743396Y-16308484D01*
X5743396Y-16308484D02*
X5762444Y-16318008D01*
X5762444Y-16318008D02*
X5771967Y-16327531D01*
X5771967Y-16327531D02*
X5781491Y-16346579D01*
X5781491Y-16346579D02*
X5791015Y-16384674D01*
X5791015Y-16384674D02*
X5791015Y-16432293D01*
X5791015Y-16432293D02*
X5781491Y-16470388D01*
X5781491Y-16470388D02*
X5771967Y-16489436D01*
X5771967Y-16489436D02*
X5762444Y-16498960D01*
X5762444Y-16498960D02*
X5743396Y-16508484D01*
X5743396Y-16508484D02*
X5724348Y-16508484D01*
X5724348Y-16508484D02*
X5705301Y-16498960D01*
X5705301Y-16498960D02*
X5695777Y-16489436D01*
X5695777Y-16489436D02*
X5686253Y-16470388D01*
X5686253Y-16470388D02*
X5676729Y-16432293D01*
X5676729Y-16432293D02*
X5676729Y-16384674D01*
X5676729Y-16384674D02*
X5686253Y-16346579D01*
X5686253Y-16346579D02*
X5695777Y-16327531D01*
X5695777Y-16327531D02*
X5705301Y-16318008D01*
X5705301Y-16318008D02*
X5724348Y-16308484D01*
X5857682Y-16308484D02*
X5981491Y-16308484D01*
X5981491Y-16308484D02*
X5914825Y-16384674D01*
X5914825Y-16384674D02*
X5943396Y-16384674D01*
X5943396Y-16384674D02*
X5962444Y-16394198D01*
X5962444Y-16394198D02*
X5971967Y-16403722D01*
X5971967Y-16403722D02*
X5981491Y-16422769D01*
X5981491Y-16422769D02*
X5981491Y-16470388D01*
X5981491Y-16470388D02*
X5971967Y-16489436D01*
X5971967Y-16489436D02*
X5962444Y-16498960D01*
X5962444Y-16498960D02*
X5943396Y-16508484D01*
X5943396Y-16508484D02*
X5886253Y-16508484D01*
X5886253Y-16508484D02*
X5867206Y-16498960D01*
X5867206Y-16498960D02*
X5857682Y-16489436D01*
X6076729Y-16508484D02*
X6114825Y-16508484D01*
X6114825Y-16508484D02*
X6133872Y-16498960D01*
X6133872Y-16498960D02*
X6143396Y-16489436D01*
X6143396Y-16489436D02*
X6162444Y-16460865D01*
X6162444Y-16460865D02*
X6171967Y-16422769D01*
X6171967Y-16422769D02*
X6171967Y-16346579D01*
X6171967Y-16346579D02*
X6162444Y-16327531D01*
X6162444Y-16327531D02*
X6152920Y-16318008D01*
X6152920Y-16318008D02*
X6133872Y-16308484D01*
X6133872Y-16308484D02*
X6095777Y-16308484D01*
X6095777Y-16308484D02*
X6076729Y-16318008D01*
X6076729Y-16318008D02*
X6067206Y-16327531D01*
X6067206Y-16327531D02*
X6057682Y-16346579D01*
X6057682Y-16346579D02*
X6057682Y-16394198D01*
X6057682Y-16394198D02*
X6067206Y-16413246D01*
X6067206Y-16413246D02*
X6076729Y-16422769D01*
X6076729Y-16422769D02*
X6095777Y-16432293D01*
X6095777Y-16432293D02*
X6133872Y-16432293D01*
X6133872Y-16432293D02*
X6152920Y-16422769D01*
X6152920Y-16422769D02*
X6162444Y-16413246D01*
X6162444Y-16413246D02*
X6171967Y-16394198D01*
X6343396Y-16375150D02*
X6343396Y-16508484D01*
X6295777Y-16298960D02*
X6248158Y-16441817D01*
X6248158Y-16441817D02*
X6371967Y-16441817D01*
X6438634Y-16308484D02*
X6438634Y-16346579D01*
X6514825Y-16308484D02*
X6514825Y-16346579D01*
X6810063Y-16584674D02*
X6800539Y-16575150D01*
X6800539Y-16575150D02*
X6781491Y-16546579D01*
X6781491Y-16546579D02*
X6771968Y-16527531D01*
X6771968Y-16527531D02*
X6762444Y-16498960D01*
X6762444Y-16498960D02*
X6752920Y-16451341D01*
X6752920Y-16451341D02*
X6752920Y-16413246D01*
X6752920Y-16413246D02*
X6762444Y-16365627D01*
X6762444Y-16365627D02*
X6771968Y-16337055D01*
X6771968Y-16337055D02*
X6781491Y-16318008D01*
X6781491Y-16318008D02*
X6800539Y-16289436D01*
X6800539Y-16289436D02*
X6810063Y-16279912D01*
X6876729Y-16327531D02*
X6886253Y-16318008D01*
X6886253Y-16318008D02*
X6905301Y-16308484D01*
X6905301Y-16308484D02*
X6952920Y-16308484D01*
X6952920Y-16308484D02*
X6971968Y-16318008D01*
X6971968Y-16318008D02*
X6981491Y-16327531D01*
X6981491Y-16327531D02*
X6991015Y-16346579D01*
X6991015Y-16346579D02*
X6991015Y-16365627D01*
X6991015Y-16365627D02*
X6981491Y-16394198D01*
X6981491Y-16394198D02*
X6867206Y-16508484D01*
X6867206Y-16508484D02*
X6991015Y-16508484D01*
X7162444Y-16308484D02*
X7124348Y-16308484D01*
X7124348Y-16308484D02*
X7105301Y-16318008D01*
X7105301Y-16318008D02*
X7095777Y-16327531D01*
X7095777Y-16327531D02*
X7076729Y-16356103D01*
X7076729Y-16356103D02*
X7067206Y-16394198D01*
X7067206Y-16394198D02*
X7067206Y-16470388D01*
X7067206Y-16470388D02*
X7076729Y-16489436D01*
X7076729Y-16489436D02*
X7086253Y-16498960D01*
X7086253Y-16498960D02*
X7105301Y-16508484D01*
X7105301Y-16508484D02*
X7143396Y-16508484D01*
X7143396Y-16508484D02*
X7162444Y-16498960D01*
X7162444Y-16498960D02*
X7171968Y-16489436D01*
X7171968Y-16489436D02*
X7181491Y-16470388D01*
X7181491Y-16470388D02*
X7181491Y-16422769D01*
X7181491Y-16422769D02*
X7171968Y-16403722D01*
X7171968Y-16403722D02*
X7162444Y-16394198D01*
X7162444Y-16394198D02*
X7143396Y-16384674D01*
X7143396Y-16384674D02*
X7105301Y-16384674D01*
X7105301Y-16384674D02*
X7086253Y-16394198D01*
X7086253Y-16394198D02*
X7076729Y-16403722D01*
X7076729Y-16403722D02*
X7067206Y-16422769D01*
X7305301Y-16308484D02*
X7324349Y-16308484D01*
X7324349Y-16308484D02*
X7343396Y-16318008D01*
X7343396Y-16318008D02*
X7352920Y-16327531D01*
X7352920Y-16327531D02*
X7362444Y-16346579D01*
X7362444Y-16346579D02*
X7371968Y-16384674D01*
X7371968Y-16384674D02*
X7371968Y-16432293D01*
X7371968Y-16432293D02*
X7362444Y-16470388D01*
X7362444Y-16470388D02*
X7352920Y-16489436D01*
X7352920Y-16489436D02*
X7343396Y-16498960D01*
X7343396Y-16498960D02*
X7324349Y-16508484D01*
X7324349Y-16508484D02*
X7305301Y-16508484D01*
X7305301Y-16508484D02*
X7286253Y-16498960D01*
X7286253Y-16498960D02*
X7276729Y-16489436D01*
X7276729Y-16489436D02*
X7267206Y-16470388D01*
X7267206Y-16470388D02*
X7257682Y-16432293D01*
X7257682Y-16432293D02*
X7257682Y-16384674D01*
X7257682Y-16384674D02*
X7267206Y-16346579D01*
X7267206Y-16346579D02*
X7276729Y-16327531D01*
X7276729Y-16327531D02*
X7286253Y-16318008D01*
X7286253Y-16318008D02*
X7305301Y-16308484D01*
X7610063Y-16508484D02*
X7610063Y-16308484D01*
X7695777Y-16508484D02*
X7695777Y-16403722D01*
X7695777Y-16403722D02*
X7686253Y-16384674D01*
X7686253Y-16384674D02*
X7667206Y-16375150D01*
X7667206Y-16375150D02*
X7638634Y-16375150D01*
X7638634Y-16375150D02*
X7619587Y-16384674D01*
X7619587Y-16384674D02*
X7610063Y-16394198D01*
X7819587Y-16508484D02*
X7800539Y-16498960D01*
X7800539Y-16498960D02*
X7791015Y-16489436D01*
X7791015Y-16489436D02*
X7781491Y-16470388D01*
X7781491Y-16470388D02*
X7781491Y-16413246D01*
X7781491Y-16413246D02*
X7791015Y-16394198D01*
X7791015Y-16394198D02*
X7800539Y-16384674D01*
X7800539Y-16384674D02*
X7819587Y-16375150D01*
X7819587Y-16375150D02*
X7848158Y-16375150D01*
X7848158Y-16375150D02*
X7867206Y-16384674D01*
X7867206Y-16384674D02*
X7876730Y-16394198D01*
X7876730Y-16394198D02*
X7886253Y-16413246D01*
X7886253Y-16413246D02*
X7886253Y-16470388D01*
X7886253Y-16470388D02*
X7876730Y-16489436D01*
X7876730Y-16489436D02*
X7867206Y-16498960D01*
X7867206Y-16498960D02*
X7848158Y-16508484D01*
X7848158Y-16508484D02*
X7819587Y-16508484D01*
X8000539Y-16508484D02*
X7981491Y-16498960D01*
X7981491Y-16498960D02*
X7971968Y-16479912D01*
X7971968Y-16479912D02*
X7971968Y-16308484D01*
X8152920Y-16498960D02*
X8133872Y-16508484D01*
X8133872Y-16508484D02*
X8095777Y-16508484D01*
X8095777Y-16508484D02*
X8076730Y-16498960D01*
X8076730Y-16498960D02*
X8067206Y-16479912D01*
X8067206Y-16479912D02*
X8067206Y-16403722D01*
X8067206Y-16403722D02*
X8076730Y-16384674D01*
X8076730Y-16384674D02*
X8095777Y-16375150D01*
X8095777Y-16375150D02*
X8133872Y-16375150D01*
X8133872Y-16375150D02*
X8152920Y-16384674D01*
X8152920Y-16384674D02*
X8162444Y-16403722D01*
X8162444Y-16403722D02*
X8162444Y-16422769D01*
X8162444Y-16422769D02*
X8067206Y-16441817D01*
X8238634Y-16498960D02*
X8257682Y-16508484D01*
X8257682Y-16508484D02*
X8295777Y-16508484D01*
X8295777Y-16508484D02*
X8314825Y-16498960D01*
X8314825Y-16498960D02*
X8324349Y-16479912D01*
X8324349Y-16479912D02*
X8324349Y-16470388D01*
X8324349Y-16470388D02*
X8314825Y-16451341D01*
X8314825Y-16451341D02*
X8295777Y-16441817D01*
X8295777Y-16441817D02*
X8267206Y-16441817D01*
X8267206Y-16441817D02*
X8248158Y-16432293D01*
X8248158Y-16432293D02*
X8238634Y-16413246D01*
X8238634Y-16413246D02*
X8238634Y-16403722D01*
X8238634Y-16403722D02*
X8248158Y-16384674D01*
X8248158Y-16384674D02*
X8267206Y-16375150D01*
X8267206Y-16375150D02*
X8295777Y-16375150D01*
X8295777Y-16375150D02*
X8314825Y-16384674D01*
X8391015Y-16584674D02*
X8400539Y-16575150D01*
X8400539Y-16575150D02*
X8419587Y-16546579D01*
X8419587Y-16546579D02*
X8429111Y-16527531D01*
X8429111Y-16527531D02*
X8438634Y-16498960D01*
X8438634Y-16498960D02*
X8448158Y-16451341D01*
X8448158Y-16451341D02*
X8448158Y-16413246D01*
X8448158Y-16413246D02*
X8438634Y-16365627D01*
X8438634Y-16365627D02*
X8429111Y-16337055D01*
X8429111Y-16337055D02*
X8419587Y-16318008D01*
X8419587Y-16318008D02*
X8400539Y-16289436D01*
X8400539Y-16289436D02*
X8391015Y-16279912D01*
D13*
X3180000Y-16736000D02*
X3235000Y-16681000D01*
X3180000Y-16626000D01*
X3125000Y-16681000D01*
X3180000Y-16736000D01*
D11*
X3600539Y-16772484D02*
X3486253Y-16772484D01*
X3543396Y-16772484D02*
X3543396Y-16572484D01*
X3543396Y-16572484D02*
X3524348Y-16601055D01*
X3524348Y-16601055D02*
X3505301Y-16620103D01*
X3505301Y-16620103D02*
X3486253Y-16629627D01*
X3686253Y-16753436D02*
X3695777Y-16762960D01*
X3695777Y-16762960D02*
X3686253Y-16772484D01*
X3686253Y-16772484D02*
X3676729Y-16762960D01*
X3676729Y-16762960D02*
X3686253Y-16753436D01*
X3686253Y-16753436D02*
X3686253Y-16772484D01*
X3886253Y-16772484D02*
X3771967Y-16772484D01*
X3829110Y-16772484D02*
X3829110Y-16572484D01*
X3829110Y-16572484D02*
X3810062Y-16601055D01*
X3810062Y-16601055D02*
X3791015Y-16620103D01*
X3791015Y-16620103D02*
X3771967Y-16629627D01*
X4010062Y-16572484D02*
X4029110Y-16572484D01*
X4029110Y-16572484D02*
X4048158Y-16582008D01*
X4048158Y-16582008D02*
X4057682Y-16591531D01*
X4057682Y-16591531D02*
X4067205Y-16610579D01*
X4067205Y-16610579D02*
X4076729Y-16648674D01*
X4076729Y-16648674D02*
X4076729Y-16696293D01*
X4076729Y-16696293D02*
X4067205Y-16734388D01*
X4067205Y-16734388D02*
X4057682Y-16753436D01*
X4057682Y-16753436D02*
X4048158Y-16762960D01*
X4048158Y-16762960D02*
X4029110Y-16772484D01*
X4029110Y-16772484D02*
X4010062Y-16772484D01*
X4010062Y-16772484D02*
X3991015Y-16762960D01*
X3991015Y-16762960D02*
X3981491Y-16753436D01*
X3981491Y-16753436D02*
X3971967Y-16734388D01*
X3971967Y-16734388D02*
X3962443Y-16696293D01*
X3962443Y-16696293D02*
X3962443Y-16648674D01*
X3962443Y-16648674D02*
X3971967Y-16610579D01*
X3971967Y-16610579D02*
X3981491Y-16591531D01*
X3981491Y-16591531D02*
X3991015Y-16582008D01*
X3991015Y-16582008D02*
X4010062Y-16572484D01*
X4200539Y-16572484D02*
X4219586Y-16572484D01*
X4219586Y-16572484D02*
X4238634Y-16582008D01*
X4238634Y-16582008D02*
X4248158Y-16591531D01*
X4248158Y-16591531D02*
X4257682Y-16610579D01*
X4257682Y-16610579D02*
X4267205Y-16648674D01*
X4267205Y-16648674D02*
X4267205Y-16696293D01*
X4267205Y-16696293D02*
X4257682Y-16734388D01*
X4257682Y-16734388D02*
X4248158Y-16753436D01*
X4248158Y-16753436D02*
X4238634Y-16762960D01*
X4238634Y-16762960D02*
X4219586Y-16772484D01*
X4219586Y-16772484D02*
X4200539Y-16772484D01*
X4200539Y-16772484D02*
X4181491Y-16762960D01*
X4181491Y-16762960D02*
X4171967Y-16753436D01*
X4171967Y-16753436D02*
X4162443Y-16734388D01*
X4162443Y-16734388D02*
X4152920Y-16696293D01*
X4152920Y-16696293D02*
X4152920Y-16648674D01*
X4152920Y-16648674D02*
X4162443Y-16610579D01*
X4162443Y-16610579D02*
X4171967Y-16591531D01*
X4171967Y-16591531D02*
X4181491Y-16582008D01*
X4181491Y-16582008D02*
X4200539Y-16572484D01*
X4352920Y-16772484D02*
X4352920Y-16639150D01*
X4352920Y-16658198D02*
X4362444Y-16648674D01*
X4362444Y-16648674D02*
X4381491Y-16639150D01*
X4381491Y-16639150D02*
X4410063Y-16639150D01*
X4410063Y-16639150D02*
X4429110Y-16648674D01*
X4429110Y-16648674D02*
X4438634Y-16667722D01*
X4438634Y-16667722D02*
X4438634Y-16772484D01*
X4438634Y-16667722D02*
X4448158Y-16648674D01*
X4448158Y-16648674D02*
X4467205Y-16639150D01*
X4467205Y-16639150D02*
X4495777Y-16639150D01*
X4495777Y-16639150D02*
X4514825Y-16648674D01*
X4514825Y-16648674D02*
X4524348Y-16667722D01*
X4524348Y-16667722D02*
X4524348Y-16772484D01*
X4619586Y-16772484D02*
X4619586Y-16639150D01*
X4619586Y-16658198D02*
X4629110Y-16648674D01*
X4629110Y-16648674D02*
X4648158Y-16639150D01*
X4648158Y-16639150D02*
X4676729Y-16639150D01*
X4676729Y-16639150D02*
X4695777Y-16648674D01*
X4695777Y-16648674D02*
X4705301Y-16667722D01*
X4705301Y-16667722D02*
X4705301Y-16772484D01*
X4705301Y-16667722D02*
X4714825Y-16648674D01*
X4714825Y-16648674D02*
X4733872Y-16639150D01*
X4733872Y-16639150D02*
X4762444Y-16639150D01*
X4762444Y-16639150D02*
X4781491Y-16648674D01*
X4781491Y-16648674D02*
X4791015Y-16667722D01*
X4791015Y-16667722D02*
X4791015Y-16772484D01*
X5181491Y-16562960D02*
X5010063Y-16820103D01*
X5438634Y-16572484D02*
X5457682Y-16572484D01*
X5457682Y-16572484D02*
X5476729Y-16582008D01*
X5476729Y-16582008D02*
X5486253Y-16591531D01*
X5486253Y-16591531D02*
X5495777Y-16610579D01*
X5495777Y-16610579D02*
X5505301Y-16648674D01*
X5505301Y-16648674D02*
X5505301Y-16696293D01*
X5505301Y-16696293D02*
X5495777Y-16734388D01*
X5495777Y-16734388D02*
X5486253Y-16753436D01*
X5486253Y-16753436D02*
X5476729Y-16762960D01*
X5476729Y-16762960D02*
X5457682Y-16772484D01*
X5457682Y-16772484D02*
X5438634Y-16772484D01*
X5438634Y-16772484D02*
X5419587Y-16762960D01*
X5419587Y-16762960D02*
X5410063Y-16753436D01*
X5410063Y-16753436D02*
X5400539Y-16734388D01*
X5400539Y-16734388D02*
X5391015Y-16696293D01*
X5391015Y-16696293D02*
X5391015Y-16648674D01*
X5391015Y-16648674D02*
X5400539Y-16610579D01*
X5400539Y-16610579D02*
X5410063Y-16591531D01*
X5410063Y-16591531D02*
X5419587Y-16582008D01*
X5419587Y-16582008D02*
X5438634Y-16572484D01*
X5591015Y-16753436D02*
X5600539Y-16762960D01*
X5600539Y-16762960D02*
X5591015Y-16772484D01*
X5591015Y-16772484D02*
X5581491Y-16762960D01*
X5581491Y-16762960D02*
X5591015Y-16753436D01*
X5591015Y-16753436D02*
X5591015Y-16772484D01*
X5724348Y-16572484D02*
X5743396Y-16572484D01*
X5743396Y-16572484D02*
X5762444Y-16582008D01*
X5762444Y-16582008D02*
X5771967Y-16591531D01*
X5771967Y-16591531D02*
X5781491Y-16610579D01*
X5781491Y-16610579D02*
X5791015Y-16648674D01*
X5791015Y-16648674D02*
X5791015Y-16696293D01*
X5791015Y-16696293D02*
X5781491Y-16734388D01*
X5781491Y-16734388D02*
X5771967Y-16753436D01*
X5771967Y-16753436D02*
X5762444Y-16762960D01*
X5762444Y-16762960D02*
X5743396Y-16772484D01*
X5743396Y-16772484D02*
X5724348Y-16772484D01*
X5724348Y-16772484D02*
X5705301Y-16762960D01*
X5705301Y-16762960D02*
X5695777Y-16753436D01*
X5695777Y-16753436D02*
X5686253Y-16734388D01*
X5686253Y-16734388D02*
X5676729Y-16696293D01*
X5676729Y-16696293D02*
X5676729Y-16648674D01*
X5676729Y-16648674D02*
X5686253Y-16610579D01*
X5686253Y-16610579D02*
X5695777Y-16591531D01*
X5695777Y-16591531D02*
X5705301Y-16582008D01*
X5705301Y-16582008D02*
X5724348Y-16572484D01*
X5962444Y-16639150D02*
X5962444Y-16772484D01*
X5914825Y-16562960D02*
X5867206Y-16705817D01*
X5867206Y-16705817D02*
X5991015Y-16705817D01*
X6048158Y-16572484D02*
X6171967Y-16572484D01*
X6171967Y-16572484D02*
X6105301Y-16648674D01*
X6105301Y-16648674D02*
X6133872Y-16648674D01*
X6133872Y-16648674D02*
X6152920Y-16658198D01*
X6152920Y-16658198D02*
X6162444Y-16667722D01*
X6162444Y-16667722D02*
X6171967Y-16686769D01*
X6171967Y-16686769D02*
X6171967Y-16734388D01*
X6171967Y-16734388D02*
X6162444Y-16753436D01*
X6162444Y-16753436D02*
X6152920Y-16762960D01*
X6152920Y-16762960D02*
X6133872Y-16772484D01*
X6133872Y-16772484D02*
X6076729Y-16772484D01*
X6076729Y-16772484D02*
X6057682Y-16762960D01*
X6057682Y-16762960D02*
X6048158Y-16753436D01*
X6238634Y-16572484D02*
X6362444Y-16572484D01*
X6362444Y-16572484D02*
X6295777Y-16648674D01*
X6295777Y-16648674D02*
X6324348Y-16648674D01*
X6324348Y-16648674D02*
X6343396Y-16658198D01*
X6343396Y-16658198D02*
X6352920Y-16667722D01*
X6352920Y-16667722D02*
X6362444Y-16686769D01*
X6362444Y-16686769D02*
X6362444Y-16734388D01*
X6362444Y-16734388D02*
X6352920Y-16753436D01*
X6352920Y-16753436D02*
X6343396Y-16762960D01*
X6343396Y-16762960D02*
X6324348Y-16772484D01*
X6324348Y-16772484D02*
X6267206Y-16772484D01*
X6267206Y-16772484D02*
X6248158Y-16762960D01*
X6248158Y-16762960D02*
X6238634Y-16753436D01*
X6438634Y-16572484D02*
X6438634Y-16610579D01*
X6514825Y-16572484D02*
X6514825Y-16610579D01*
X6810063Y-16848674D02*
X6800539Y-16839150D01*
X6800539Y-16839150D02*
X6781491Y-16810579D01*
X6781491Y-16810579D02*
X6771968Y-16791531D01*
X6771968Y-16791531D02*
X6762444Y-16762960D01*
X6762444Y-16762960D02*
X6752920Y-16715341D01*
X6752920Y-16715341D02*
X6752920Y-16677246D01*
X6752920Y-16677246D02*
X6762444Y-16629627D01*
X6762444Y-16629627D02*
X6771968Y-16601055D01*
X6771968Y-16601055D02*
X6781491Y-16582008D01*
X6781491Y-16582008D02*
X6800539Y-16553436D01*
X6800539Y-16553436D02*
X6810063Y-16543912D01*
X6971968Y-16639150D02*
X6971968Y-16772484D01*
X6924348Y-16562960D02*
X6876729Y-16705817D01*
X6876729Y-16705817D02*
X7000539Y-16705817D01*
X7229110Y-16772484D02*
X7229110Y-16572484D01*
X7314825Y-16772484D02*
X7314825Y-16667722D01*
X7314825Y-16667722D02*
X7305301Y-16648674D01*
X7305301Y-16648674D02*
X7286253Y-16639150D01*
X7286253Y-16639150D02*
X7257682Y-16639150D01*
X7257682Y-16639150D02*
X7238634Y-16648674D01*
X7238634Y-16648674D02*
X7229110Y-16658198D01*
X7438634Y-16772484D02*
X7419587Y-16762960D01*
X7419587Y-16762960D02*
X7410063Y-16753436D01*
X7410063Y-16753436D02*
X7400539Y-16734388D01*
X7400539Y-16734388D02*
X7400539Y-16677246D01*
X7400539Y-16677246D02*
X7410063Y-16658198D01*
X7410063Y-16658198D02*
X7419587Y-16648674D01*
X7419587Y-16648674D02*
X7438634Y-16639150D01*
X7438634Y-16639150D02*
X7467206Y-16639150D01*
X7467206Y-16639150D02*
X7486253Y-16648674D01*
X7486253Y-16648674D02*
X7495777Y-16658198D01*
X7495777Y-16658198D02*
X7505301Y-16677246D01*
X7505301Y-16677246D02*
X7505301Y-16734388D01*
X7505301Y-16734388D02*
X7495777Y-16753436D01*
X7495777Y-16753436D02*
X7486253Y-16762960D01*
X7486253Y-16762960D02*
X7467206Y-16772484D01*
X7467206Y-16772484D02*
X7438634Y-16772484D01*
X7619587Y-16772484D02*
X7600539Y-16762960D01*
X7600539Y-16762960D02*
X7591015Y-16743912D01*
X7591015Y-16743912D02*
X7591015Y-16572484D01*
X7771968Y-16762960D02*
X7752920Y-16772484D01*
X7752920Y-16772484D02*
X7714825Y-16772484D01*
X7714825Y-16772484D02*
X7695777Y-16762960D01*
X7695777Y-16762960D02*
X7686253Y-16743912D01*
X7686253Y-16743912D02*
X7686253Y-16667722D01*
X7686253Y-16667722D02*
X7695777Y-16648674D01*
X7695777Y-16648674D02*
X7714825Y-16639150D01*
X7714825Y-16639150D02*
X7752920Y-16639150D01*
X7752920Y-16639150D02*
X7771968Y-16648674D01*
X7771968Y-16648674D02*
X7781491Y-16667722D01*
X7781491Y-16667722D02*
X7781491Y-16686769D01*
X7781491Y-16686769D02*
X7686253Y-16705817D01*
X7857682Y-16762960D02*
X7876730Y-16772484D01*
X7876730Y-16772484D02*
X7914825Y-16772484D01*
X7914825Y-16772484D02*
X7933872Y-16762960D01*
X7933872Y-16762960D02*
X7943396Y-16743912D01*
X7943396Y-16743912D02*
X7943396Y-16734388D01*
X7943396Y-16734388D02*
X7933872Y-16715341D01*
X7933872Y-16715341D02*
X7914825Y-16705817D01*
X7914825Y-16705817D02*
X7886253Y-16705817D01*
X7886253Y-16705817D02*
X7867206Y-16696293D01*
X7867206Y-16696293D02*
X7857682Y-16677246D01*
X7857682Y-16677246D02*
X7857682Y-16667722D01*
X7857682Y-16667722D02*
X7867206Y-16648674D01*
X7867206Y-16648674D02*
X7886253Y-16639150D01*
X7886253Y-16639150D02*
X7914825Y-16639150D01*
X7914825Y-16639150D02*
X7933872Y-16648674D01*
X8010063Y-16848674D02*
X8019587Y-16839150D01*
X8019587Y-16839150D02*
X8038634Y-16810579D01*
X8038634Y-16810579D02*
X8048158Y-16791531D01*
X8048158Y-16791531D02*
X8057682Y-16762960D01*
X8057682Y-16762960D02*
X8067206Y-16715341D01*
X8067206Y-16715341D02*
X8067206Y-16677246D01*
X8067206Y-16677246D02*
X8057682Y-16629627D01*
X8057682Y-16629627D02*
X8048158Y-16601055D01*
X8048158Y-16601055D02*
X8038634Y-16582008D01*
X8038634Y-16582008D02*
X8019587Y-16553436D01*
X8019587Y-16553436D02*
X8010063Y-16543912D01*
D14*
X3115000Y-16885000D02*
X3235000Y-17005000D01*
X3235000Y-16885000D02*
X3115000Y-17005000D01*
X3235000Y-16945000D02*
G75*
G02*
X3115000Y-16945000I-60000J0D01*
G01*
X3115000Y-16945000D02*
G75*
G02*
X3235000Y-16945000I60000J0D01*
G01*
D11*
X3600539Y-17036484D02*
X3486253Y-17036484D01*
X3543396Y-17036484D02*
X3543396Y-16836484D01*
X3543396Y-16836484D02*
X3524348Y-16865055D01*
X3524348Y-16865055D02*
X3505301Y-16884103D01*
X3505301Y-16884103D02*
X3486253Y-16893627D01*
X3686253Y-17017436D02*
X3695777Y-17026960D01*
X3695777Y-17026960D02*
X3686253Y-17036484D01*
X3686253Y-17036484D02*
X3676729Y-17026960D01*
X3676729Y-17026960D02*
X3686253Y-17017436D01*
X3686253Y-17017436D02*
X3686253Y-17036484D01*
X3771967Y-16855531D02*
X3781491Y-16846008D01*
X3781491Y-16846008D02*
X3800539Y-16836484D01*
X3800539Y-16836484D02*
X3848158Y-16836484D01*
X3848158Y-16836484D02*
X3867205Y-16846008D01*
X3867205Y-16846008D02*
X3876729Y-16855531D01*
X3876729Y-16855531D02*
X3886253Y-16874579D01*
X3886253Y-16874579D02*
X3886253Y-16893627D01*
X3886253Y-16893627D02*
X3876729Y-16922198D01*
X3876729Y-16922198D02*
X3762443Y-17036484D01*
X3762443Y-17036484D02*
X3886253Y-17036484D01*
X4010062Y-16836484D02*
X4029110Y-16836484D01*
X4029110Y-16836484D02*
X4048158Y-16846008D01*
X4048158Y-16846008D02*
X4057682Y-16855531D01*
X4057682Y-16855531D02*
X4067205Y-16874579D01*
X4067205Y-16874579D02*
X4076729Y-16912674D01*
X4076729Y-16912674D02*
X4076729Y-16960293D01*
X4076729Y-16960293D02*
X4067205Y-16998389D01*
X4067205Y-16998389D02*
X4057682Y-17017436D01*
X4057682Y-17017436D02*
X4048158Y-17026960D01*
X4048158Y-17026960D02*
X4029110Y-17036484D01*
X4029110Y-17036484D02*
X4010062Y-17036484D01*
X4010062Y-17036484D02*
X3991015Y-17026960D01*
X3991015Y-17026960D02*
X3981491Y-17017436D01*
X3981491Y-17017436D02*
X3971967Y-16998389D01*
X3971967Y-16998389D02*
X3962443Y-16960293D01*
X3962443Y-16960293D02*
X3962443Y-16912674D01*
X3962443Y-16912674D02*
X3971967Y-16874579D01*
X3971967Y-16874579D02*
X3981491Y-16855531D01*
X3981491Y-16855531D02*
X3991015Y-16846008D01*
X3991015Y-16846008D02*
X4010062Y-16836484D01*
X4200539Y-16836484D02*
X4219586Y-16836484D01*
X4219586Y-16836484D02*
X4238634Y-16846008D01*
X4238634Y-16846008D02*
X4248158Y-16855531D01*
X4248158Y-16855531D02*
X4257682Y-16874579D01*
X4257682Y-16874579D02*
X4267205Y-16912674D01*
X4267205Y-16912674D02*
X4267205Y-16960293D01*
X4267205Y-16960293D02*
X4257682Y-16998389D01*
X4257682Y-16998389D02*
X4248158Y-17017436D01*
X4248158Y-17017436D02*
X4238634Y-17026960D01*
X4238634Y-17026960D02*
X4219586Y-17036484D01*
X4219586Y-17036484D02*
X4200539Y-17036484D01*
X4200539Y-17036484D02*
X4181491Y-17026960D01*
X4181491Y-17026960D02*
X4171967Y-17017436D01*
X4171967Y-17017436D02*
X4162443Y-16998389D01*
X4162443Y-16998389D02*
X4152920Y-16960293D01*
X4152920Y-16960293D02*
X4152920Y-16912674D01*
X4152920Y-16912674D02*
X4162443Y-16874579D01*
X4162443Y-16874579D02*
X4171967Y-16855531D01*
X4171967Y-16855531D02*
X4181491Y-16846008D01*
X4181491Y-16846008D02*
X4200539Y-16836484D01*
X4352920Y-17036484D02*
X4352920Y-16903150D01*
X4352920Y-16922198D02*
X4362444Y-16912674D01*
X4362444Y-16912674D02*
X4381491Y-16903150D01*
X4381491Y-16903150D02*
X4410063Y-16903150D01*
X4410063Y-16903150D02*
X4429110Y-16912674D01*
X4429110Y-16912674D02*
X4438634Y-16931722D01*
X4438634Y-16931722D02*
X4438634Y-17036484D01*
X4438634Y-16931722D02*
X4448158Y-16912674D01*
X4448158Y-16912674D02*
X4467205Y-16903150D01*
X4467205Y-16903150D02*
X4495777Y-16903150D01*
X4495777Y-16903150D02*
X4514825Y-16912674D01*
X4514825Y-16912674D02*
X4524348Y-16931722D01*
X4524348Y-16931722D02*
X4524348Y-17036484D01*
X4619586Y-17036484D02*
X4619586Y-16903150D01*
X4619586Y-16922198D02*
X4629110Y-16912674D01*
X4629110Y-16912674D02*
X4648158Y-16903150D01*
X4648158Y-16903150D02*
X4676729Y-16903150D01*
X4676729Y-16903150D02*
X4695777Y-16912674D01*
X4695777Y-16912674D02*
X4705301Y-16931722D01*
X4705301Y-16931722D02*
X4705301Y-17036484D01*
X4705301Y-16931722D02*
X4714825Y-16912674D01*
X4714825Y-16912674D02*
X4733872Y-16903150D01*
X4733872Y-16903150D02*
X4762444Y-16903150D01*
X4762444Y-16903150D02*
X4781491Y-16912674D01*
X4781491Y-16912674D02*
X4791015Y-16931722D01*
X4791015Y-16931722D02*
X4791015Y-17036484D01*
X5181491Y-16826960D02*
X5010063Y-17084103D01*
X5438634Y-16836484D02*
X5457682Y-16836484D01*
X5457682Y-16836484D02*
X5476729Y-16846008D01*
X5476729Y-16846008D02*
X5486253Y-16855531D01*
X5486253Y-16855531D02*
X5495777Y-16874579D01*
X5495777Y-16874579D02*
X5505301Y-16912674D01*
X5505301Y-16912674D02*
X5505301Y-16960293D01*
X5505301Y-16960293D02*
X5495777Y-16998389D01*
X5495777Y-16998389D02*
X5486253Y-17017436D01*
X5486253Y-17017436D02*
X5476729Y-17026960D01*
X5476729Y-17026960D02*
X5457682Y-17036484D01*
X5457682Y-17036484D02*
X5438634Y-17036484D01*
X5438634Y-17036484D02*
X5419587Y-17026960D01*
X5419587Y-17026960D02*
X5410063Y-17017436D01*
X5410063Y-17017436D02*
X5400539Y-16998389D01*
X5400539Y-16998389D02*
X5391015Y-16960293D01*
X5391015Y-16960293D02*
X5391015Y-16912674D01*
X5391015Y-16912674D02*
X5400539Y-16874579D01*
X5400539Y-16874579D02*
X5410063Y-16855531D01*
X5410063Y-16855531D02*
X5419587Y-16846008D01*
X5419587Y-16846008D02*
X5438634Y-16836484D01*
X5591015Y-17017436D02*
X5600539Y-17026960D01*
X5600539Y-17026960D02*
X5591015Y-17036484D01*
X5591015Y-17036484D02*
X5581491Y-17026960D01*
X5581491Y-17026960D02*
X5591015Y-17017436D01*
X5591015Y-17017436D02*
X5591015Y-17036484D01*
X5724348Y-16836484D02*
X5743396Y-16836484D01*
X5743396Y-16836484D02*
X5762444Y-16846008D01*
X5762444Y-16846008D02*
X5771967Y-16855531D01*
X5771967Y-16855531D02*
X5781491Y-16874579D01*
X5781491Y-16874579D02*
X5791015Y-16912674D01*
X5791015Y-16912674D02*
X5791015Y-16960293D01*
X5791015Y-16960293D02*
X5781491Y-16998389D01*
X5781491Y-16998389D02*
X5771967Y-17017436D01*
X5771967Y-17017436D02*
X5762444Y-17026960D01*
X5762444Y-17026960D02*
X5743396Y-17036484D01*
X5743396Y-17036484D02*
X5724348Y-17036484D01*
X5724348Y-17036484D02*
X5705301Y-17026960D01*
X5705301Y-17026960D02*
X5695777Y-17017436D01*
X5695777Y-17017436D02*
X5686253Y-16998389D01*
X5686253Y-16998389D02*
X5676729Y-16960293D01*
X5676729Y-16960293D02*
X5676729Y-16912674D01*
X5676729Y-16912674D02*
X5686253Y-16874579D01*
X5686253Y-16874579D02*
X5695777Y-16855531D01*
X5695777Y-16855531D02*
X5705301Y-16846008D01*
X5705301Y-16846008D02*
X5724348Y-16836484D01*
X5962444Y-16903150D02*
X5962444Y-17036484D01*
X5914825Y-16826960D02*
X5867206Y-16969817D01*
X5867206Y-16969817D02*
X5991015Y-16969817D01*
X6048158Y-16836484D02*
X6181491Y-16836484D01*
X6181491Y-16836484D02*
X6095777Y-17036484D01*
X6248158Y-16855531D02*
X6257682Y-16846008D01*
X6257682Y-16846008D02*
X6276729Y-16836484D01*
X6276729Y-16836484D02*
X6324348Y-16836484D01*
X6324348Y-16836484D02*
X6343396Y-16846008D01*
X6343396Y-16846008D02*
X6352920Y-16855531D01*
X6352920Y-16855531D02*
X6362444Y-16874579D01*
X6362444Y-16874579D02*
X6362444Y-16893627D01*
X6362444Y-16893627D02*
X6352920Y-16922198D01*
X6352920Y-16922198D02*
X6238634Y-17036484D01*
X6238634Y-17036484D02*
X6362444Y-17036484D01*
X6438634Y-16836484D02*
X6438634Y-16874579D01*
X6514825Y-16836484D02*
X6514825Y-16874579D01*
X6810063Y-17112674D02*
X6800539Y-17103150D01*
X6800539Y-17103150D02*
X6781491Y-17074579D01*
X6781491Y-17074579D02*
X6771968Y-17055531D01*
X6771968Y-17055531D02*
X6762444Y-17026960D01*
X6762444Y-17026960D02*
X6752920Y-16979341D01*
X6752920Y-16979341D02*
X6752920Y-16941246D01*
X6752920Y-16941246D02*
X6762444Y-16893627D01*
X6762444Y-16893627D02*
X6771968Y-16865055D01*
X6771968Y-16865055D02*
X6781491Y-16846008D01*
X6781491Y-16846008D02*
X6800539Y-16817436D01*
X6800539Y-16817436D02*
X6810063Y-16807912D01*
X6876729Y-16855531D02*
X6886253Y-16846008D01*
X6886253Y-16846008D02*
X6905301Y-16836484D01*
X6905301Y-16836484D02*
X6952920Y-16836484D01*
X6952920Y-16836484D02*
X6971968Y-16846008D01*
X6971968Y-16846008D02*
X6981491Y-16855531D01*
X6981491Y-16855531D02*
X6991015Y-16874579D01*
X6991015Y-16874579D02*
X6991015Y-16893627D01*
X6991015Y-16893627D02*
X6981491Y-16922198D01*
X6981491Y-16922198D02*
X6867206Y-17036484D01*
X6867206Y-17036484D02*
X6991015Y-17036484D01*
X7229110Y-17036484D02*
X7229110Y-16836484D01*
X7314825Y-17036484D02*
X7314825Y-16931722D01*
X7314825Y-16931722D02*
X7305301Y-16912674D01*
X7305301Y-16912674D02*
X7286253Y-16903150D01*
X7286253Y-16903150D02*
X7257682Y-16903150D01*
X7257682Y-16903150D02*
X7238634Y-16912674D01*
X7238634Y-16912674D02*
X7229110Y-16922198D01*
X7438634Y-17036484D02*
X7419587Y-17026960D01*
X7419587Y-17026960D02*
X7410063Y-17017436D01*
X7410063Y-17017436D02*
X7400539Y-16998389D01*
X7400539Y-16998389D02*
X7400539Y-16941246D01*
X7400539Y-16941246D02*
X7410063Y-16922198D01*
X7410063Y-16922198D02*
X7419587Y-16912674D01*
X7419587Y-16912674D02*
X7438634Y-16903150D01*
X7438634Y-16903150D02*
X7467206Y-16903150D01*
X7467206Y-16903150D02*
X7486253Y-16912674D01*
X7486253Y-16912674D02*
X7495777Y-16922198D01*
X7495777Y-16922198D02*
X7505301Y-16941246D01*
X7505301Y-16941246D02*
X7505301Y-16998389D01*
X7505301Y-16998389D02*
X7495777Y-17017436D01*
X7495777Y-17017436D02*
X7486253Y-17026960D01*
X7486253Y-17026960D02*
X7467206Y-17036484D01*
X7467206Y-17036484D02*
X7438634Y-17036484D01*
X7619587Y-17036484D02*
X7600539Y-17026960D01*
X7600539Y-17026960D02*
X7591015Y-17007912D01*
X7591015Y-17007912D02*
X7591015Y-16836484D01*
X7771968Y-17026960D02*
X7752920Y-17036484D01*
X7752920Y-17036484D02*
X7714825Y-17036484D01*
X7714825Y-17036484D02*
X7695777Y-17026960D01*
X7695777Y-17026960D02*
X7686253Y-17007912D01*
X7686253Y-17007912D02*
X7686253Y-16931722D01*
X7686253Y-16931722D02*
X7695777Y-16912674D01*
X7695777Y-16912674D02*
X7714825Y-16903150D01*
X7714825Y-16903150D02*
X7752920Y-16903150D01*
X7752920Y-16903150D02*
X7771968Y-16912674D01*
X7771968Y-16912674D02*
X7781491Y-16931722D01*
X7781491Y-16931722D02*
X7781491Y-16950770D01*
X7781491Y-16950770D02*
X7686253Y-16969817D01*
X7857682Y-17026960D02*
X7876730Y-17036484D01*
X7876730Y-17036484D02*
X7914825Y-17036484D01*
X7914825Y-17036484D02*
X7933872Y-17026960D01*
X7933872Y-17026960D02*
X7943396Y-17007912D01*
X7943396Y-17007912D02*
X7943396Y-16998389D01*
X7943396Y-16998389D02*
X7933872Y-16979341D01*
X7933872Y-16979341D02*
X7914825Y-16969817D01*
X7914825Y-16969817D02*
X7886253Y-16969817D01*
X7886253Y-16969817D02*
X7867206Y-16960293D01*
X7867206Y-16960293D02*
X7857682Y-16941246D01*
X7857682Y-16941246D02*
X7857682Y-16931722D01*
X7857682Y-16931722D02*
X7867206Y-16912674D01*
X7867206Y-16912674D02*
X7886253Y-16903150D01*
X7886253Y-16903150D02*
X7914825Y-16903150D01*
X7914825Y-16903150D02*
X7933872Y-16912674D01*
X8010063Y-17112674D02*
X8019587Y-17103150D01*
X8019587Y-17103150D02*
X8038634Y-17074579D01*
X8038634Y-17074579D02*
X8048158Y-17055531D01*
X8048158Y-17055531D02*
X8057682Y-17026960D01*
X8057682Y-17026960D02*
X8067206Y-16979341D01*
X8067206Y-16979341D02*
X8067206Y-16941246D01*
X8067206Y-16941246D02*
X8057682Y-16893627D01*
X8057682Y-16893627D02*
X8048158Y-16865055D01*
X8048158Y-16865055D02*
X8038634Y-16846008D01*
X8038634Y-16846008D02*
X8019587Y-16817436D01*
X8019587Y-16817436D02*
X8010063Y-16807912D01*
D15*
X3105000Y-17144000D02*
X3235000Y-17274000D01*
X3235000Y-17144000D02*
X3105000Y-17274000D01*
X3170000Y-17144000D02*
X3170000Y-17274000D01*
X3105000Y-17209000D02*
X3235000Y-17209000D01*
D11*
X3600539Y-17300484D02*
X3486253Y-17300484D01*
X3543396Y-17300484D02*
X3543396Y-17100484D01*
X3543396Y-17100484D02*
X3524348Y-17129055D01*
X3524348Y-17129055D02*
X3505301Y-17148103D01*
X3505301Y-17148103D02*
X3486253Y-17157627D01*
X3686253Y-17281436D02*
X3695777Y-17290960D01*
X3695777Y-17290960D02*
X3686253Y-17300484D01*
X3686253Y-17300484D02*
X3676729Y-17290960D01*
X3676729Y-17290960D02*
X3686253Y-17281436D01*
X3686253Y-17281436D02*
X3686253Y-17300484D01*
X3762443Y-17100484D02*
X3886253Y-17100484D01*
X3886253Y-17100484D02*
X3819586Y-17176674D01*
X3819586Y-17176674D02*
X3848158Y-17176674D01*
X3848158Y-17176674D02*
X3867205Y-17186198D01*
X3867205Y-17186198D02*
X3876729Y-17195722D01*
X3876729Y-17195722D02*
X3886253Y-17214770D01*
X3886253Y-17214770D02*
X3886253Y-17262389D01*
X3886253Y-17262389D02*
X3876729Y-17281436D01*
X3876729Y-17281436D02*
X3867205Y-17290960D01*
X3867205Y-17290960D02*
X3848158Y-17300484D01*
X3848158Y-17300484D02*
X3791015Y-17300484D01*
X3791015Y-17300484D02*
X3771967Y-17290960D01*
X3771967Y-17290960D02*
X3762443Y-17281436D01*
X4010062Y-17100484D02*
X4029110Y-17100484D01*
X4029110Y-17100484D02*
X4048158Y-17110008D01*
X4048158Y-17110008D02*
X4057682Y-17119531D01*
X4057682Y-17119531D02*
X4067205Y-17138579D01*
X4067205Y-17138579D02*
X4076729Y-17176674D01*
X4076729Y-17176674D02*
X4076729Y-17224293D01*
X4076729Y-17224293D02*
X4067205Y-17262389D01*
X4067205Y-17262389D02*
X4057682Y-17281436D01*
X4057682Y-17281436D02*
X4048158Y-17290960D01*
X4048158Y-17290960D02*
X4029110Y-17300484D01*
X4029110Y-17300484D02*
X4010062Y-17300484D01*
X4010062Y-17300484D02*
X3991015Y-17290960D01*
X3991015Y-17290960D02*
X3981491Y-17281436D01*
X3981491Y-17281436D02*
X3971967Y-17262389D01*
X3971967Y-17262389D02*
X3962443Y-17224293D01*
X3962443Y-17224293D02*
X3962443Y-17176674D01*
X3962443Y-17176674D02*
X3971967Y-17138579D01*
X3971967Y-17138579D02*
X3981491Y-17119531D01*
X3981491Y-17119531D02*
X3991015Y-17110008D01*
X3991015Y-17110008D02*
X4010062Y-17100484D01*
X4200539Y-17100484D02*
X4219586Y-17100484D01*
X4219586Y-17100484D02*
X4238634Y-17110008D01*
X4238634Y-17110008D02*
X4248158Y-17119531D01*
X4248158Y-17119531D02*
X4257682Y-17138579D01*
X4257682Y-17138579D02*
X4267205Y-17176674D01*
X4267205Y-17176674D02*
X4267205Y-17224293D01*
X4267205Y-17224293D02*
X4257682Y-17262389D01*
X4257682Y-17262389D02*
X4248158Y-17281436D01*
X4248158Y-17281436D02*
X4238634Y-17290960D01*
X4238634Y-17290960D02*
X4219586Y-17300484D01*
X4219586Y-17300484D02*
X4200539Y-17300484D01*
X4200539Y-17300484D02*
X4181491Y-17290960D01*
X4181491Y-17290960D02*
X4171967Y-17281436D01*
X4171967Y-17281436D02*
X4162443Y-17262389D01*
X4162443Y-17262389D02*
X4152920Y-17224293D01*
X4152920Y-17224293D02*
X4152920Y-17176674D01*
X4152920Y-17176674D02*
X4162443Y-17138579D01*
X4162443Y-17138579D02*
X4171967Y-17119531D01*
X4171967Y-17119531D02*
X4181491Y-17110008D01*
X4181491Y-17110008D02*
X4200539Y-17100484D01*
X4352920Y-17300484D02*
X4352920Y-17167150D01*
X4352920Y-17186198D02*
X4362444Y-17176674D01*
X4362444Y-17176674D02*
X4381491Y-17167150D01*
X4381491Y-17167150D02*
X4410063Y-17167150D01*
X4410063Y-17167150D02*
X4429110Y-17176674D01*
X4429110Y-17176674D02*
X4438634Y-17195722D01*
X4438634Y-17195722D02*
X4438634Y-17300484D01*
X4438634Y-17195722D02*
X4448158Y-17176674D01*
X4448158Y-17176674D02*
X4467205Y-17167150D01*
X4467205Y-17167150D02*
X4495777Y-17167150D01*
X4495777Y-17167150D02*
X4514825Y-17176674D01*
X4514825Y-17176674D02*
X4524348Y-17195722D01*
X4524348Y-17195722D02*
X4524348Y-17300484D01*
X4619586Y-17300484D02*
X4619586Y-17167150D01*
X4619586Y-17186198D02*
X4629110Y-17176674D01*
X4629110Y-17176674D02*
X4648158Y-17167150D01*
X4648158Y-17167150D02*
X4676729Y-17167150D01*
X4676729Y-17167150D02*
X4695777Y-17176674D01*
X4695777Y-17176674D02*
X4705301Y-17195722D01*
X4705301Y-17195722D02*
X4705301Y-17300484D01*
X4705301Y-17195722D02*
X4714825Y-17176674D01*
X4714825Y-17176674D02*
X4733872Y-17167150D01*
X4733872Y-17167150D02*
X4762444Y-17167150D01*
X4762444Y-17167150D02*
X4781491Y-17176674D01*
X4781491Y-17176674D02*
X4791015Y-17195722D01*
X4791015Y-17195722D02*
X4791015Y-17300484D01*
X5181491Y-17090960D02*
X5010063Y-17348103D01*
X5438634Y-17100484D02*
X5457682Y-17100484D01*
X5457682Y-17100484D02*
X5476729Y-17110008D01*
X5476729Y-17110008D02*
X5486253Y-17119531D01*
X5486253Y-17119531D02*
X5495777Y-17138579D01*
X5495777Y-17138579D02*
X5505301Y-17176674D01*
X5505301Y-17176674D02*
X5505301Y-17224293D01*
X5505301Y-17224293D02*
X5495777Y-17262389D01*
X5495777Y-17262389D02*
X5486253Y-17281436D01*
X5486253Y-17281436D02*
X5476729Y-17290960D01*
X5476729Y-17290960D02*
X5457682Y-17300484D01*
X5457682Y-17300484D02*
X5438634Y-17300484D01*
X5438634Y-17300484D02*
X5419587Y-17290960D01*
X5419587Y-17290960D02*
X5410063Y-17281436D01*
X5410063Y-17281436D02*
X5400539Y-17262389D01*
X5400539Y-17262389D02*
X5391015Y-17224293D01*
X5391015Y-17224293D02*
X5391015Y-17176674D01*
X5391015Y-17176674D02*
X5400539Y-17138579D01*
X5400539Y-17138579D02*
X5410063Y-17119531D01*
X5410063Y-17119531D02*
X5419587Y-17110008D01*
X5419587Y-17110008D02*
X5438634Y-17100484D01*
X5591015Y-17281436D02*
X5600539Y-17290960D01*
X5600539Y-17290960D02*
X5591015Y-17300484D01*
X5591015Y-17300484D02*
X5581491Y-17290960D01*
X5581491Y-17290960D02*
X5591015Y-17281436D01*
X5591015Y-17281436D02*
X5591015Y-17300484D01*
X5724348Y-17100484D02*
X5743396Y-17100484D01*
X5743396Y-17100484D02*
X5762444Y-17110008D01*
X5762444Y-17110008D02*
X5771967Y-17119531D01*
X5771967Y-17119531D02*
X5781491Y-17138579D01*
X5781491Y-17138579D02*
X5791015Y-17176674D01*
X5791015Y-17176674D02*
X5791015Y-17224293D01*
X5791015Y-17224293D02*
X5781491Y-17262389D01*
X5781491Y-17262389D02*
X5771967Y-17281436D01*
X5771967Y-17281436D02*
X5762444Y-17290960D01*
X5762444Y-17290960D02*
X5743396Y-17300484D01*
X5743396Y-17300484D02*
X5724348Y-17300484D01*
X5724348Y-17300484D02*
X5705301Y-17290960D01*
X5705301Y-17290960D02*
X5695777Y-17281436D01*
X5695777Y-17281436D02*
X5686253Y-17262389D01*
X5686253Y-17262389D02*
X5676729Y-17224293D01*
X5676729Y-17224293D02*
X5676729Y-17176674D01*
X5676729Y-17176674D02*
X5686253Y-17138579D01*
X5686253Y-17138579D02*
X5695777Y-17119531D01*
X5695777Y-17119531D02*
X5705301Y-17110008D01*
X5705301Y-17110008D02*
X5724348Y-17100484D01*
X5971967Y-17100484D02*
X5876729Y-17100484D01*
X5876729Y-17100484D02*
X5867206Y-17195722D01*
X5867206Y-17195722D02*
X5876729Y-17186198D01*
X5876729Y-17186198D02*
X5895777Y-17176674D01*
X5895777Y-17176674D02*
X5943396Y-17176674D01*
X5943396Y-17176674D02*
X5962444Y-17186198D01*
X5962444Y-17186198D02*
X5971967Y-17195722D01*
X5971967Y-17195722D02*
X5981491Y-17214770D01*
X5981491Y-17214770D02*
X5981491Y-17262389D01*
X5981491Y-17262389D02*
X5971967Y-17281436D01*
X5971967Y-17281436D02*
X5962444Y-17290960D01*
X5962444Y-17290960D02*
X5943396Y-17300484D01*
X5943396Y-17300484D02*
X5895777Y-17300484D01*
X5895777Y-17300484D02*
X5876729Y-17290960D01*
X5876729Y-17290960D02*
X5867206Y-17281436D01*
X6171967Y-17300484D02*
X6057682Y-17300484D01*
X6114825Y-17300484D02*
X6114825Y-17100484D01*
X6114825Y-17100484D02*
X6095777Y-17129055D01*
X6095777Y-17129055D02*
X6076729Y-17148103D01*
X6076729Y-17148103D02*
X6057682Y-17157627D01*
X6248158Y-17119531D02*
X6257682Y-17110008D01*
X6257682Y-17110008D02*
X6276729Y-17100484D01*
X6276729Y-17100484D02*
X6324348Y-17100484D01*
X6324348Y-17100484D02*
X6343396Y-17110008D01*
X6343396Y-17110008D02*
X6352920Y-17119531D01*
X6352920Y-17119531D02*
X6362444Y-17138579D01*
X6362444Y-17138579D02*
X6362444Y-17157627D01*
X6362444Y-17157627D02*
X6352920Y-17186198D01*
X6352920Y-17186198D02*
X6238634Y-17300484D01*
X6238634Y-17300484D02*
X6362444Y-17300484D01*
X6438634Y-17100484D02*
X6438634Y-17138579D01*
X6514825Y-17100484D02*
X6514825Y-17138579D01*
X6810063Y-17376674D02*
X6800539Y-17367150D01*
X6800539Y-17367150D02*
X6781491Y-17338579D01*
X6781491Y-17338579D02*
X6771968Y-17319531D01*
X6771968Y-17319531D02*
X6762444Y-17290960D01*
X6762444Y-17290960D02*
X6752920Y-17243341D01*
X6752920Y-17243341D02*
X6752920Y-17205246D01*
X6752920Y-17205246D02*
X6762444Y-17157627D01*
X6762444Y-17157627D02*
X6771968Y-17129055D01*
X6771968Y-17129055D02*
X6781491Y-17110008D01*
X6781491Y-17110008D02*
X6800539Y-17081436D01*
X6800539Y-17081436D02*
X6810063Y-17071912D01*
X6876729Y-17119531D02*
X6886253Y-17110008D01*
X6886253Y-17110008D02*
X6905301Y-17100484D01*
X6905301Y-17100484D02*
X6952920Y-17100484D01*
X6952920Y-17100484D02*
X6971968Y-17110008D01*
X6971968Y-17110008D02*
X6981491Y-17119531D01*
X6981491Y-17119531D02*
X6991015Y-17138579D01*
X6991015Y-17138579D02*
X6991015Y-17157627D01*
X6991015Y-17157627D02*
X6981491Y-17186198D01*
X6981491Y-17186198D02*
X6867206Y-17300484D01*
X6867206Y-17300484D02*
X6991015Y-17300484D01*
X7229110Y-17300484D02*
X7229110Y-17100484D01*
X7314825Y-17300484D02*
X7314825Y-17195722D01*
X7314825Y-17195722D02*
X7305301Y-17176674D01*
X7305301Y-17176674D02*
X7286253Y-17167150D01*
X7286253Y-17167150D02*
X7257682Y-17167150D01*
X7257682Y-17167150D02*
X7238634Y-17176674D01*
X7238634Y-17176674D02*
X7229110Y-17186198D01*
X7438634Y-17300484D02*
X7419587Y-17290960D01*
X7419587Y-17290960D02*
X7410063Y-17281436D01*
X7410063Y-17281436D02*
X7400539Y-17262389D01*
X7400539Y-17262389D02*
X7400539Y-17205246D01*
X7400539Y-17205246D02*
X7410063Y-17186198D01*
X7410063Y-17186198D02*
X7419587Y-17176674D01*
X7419587Y-17176674D02*
X7438634Y-17167150D01*
X7438634Y-17167150D02*
X7467206Y-17167150D01*
X7467206Y-17167150D02*
X7486253Y-17176674D01*
X7486253Y-17176674D02*
X7495777Y-17186198D01*
X7495777Y-17186198D02*
X7505301Y-17205246D01*
X7505301Y-17205246D02*
X7505301Y-17262389D01*
X7505301Y-17262389D02*
X7495777Y-17281436D01*
X7495777Y-17281436D02*
X7486253Y-17290960D01*
X7486253Y-17290960D02*
X7467206Y-17300484D01*
X7467206Y-17300484D02*
X7438634Y-17300484D01*
X7619587Y-17300484D02*
X7600539Y-17290960D01*
X7600539Y-17290960D02*
X7591015Y-17271912D01*
X7591015Y-17271912D02*
X7591015Y-17100484D01*
X7771968Y-17290960D02*
X7752920Y-17300484D01*
X7752920Y-17300484D02*
X7714825Y-17300484D01*
X7714825Y-17300484D02*
X7695777Y-17290960D01*
X7695777Y-17290960D02*
X7686253Y-17271912D01*
X7686253Y-17271912D02*
X7686253Y-17195722D01*
X7686253Y-17195722D02*
X7695777Y-17176674D01*
X7695777Y-17176674D02*
X7714825Y-17167150D01*
X7714825Y-17167150D02*
X7752920Y-17167150D01*
X7752920Y-17167150D02*
X7771968Y-17176674D01*
X7771968Y-17176674D02*
X7781491Y-17195722D01*
X7781491Y-17195722D02*
X7781491Y-17214770D01*
X7781491Y-17214770D02*
X7686253Y-17233817D01*
X7857682Y-17290960D02*
X7876730Y-17300484D01*
X7876730Y-17300484D02*
X7914825Y-17300484D01*
X7914825Y-17300484D02*
X7933872Y-17290960D01*
X7933872Y-17290960D02*
X7943396Y-17271912D01*
X7943396Y-17271912D02*
X7943396Y-17262389D01*
X7943396Y-17262389D02*
X7933872Y-17243341D01*
X7933872Y-17243341D02*
X7914825Y-17233817D01*
X7914825Y-17233817D02*
X7886253Y-17233817D01*
X7886253Y-17233817D02*
X7867206Y-17224293D01*
X7867206Y-17224293D02*
X7857682Y-17205246D01*
X7857682Y-17205246D02*
X7857682Y-17195722D01*
X7857682Y-17195722D02*
X7867206Y-17176674D01*
X7867206Y-17176674D02*
X7886253Y-17167150D01*
X7886253Y-17167150D02*
X7914825Y-17167150D01*
X7914825Y-17167150D02*
X7933872Y-17176674D01*
X8010063Y-17376674D02*
X8019587Y-17367150D01*
X8019587Y-17367150D02*
X8038634Y-17338579D01*
X8038634Y-17338579D02*
X8048158Y-17319531D01*
X8048158Y-17319531D02*
X8057682Y-17290960D01*
X8057682Y-17290960D02*
X8067206Y-17243341D01*
X8067206Y-17243341D02*
X8067206Y-17205246D01*
X8067206Y-17205246D02*
X8057682Y-17157627D01*
X8057682Y-17157627D02*
X8048158Y-17129055D01*
X8048158Y-17129055D02*
X8038634Y-17110008D01*
X8038634Y-17110008D02*
X8019587Y-17081436D01*
X8019587Y-17081436D02*
X8010063Y-17071912D01*
M02*
